<?xml version="1.0" encoding="utf-8"?>
<!-- Generator: Adobe Illustrator 19.2.1, SVG Export Plug-In . SVG Version: 6.00 Build 0)  -->
<svg version="1.1" id="Layer_1" xmlns="http://www.w3.org/2000/svg" xmlns:xlink="http://www.w3.org/1999/xlink" x="0px" y="0px"
	 viewBox="0 0 1000 500" style="enable-background:new 0 0 1000 500;" xml:space="preserve">
<style type="text/css">
	.st0{fill:#FFFFFF;}
</style>
<g>
	<path class="st0" d="M53.1,106.6H39.2V95.5h40.4v11.1H65.8V145H53.1V106.6z"/>
	<path class="st0" d="M108.1,94.7c15.1,0,26.4,10.5,26.4,25.6c0,15.1-11.3,25.6-26.4,25.6s-26.5-10.5-26.5-25.6
		C81.6,105.2,92.9,94.7,108.1,94.7z M108.1,106c-8.2,0-13.5,6.2-13.5,14.3c0,8,5.3,14.3,13.5,14.3c8.2,0,13.4-6.3,13.4-14.3
		C121.5,112.2,116.2,106,108.1,106z"/>
	<path class="st0" d="M164.9,94.7c15.1,0,26.4,10.5,26.4,25.6c0,15.1-11.3,25.6-26.4,25.6s-26.5-10.5-26.5-25.6
		C138.4,105.2,149.8,94.7,164.9,94.7z M164.9,106c-8.2,0-13.5,6.2-13.5,14.3c0,8,5.3,14.3,13.5,14.3c8.2,0,13.4-6.3,13.4-14.3
		C178.3,112.2,173.1,106,164.9,106z"/>
	<path class="st0" d="M197.8,95.5h12.8v38.4h19.9V145h-32.6V95.5z"/>
	<path class="st0" d="M240.2,128.4c3.6,3.6,9.1,6.5,15.8,6.5c4.4,0,7-1.9,7-4.2c0-2.8-3.2-3.9-8.5-5c-8.2-1.6-19.6-3.7-19.6-15.4
		c0-8.3,7-15.5,19.7-15.5c7.9,0,14.8,2.4,20.1,6.9l-7,9.1c-4.2-3.4-9.6-5.1-14-5.1c-4.2,0-5.9,1.7-5.9,3.9c0,2.6,3,3.5,8.5,4.5
		c8.2,1.7,19.4,4.1,19.4,15.3c0,9.9-7.3,16.5-20.6,16.5c-10,0-17-3.1-22-7.9L240.2,128.4z"/>
	<path class="st0" d="M312,106.6h-13.9V95.5h40.4v11.1h-13.8V145H312V106.6z"/>
	<path class="st0" d="M367,94.7c15.1,0,26.4,10.5,26.4,25.6c0,15.1-11.3,25.6-26.4,25.6s-26.5-10.5-26.5-25.6
		C340.5,105.2,351.9,94.7,367,94.7z M367,106c-8.2,0-13.5,6.2-13.5,14.3c0,8,5.3,14.3,13.5,14.3c8.2,0,13.4-6.3,13.4-14.3
		C380.5,112.2,375.2,106,367,106z"/>
	<path class="st0" d="M452.2,125.1h-20.6V145h-12.8V95.5h12.8V114h20.6V95.5H465V145h-12.8V125.1z"/>
	<path class="st0" d="M473.9,95.5h36.3v10.8h-23.5v8.2h23v10.8h-23v8.9h23.5V145h-36.3V95.5z"/>
	<path class="st0" d="M517.6,95.5h12.8v38.4h19.9V145h-32.7V95.5z"/>
	<path class="st0" d="M556.8,95.5h24.8c11.1,0,17.2,7.5,17.2,16.5c0,8.9-6.1,16.3-17.2,16.3h-12V145h-12.8V95.5z M579.9,106.3h-10.3
		v11.1h10.3c3.4,0,5.9-2.2,5.9-5.5C585.9,108.5,583.3,106.3,579.9,106.3z"/>
	<path class="st0" d="M637.1,125l-18.8-29.5h14.4l10.8,18.3L654,95.5h14.5L649.8,125v20h-12.8V125z"/>
	<path class="st0" d="M693.1,94.7c15.1,0,26.4,10.5,26.4,25.6c0,15.1-11.3,25.6-26.4,25.6c-15.1,0-26.5-10.5-26.5-25.6
		C666.7,105.2,678,94.7,693.1,94.7z M693.1,106c-8.2,0-13.5,6.2-13.5,14.3c0,8,5.3,14.3,13.5,14.3c8.2,0,13.4-6.3,13.4-14.3
		C706.6,112.2,701.3,106,693.1,106z"/>
	<path class="st0" d="M726,95.5h13v29c0,5.9,3.1,10.1,10,10.1c6.8,0,9.9-4.2,9.9-10.1v-29h13v29.4c0,12.3-7,21-22.9,21
		s-23-8.8-23-20.9V95.5z"/>
	<path class="st0" d="M819.1,128.2h-6.5V145h-12.8V95.5h24.8c11,0,17.2,7.3,17.2,16.5c0,8.6-5.3,13.2-9.9,14.8l10.1,18.2h-14.6
		L819.1,128.2z M822.7,106.3h-10.1v11.1h10.1c3.3,0,6.2-2.2,6.2-5.6S826,106.3,822.7,106.3z"/>
	<path class="st0" d="M848.9,95.5h12.8V145h-12.8V95.5z"/>
	<path class="st0" d="M870.6,95.5h20.8c15.6,0,26.8,9.3,26.8,24.7c0,15.4-11.2,24.8-26.7,24.8h-20.9V95.5z M891.3,133.9
		c8.7,0,13.7-6.3,13.7-13.7c0-7.6-4.6-13.6-13.7-13.6h-8.1v27.2H891.3z"/>
	<path class="st0" d="M924.5,95.5h36.3v10.8h-23.5v8.2h23v10.8h-23v8.9h23.5V145h-36.3V95.5z"/>
</g>
<g>
	<path class="st0" d="M314.2,284.7c-0.8,1.8-0.5,4-0.5,6.3c0.5,2.5-1.5,4.5-1.5,7c0,2.3,0.3,4.5-0.8,6.8c-1,2-1.3,4.8-4.5,7
		c2.3,1,1.8,2,1.3,3c-0.8,1.8-2,3.3-2.3,4.8c0,1.5-0.3,2.8-2.5,4.8c-0.8,1-1.8,2-1.5,3.8c0.3,0.8-0.5,1.8-1,2.8
		c-0.3,1.3-0.3,3.5-1.3,4c-2.3,1.3-2,3.5-4.3,5c-1,1.8-1,4.5-2,6.3c-2.3,4.8-3.8,9.5-8,12.8c-1.3,1.5-1.5,4-3,5.3
		c-1.3,1.3-3.3,2.3-4.5,4.3c-0.8,1.3-1.3,2.8-1.8,4c-0.3,0.5-0.5,1.5-0.8,1.8c-2.8,1-3,3.8-4.3,5.8c-1.8,2.3-3.3,4.5-5.8,6.5
		c-1.8,1-3.5,2.8-4.5,4.8c-0.8,1.3-1.8,2.8-3.5,3.5c0-0.8-0.3-1.5-0.3-2c0.8-4,1.5-8.5,3.8-12c0.8-1.5,0.8-3,1.3-4.8
		c0.8-1.3-1.3-2.3-2.5-2c-0.3,0-0.5,0.3-0.5,0.3c-2,0.8-4,0.5-6,1.5c-4.8,1.3-6.8-0.3-8.8-1.5c-0.5-0.3-1-1-1-1.5
		c0-3.8-2.3-7.3-2.8-10.8c-0.3-0.8-0.8-1.3-0.3-2c0.5-1.3,1-2.5,1.3-3.8c-1.8-2.3,0-5.3-1.3-7.8c-1.5-2,0-4.8-1.5-7.3
		c-0.8-0.5,0-1.5,0.5-2.3c1.3-1.3,1.8-2.5,1.5-4.3c-0.3-1.5-1-2.8-1-3.8c0.3-1.3,1-2.5,1-3.8c0-1.5,0.3-3-0.8-4
		c-0.3-0.5-0.5-1.5-0.3-1.8c1.8-2,1-4.3,0.8-6.8c0-1.5-1.5-2.8-0.8-4.3c0.5-1.8-0.3-3.8,0.5-5c1.3-1.8-1-2.8,0-4.3
		c0.8-1.3,0.3-2.8-0.3-4c-0.5-1,0-1.8,0.3-2.5c0.8-1.3,2.8-1,2.8-2.5c0-1-1-2.3-1-3.3c-0.3-1.8,0-3.5,0.3-5.3c0.3-3-2-5-1.5-7.8
		c0.3-2.8,0.5-5.3,0-7.5c-0.5-2.3-0.8-4.5,0.8-6.3c2-2,0.5-4.5,1.3-6.8c0.5-1-0.5-1.3-1-1.5c-0.8-0.5-1.3-1.3-0.8-2.3
		c0.8-1.8,0.3-3.3,0-5.3c-0.3-1.5-0.5-3,0.5-4.3c0.8-1.3,0-2-0.3-3.5c-0.3-1.8,0-3.5-0.3-5.5c1.8-1.3,0-3.5,0.8-5
		c0.8-1.5,0.3-3.3,0.3-5v-3.3c-0.8-0.3-1.3-0.8-1.3-1.8c-0.5-2,1.5-3.5,1.3-5.8c-0.3-2-1.8-3.8-1.3-5.8c0.3-1,0-2.5,0-3.5
		c-0.3-1.5,0.5-3.3-0.8-4.3c-2,0.5-4.8,0.3-6,2.3c-1,2-0.5,2.5-2,3.8c-0.5,0.3-1,0.5-1.3,0.3c-1.8-1.8-3.5,0.8-5.3,0
		c-1-0.8-2-1.5-2.3-2.5c-0.3-1.8-1-2.8-2.5-3.5c-1.3-0.8-2-2-1.8-3.5h-0.3c1-0.3,1.5-0.5,1.5-1.3c-0.3-0.8-0.8-1.5-0.8-2.5
		c-0.5-0.8,0.3-1.3,0.8-1.3c0.8-0.3,1.5-0.3,2-0.3c4.8,0.5,9.3-0.8,13.8-1.8c4.8-1.5,7.3-4.8,12.3-4.5c3.3,0.3,9.3-3.3,12.5-3
		c4.5,0.5,7.3-3.3,11.8-2.5c7.5,1.3,13.5-2.8,20.5,0.5c4.3,1.8,8.5,3,12,5.5c3.3,2.3,6.3,5,7.3,8.8c1,2.5,2.3,15.8-0.3,18.5
		c-0.8,0.8-0.8,2.3-1.3,3.3c-0.3,1-0.5,2.3-1.3,2.8c-3.3,3.3-2.5,8.3-6.8,10.5c-1.5,0.8-2.8,2.3-3.3,3.5c-2,3.8-5.5,6-8.8,9
		c-3,2.3-5.8,4.8-8.3,7.5c-0.8,0.8-1.8,1.8-2.3,2.5c-1.8,3.8-4.3,7-6.3,10.3c-0.3,0.5-0.5,0.8,0,1c0.3,0.5,0.8,1,1,0.8
		c7-1.5,14-0.8,20.8-0.8c2.3,0,4,0.5,5.8,1.8c0.5,0.5,1,1,1.8,1c2.5,0.5,4,2,5,4c1.8,3,5.8,6,5.3,9.5
		C313.5,280.4,315.2,282.4,314.2,284.7z M242.9,218.9c-0.3,0.3-0.5,0.5-0.5,0.8C242.9,219.6,243.7,219.6,242.9,218.9z M245.2,234.6
		l-0.8-0.8c-0.3,1-0.3,2-0.3,3v1.5c0,1.5,0,3.3-0.8,5c-0.3,0.3-0.3,3.3,0.5,3.3c0.3,0,0.8-1.5,1.8-6.3
		C245.9,238.6,245.9,236.1,245.2,234.6z M243.7,205.1c0,3,0.3,5.5,0.5,8.5c0,0.8,0.5,2.3,0.8,1.8c0.5-1,0.5-1.8,0.5-2.5
		c0-1-0.3-2.3-0.3-3.8c0-1.8,0-3.5-1-4H243.7z M245.2,218.9l-0.5-1c0,0.8-1,4.3-0.8,4.5C246.2,225.6,245.4,219.9,245.2,218.9z
		 M259.7,190.1c-0.3-0.3-0.3-0.5-0.5-0.5c-0.3-0.3-0.5,0-0.3,0.3C259.2,190.1,259.2,190.1,259.7,190.1z M299.7,284.7l0.5-0.8
		c-0.5-1.3-1-2.8-1.8-3.8c-2.3,0.8-2.3-0.8-2.3-2v-3.3c-0.3-2.5-2-4.3-3.5-5.5c-1.3-1-3.3-1-5.3-1.5c-3,1.5-6.5,0.3-9.8,1.3
		c-3,1-6,0.8-9.3,1c-1.8,0.3-3.8-0.3-5,0.5c-2.3,1.3-0.5,3.8-0.8,5.8c-0.5,0.5-0.5,1.3-0.8,1.8c-1.3,1.3-0.3,3.3-1,4.5
		c-1.3,1.8,0.3,3,0.3,4.3v2c-0.8,6.3,1,12.5-1,18.8c2,4.3,0.5,8.8,1,13c0.3,3,0.3,6-1,8.8c-0.8,1.3-0.8,3,0.5,4.5
		c1.5,1.5,1.5,2.8,0.8,4.8c-0.5,1.3,0.8,3.3,0.5,4.5c0,1.8-0.8,3.3,0,5c0.8,1.5-0.3,3.8-0.5,5.5c2,1.3-0.3,3,0.3,4.8
		c1,1.5,1,3.3,1,4.8c0.3,1.8,0.3,3.3,0.3,5.5c1-1.5,1.8-3,3-3.5c2-0.8,3-2.3,3.8-4.3c1-2.3,2.8-4.3,3.5-6.5c0.8-2.8,2.3-5.5,1.5-8.3
		c0.3-0.3,0.5-0.3,0.5-0.3c2-3.5,4.3-7,6.3-10.8c1.5-3.3,2.8-6.5,4-9.5c0.3-0.8,0-2,0-2.8c0.5,0,1-0.3,1-0.8c0-0.5-0.5-0.8-1-0.5
		v1.3c-0.5,0-1-0.3-0.8-1c0-0.3,0.5-0.3,0.8-0.5v0.3c0-1.3,0-1.3,1.8-1.8c2-0.8,3.3-2.3,3.5-3.8c0.3-2.3,0.8-4,2.3-5.5
		c0.5-0.3,0.5-1,0-1c-2.3-0.5-1-1.8-0.8-3l1.5-3.8c0.5-1.3,0.8-2.5,0.8-4.3c2.5-0.3,0.8-2,1-2.8c1-2,1.5-4.3,2-6.5
		c0-0.3-0.5-0.8-1-1c-0.5-1.3,1-2,1.3-3C298,284.4,298.7,284.2,299.7,284.7z M259.9,190.3c0.3,0.8,0.8,1.5,0.8,2.3
		c0,4.5,1.5,13.5,2.3,17.8c0,3,1,5.3,0.8,8.3c0-0.3-0.3-0.5-0.5,0.3c-1.3,2,1,4,0.8,6c-0.3,1-0.3,2.3-0.8,3.3c-1,1.8-0.5,4-0.5,6
		c-0.5,2.3,0.3,4.8-0.5,6.8c-0.8,2,0,3.3,1,5c2.5-2.8,5-5.3,7.5-7.8c1.5-1.3,3-2.3,2.8-4.5c1.8-3,2.5-7,6.5-9c1-0.5,1.8-1.3,2.3-2.3
		c-0.8-3,0.8-5.3,3-7.5c1.3-1.3,2.3-2.5,0.8-4l2.8-5c0.8-2,1.8-14.5,0.8-16.5c-1-1.8-2.8-1.5-4.3-1.8c-0.3-0.3-0.5-0.3-0.5-0.8
		c-4.5-2.8-4.5,2-9.5,0.3C271.2,185.6,264.4,189.8,259.9,190.3z M261.7,330c0,0.3,0.3,0.3,0.3,0.5l-0.3,0.3c-0.3,0-0.5-0.3-0.5-0.3
		L261.7,330z M287.5,316.7c0.3,0,0.5,0.3,0.5,0.3c-0.5,0.8-0.8,0.5-1,0L287.5,316.7z M296,303.5c0,0-0.3-0.3-0.3-0.5
		c-0.3,0.3-0.5,0.3-0.5,0.5c0,0.5,0,0.8,0.3,1.3h0.3C296,304.2,296,304,296,303.5z M300,292.7c0-0.3-0.3-0.3-0.3-0.3
		c-0.3,0.5-0.5,0.8-0.5,1.3c0,0,0.3,0.3,0.5,0.3C300.2,294.2,300.5,293.2,300,292.7z M299.5,287.2l0.3,0.3c0.3,0,0.3-0.3,0.5-0.3
		C300,286.7,299.7,286.7,299.5,287.2z"/>
	<path class="st0" d="M345,381.3c-2.5-0.8-5-1.5-7.5-1.8c-1.8-0.3-3.3-1.5-4.5-2.5c-1.8-1-3-2.5-4.5-3.8c-1-0.8-2-1.3-1.5-2.5
		c0.3-0.5,1.3-1.3,1.8-2v0.3c0.5-0.5,1-1,1.3-1.5c0.5-4.8,1.3-9.5,1.3-14.3c0-4.8-0.5-9.5,0.8-14.3c0.5-2.3,0-4.8,0.3-7.3
		c0-3-0.3-6,0.8-9c0.8-2.8,0.3-6,0-9c0.3-0.3,1.3,0,0.5-1c0,0.3-0.3,0.8-0.5,1l-1.8,0.8c-0.3,0-0.5-0.3-0.5-0.8
		c-0.3-1,0.5-1.8,1-2.3c2.3-2,4-4,2.8-7.3c1.8-4,0.3-11.8,1.8-15.8c0.5-0.8-0.8-1.5-1.5-1.5c-0.8,0-1.5,0-2,0.3l-11.3,4.3
		c-1,0.5-2,0.5-3-0.5c-1-0.8-2-1.5-3-2.5c-0.8-0.8-1-1.8-1-3c0-1,0.5-1.8,0.3-3c-0.3-1.5,0.8-2.8,2-2.8c7,0.3,13-6.8,19.5-6
		c0.5,0,1.3-0.8,1.3-1.3c0.5-1.8,1.3-3.5,1.3-5.5c0-4.5-0.3-5.8,1-10c0.5-1.3-1.3-2.5-0.5-3.8c0.8-1,0.5-2.5,0.8-3.8
		c0.5-2.3-0.8-4.8,0.5-7.3c1.3-2-0.3-4.5,1.5-7c0.3-0.3,0.3-0.8,0.3-1.3c-0.3-4.8,1-9.5,1.3-14.3c0-2.8,1.3-5.3-0.3-8
		c-0.5-0.8,0.3-4.3,0.5-5.3c0-0.3,0-1-0.3-1c-0.5-0.3-1.3-0.5-1.8-0.3l-3.5,1.8c-2.3,1-3.8,3.8-5.5,2c-2.5-2.3-5.5,2-7.3,3.8
		c-1.3-1-3-0.8-4.8-1.8l-5.5-4.3c1-2.3,3-7,5-7.8l8-3.3c1.5-1.3,3.8,1,4.8-0.5c2.3-3.5,4.8-1.8,7-3c1.5-0.8,2.8,0.3,2.8-1.5
		c0-2.3,1.8-3,3.5-3.3c1.5-0.3,3-0.3,4.5,0.8c1.5,1,3.3,0,5-0.3l19-3.5c2.5-0.5,5.3,0,7.8-1.5c9.8-2.3,14.3-4.5,18.8-6
		c0.5-0.3,1.3,2,1.8,2c0.3,0,0.5,0.3,0.8,0.3c-0.8,1.5-1.8,4-3.3,4.8c-5.5,2.5-16,7-21.8,9.3c-2,0.8-4,0.8-6,1.5
		c-3.5,1.8-7,3.8-11,2.3c-0.8,0-1.5,1.3-2.5,2c-0.8,0.5-0.5,1.5-0.3,2.3c0.8,3.5,2,5.3,2.3,8.8c0.5,4.3,0.5,8.8,0.3,13
		c0,1.8-0.8,3.3-0.8,4.8v4.8c0,1.3-0.3,2.5-1,3.8c-0.3,0.8-0.3,1.8-0.3,2.5c0,1.8,1.3,3.8-0.8,5.3c0,0,0,0.5,0.3,0.5
		c3.3,1.3,0.8,3.3,0.3,4.8c-0.5,1.5-0.8,2.8,0,4.3c0.8,1.5,0.5,3.5,0.3,5.3c-0.3,0.8-0.5,1.5,0,2.3c0.5,1,0,2-1,2
		c-3.5,0.8-2,4.3-2.5,6.3c9.3,1.3,17.8-3.5,26.8-5.5c3.8-1,7.5-2.5,10.3-4.8c0.3-0.3,1.3-0.3,1.3,0c0.3,0.5,0.8,1.3,0.8,1.5
		c-0.5,1.3-0.8,2.3-1.8,3c-3,2.5-6,5.3-10,7c-9.5,3.5-18,9.8-27,11.3l-0.8,0.8l1.3,0.5c1,1-0.8,2,0.3,1.8c-1.8,4.3-1.8,9-3.3,13.3
		c-0.8,1.8-1.5,3.5,0,5.5c0.3,0.3,0,1.3-0.3,1.8c-0.5,1.3-0.8,2.5-0.8,3.8c0.3,0.8,1,1.8,0.8,2.5c-0.3,1.5-0.8,2.8-1,4.3
		c-0.3,0.5-1,1,0,1.5c0.5,0.3,1,0,1.8,0c0-0.3,0-0.3,0.3-0.3l3.3-2.5c0.3,2.5-1,4.5-0.8,6.8v5.8c0.3,3.5,0,3.5-3.8,5v3.8
		c-1.8,0.5-1,2-1.3,3c0,0.3,0.5,0.3,0.8,0.5c0.3-0.8,0.5-1.5,0.5-2.3v-1.3l3.8-2.5c0.3,6.3,0.5,12.5,0.3,18.5c0,1.3-0.8,2.3-1,3.5
		H356c-0.8,0.5-1.3,0.3-0.5,1.3c0.3-0.3,0.5-1,0.5-1.3c1.5,0.5,1,1.8,1.5,2.8c-0.5,0-1.5-0.3-0.5,0.8c0.3,0.3,0.5-0.3,0.5-0.8v-0.3
		c3.3,0,6,0.8,9.3-0.3c4.8-1.8,9.8-3.3,15-4.3c5-1.3,10-2.3,15.3-2.8c2.3-0.5,4.8-1,7-1.8c1.5-0.8,2.8-0.5,4.3,0.3
		c1.3,0.3,2.8,0,3,1.8c0.5,2.3,0.3,4.5-2,5.8c-3.5,2-6.8,4.5-10.5,5.8c-1.5,0.5-2.8,1.3-4.3,2c-3.3,1.8-6.5,3-9.8,4.8
		c-3,2-6.5,2.8-9.5,4.3c-5.3,3-11,2.3-16.8,4.3c-4,1.5-8,1.8-11.8,4C346.3,381.8,345.5,381.5,345,381.3z M354.3,328.2
		c0.3-1.5,2-3,1.3-4.3c-1.3-1.8,0-3.3,0-4.8c0-1-0.3-1.8-1-1.8c-0.3,1.3-0.3,2-1.5,2.5c-0.5,0.3-1,0.8-1,1.5c-0.5,2,1.8,3.8,0,5.8
		c0,0,0,0.3,0.3,0.5c0.3,0.3,0.5,0.5,1,0.8C353.5,329,354,328.7,354.3,328.2z M352.5,331l-0.3,0.3c0.5,0.3,0.8,0.5,1,0.5
		C353,331.2,353.3,330.7,352.5,331z M354.5,351.8c-0.5,0-0.8,0-0.3,0.8C354.5,352.3,354.5,352,354.5,351.8z M355.8,351
		c0.3-0.8,0-0.8-0.5-0.5c-0.3,0.3-0.3,0.5-0.3,0.8C355.3,351.3,355.5,351.3,355.8,351z"/>
	<path class="st0" d="M423.3,394.8c-0.8-0.8-0.8-1.5,0.8-2.5c0.8-0.5,1-1.3,0.8-2c-0.5-1-0.8-1.5,0.5-2c1.5-0.5,1.5-2.3,0.3-3.3
		c-0.8-0.5-1.5-0.8-1.8-1.8c-0.3-1,0-1.8,0.5-2.5l1.3-2c1-1.5,1.3-3,0.5-4.5c-1-2.3-0.3-4.3,0-6.5c0-2.5,0.3-4.8,0.3-7.5
		c0.3-2.8,0-5.5,0.3-8.3c0-1.8,0.3-3.3,0.5-5c1-2.3,1.3-4.8-0.3-7.3c-0.5-1.3-0.3-2.3,0-3.5c0.5-0.8,1-1.5,1.3-2.3
		c0.3,0.3,0.5,0.3,0.5,0.5v17.8c0,1-0.5,2-0.8,2.8c0,0.3,0.3,0.8,0.5,1l0.5-0.5c1.8-1.5,2.5-3.5,2.5-6c0-4.5,0.3-9,0.3-13.3
		c0-3,0-5.8,0.3-9.3c1.5,2.5,0.3,4.3,1.3,6c0.3,0.3,0.8,0,0.8-0.5c0-7.3,0.3-14.3,0.3-21.5c0.3-4.8-0.3-9.3,1-14
		c0.5-2.5,0-5.5,0-8.3v-9.5c-0.3,0-0.5,0-0.5,0.3c-0.3,1.5-0.3,3.3-0.5,5c-0.3,2.8,0,5.3-1,8.3c-0.8,2-0.3,4.5-0.3,6.8
		c0,3.3-1,5.8-2.3,8.5c0,0.5-0.5,0.8-1,0.8c0,0-0.5-0.5-0.5-0.8c-0.3-3.5-0.3-7.3-0.3-11v-1.8c1.8-8.3,1.5-16.5,1.5-24.8
		c0-1.3,0-2.5,0.5-3.8c0.5-1,0.3-2,0.5-3.3c0.5-1.5-0.8-3.5-0.5-5.3c0.3-2,0.5-3.8,0.5-5.8c0.3-0.5,0-1.3-0.8-1.3c0,0-0.3,0.8-0.5,1
		l-0.8,0.5c-0.3-0.5-0.5-0.8-0.5-1.3c0-3.3-0.3-6.3,1-9.5c1-2.5,0.3-7.8,1.3-10.5c-1.8-1.8-0.3-4-0.3-5.8c0-2-0.8-3.8-1.3-5.5
		c0-0.5-0.3-1,0-1.3c2.5-1.5,0.3-3.8,0.5-5.8c0.3-1.5,0.5-2.8,1.5-3.8c1.3-1.8,0.8-2.8-1-3.5c-0.5,0-1,0-1.3-0.3
		c-1-0.5-1.5-0.5-2.3,0.3c-1,1.8-2.8,2.3-4.8,3c-5,1.5-8,3.3-11.3,5c-0.8,0.5-1.8,1-3,1.3c-5.8,1.5-11,4.8-16.5,7.5
		c-0.5,0-1,0-1.3,0.5c-2.5,3-6,2.5-9.3,1c-1-0.5-2.3-0.8-3.5-1.3c-1.8-1-3-2.5-3.3-4.5c-0.3-1-0.3-2-0.3-3c-0.3-2,0.8-3.5,2.8-4
		c5.8-1.5,11.8-3.3,17.3-6c0.8-0.5,1.8,0.5,2.3,0.3c1-0.3,2.3-0.8,3.3-1.5l3-2.5c0.3-0.3,0.5-0.3,0.5-0.3c2.8,0.8,4.8-2,7.8-1.8
		c1.5,0.3,3-0.5,4-1.3c6.5-3,13-5,19.5-7.3c0.8-0.3,1-0.8,1.3-1.5c0.8-2.8,1-3,3.5-2c1.5,0.8,3,0.8,4.8,0c1.3-0.8,2.8-1,4-1.5
		c1-0.5,2.3,1.5,3.5,0.3c4.8-0.8,9.3-2.8,13.8-4.3c7.8-2.5,15.8-5.3,23.5-7.5c1.3-0.5,2.5-1.3,3-2.8c4.3-1.5,8.5-1.5,13-2.5
		c2.5-0.5,5.3-1.3,7.8-2c1.3-0.5,2.3-1,3.5-1.3c3.3-1,6.3-1,9,0.8c1.5,1,3,1.8,4.3,2.8c-0.3,1.3-1.8,0.8-2.5,1.3
		c-2.3,1.3-3.8,4.3-7,3.8c-2.5,1-5.3,1.8-7.5,3c-2.5,1-5,2.3-7.5,3.3c-4,1.5-7.8,3.3-12,4c-3.5,0.8-6.8,3-10.5,4.5
		c-1.5,0.8-3.5,1.3-5.3,2c-1,0.5-1.8,0.5-2.8,0c-0.5-0.3-1.5,0-1.8,0.5c-0.8,1-1.8,1.5-3.3,0.8c-0.3-0.3-0.8,0-1,0.3
		c-3.8,3.3-8.3,4-12.3,5.8c-3.5,1.3-3.5,1.3-3.8,4.8c0,3.3,0.5,6.3-0.8,9.5c1.3,3,0.5,6,0.5,9.3c0.3,1.3,0.3,2.8-0.3,4s-0.3,2.5,0,4
		c0.5,2,0.3,4.3,0.3,8.8c0,2.3,0.8,4.8-0.8,6.8c-0.3,3.3-0.5,6.5-0.3,9.5c0,1.3,0.5,2.5,1.3,3.5c1.3,2.3,1.8,4.3,0.5,6.8
		c-0.5,0.8-0.5,1.8,0.3,2.3c1.8,1.5,1.3,3,1,4.8c-0.3,1.5-0.5,2.8-1,3.8c-0.3,1-1,1.8-0.3,2.5c1,1,0,1.8-0.8,2.5
		c-1.3,1.3-1.3,2-0.3,2.8c1.3,0.5,1.8,1.3,1.8,2.5c0,2-0.5,4.5,0,6.8c1.3,3.8,0.3,7.3-1.3,10.8c-0.3,0.5,0,1.3,0,1.8
		c-0.5,0.3-1.3,0-0.5,1c0-0.5,0.3-0.8,0.5-1c0.3,0,0.8,0.3,1,0.5c0.3,1,0.3,2,0.8,3c1,2.3,0.8,3.8-1,5.3c-1,0.8-0.8,1.8-1,2.8
		c-1.3,0-2.3,0.3-2.3,2v2.3c0,0.5,0.5,0.5,1,0.3l1.5-0.8v2.5l1.5-0.8c0.5-0.3,1,0,1,0.5c0,0.5-0.3,1.3-0.5,1.8c-1,2.8-2,5-2.3,7.8
		c0,0.5-0.5,0.8-1,1c0,1-0.3,1.8-0.3,2.5c0.3,1,0.8,1.3,1.8,0.8c0.5-0.3,0.8-0.3,0.8,0.3c-0.8,2.3-1,4.8-2.3,6.8
		c1.5,0.5,1.3,0.5,1.8,1.8c0.8,2.8-1.3,4.8-1.8,7.3c2.3,0.3,2.3,0.3,2.5,2.3c-0.5,0.3-1,0.5-0.8,1c0,0.3,0.5,0.5,0.8,0.8
		c-0.8,1.5-1.3,3.3-2,5c-0.3,0.3-0.5,0.5,0,1c1.8,1.5,0.5,3.5,0.5,5.3c-0.5,0.3-1,0.5-0.8,1.3c0.3,1.3,0.8,2.5-0.8,3.8
		c-1.3,1-0.8,2.5-0.8,4l1.3-0.8c0.5-0.5,1-0.3,1,0.3c0.5,1.3,0.5,3-0.5,3.8c-0.5,0.5-1,1-1.8,1.3c0,1,1.5,1.8,0.8,3.5
		c-0.5,1.3-0.3,1.5,1.5,1.8c0.3,1,0.5,2.5-0.5,3.5c-1.3,1.3-1.8,3-2,4.8c-0.3,1-1.5,1.8-2.8,2h-0.8c-4.8,0.8-10.8,0.3-14,1.3
		C428.1,399.5,425.3,397.8,423.3,394.8z M419.8,377.5c0-0.5,0.5-1.3,0.8-1.8c0.3,0,1,0,1.3,0.3c0.5,0.5,0.5,1.3,0.3,1.8
		c-0.5,1-1,1.8-1.8,2.8C420.1,379.5,419.8,378.5,419.8,377.5z M429.9,368.5c0.3-0.5,0.3-1,0.3-1.5v-1.8c0-0.3-0.3-0.5-0.5-0.8
		c0,0.3-0.5,0.5-0.5,0.8v3.3l0.5,0.5C429.6,368.8,429.9,368.5,429.9,368.5z M431.1,248.7c0.5-0.8,0.5-2.3,0-2.8l-0.8,0.5
		c-0.3,0.5,0,1.3,0,1.8c0,0.3,0.3,0.3,0.3,0.5H431.1z M436.4,277.7c0.5-2.3-0.3-4.3,3.5-6.3c0.3,0-2.5-1-3-1.5
		c-0.3-0.5-1.5,0.5-1.5,1.5c0,2.3-0.5,4.5,0,7.3C435.9,278.7,436.1,278.2,436.4,277.7z M436.4,267.9c-0.3,0-0.3-0.3-0.5-0.5
		c0,0.3-0.3,0.3-0.3,0.5l0.3,0.3C436.1,268.2,436.1,268.2,436.4,267.9z M447.4,362.3V362c0.8-1.5,0.8-1.8-1-3.5
		c-0.5,2-0.5,3.5,0,5.8C446.6,363.5,447.1,362.8,447.4,362.3z M447.9,268.4c0-0.3-0.3-0.3-0.3-0.5c-0.3,0-0.3,0.3-0.3,0.3
		c0,0.3,0,0.5,0.3,0.5L447.9,268.4z M448.6,381.3c0.3,0,0.5,0.3,0.8,0.3C449.4,381,449.4,380.8,448.6,381.3z M449.1,377.5
		c-0.3,0-0.8,0-0.3,0.8C449.1,378,449.1,377.8,449.1,377.5z M450.4,354.5c0.3-0.5,0.3-0.8,0.3-1.3c-0.8,0-1.3,0.5-1,1.3
		c0.3,0.3,0.3,0.5,0.5,0.5C450.1,355,450.4,354.8,450.4,354.5z M450.6,330.7l-0.5-0.5c0,0.3-0.3,0.3-0.3,0.5c-0.3,1.3-0.8,2.3,0.8,3
		V330.7z M450.4,360c0.3-0.5,0-0.8,0-1.3h-0.5c0,0.5-0.3,0.8,0,1.3C449.9,360.5,450.1,360.5,450.4,360z M451.9,325.5
		c0.3-0.5,0-1,0-1.8l-1.5,0.8c-0.8,0.8-0.8,3-0.3,2.8C450.9,326.7,451.6,326.2,451.9,325.5z M450.6,344.2c-0.5,0.3-0.8,0.3-0.3,0.8
		C450.4,344.7,450.6,344.7,450.6,344.2z M451.6,293.4c0.3-0.8,0.3-1.5,0.3-2.3c0-0.3-0.3-0.3-0.5-0.5c-0.3,0.5-0.5,1-0.5,1.5
		c0,0.8,0.3,1.3,0.3,1.8C451.4,293.7,451.6,293.7,451.6,293.4z M452.1,250.9c0.3-0.3,0.5-0.5,0.8-1c0,0.5,0.3,0.8,0.5,1
		c-0.3,0.5-0.5,0.8-0.8,1C452.6,251.7,452.1,251.2,452.1,250.9z M452.1,317.5c0.5,0,0.8-0.3,1,0c0.5,0,0.8,0.3,1,0.5
		c-0.8,1-0.3,2.5-2,3V317.5z M452.6,386c0.5,0.8,0,0.8-0.5,1C452.4,386.8,452.4,386.5,452.6,386z M452.4,255.2
		c0.3-0.5,0.5-0.5,0.8,0c-0.3,0.3-0.3,0.5-0.5,0.5C452.6,255.7,452.4,255.4,452.4,255.2z M452.4,368.8c0.3,0,0.5,0,0.8,0.3
		C452.4,369.5,452.4,369,452.4,368.8z M453.4,355.5c0.3,0.3,0.5,0.5,1,0.8c-0.5,0-0.8,0.3-1,0.5V355.5z M490.7,171.1
		c-0.3-0.3,0-0.5,0.3-0.3l0.5,0.8C491.2,171.6,490.9,171.3,490.7,171.1z"/>
	<path class="st0" d="M505.9,394.8c-0.8-0.8-0.8-1.5,0.8-2.5c0.8-0.5,1-1.3,0.8-2c-0.5-1-0.8-1.5,0.5-2c1.5-0.5,1.5-2.3,0.3-3.3
		c-0.8-0.5-1.5-0.8-1.8-1.8c-0.3-1,0-1.8,0.5-2.5l1.3-2c1-1.5,1.3-3,0.5-4.5c-1-2.3-0.3-4.3,0-6.5c0-2.5,0.3-4.8,0.3-7.5
		c0.3-2.8,0-5.5,0.3-8.3c0-1.8,0.3-3.3,0.5-5c1-2.3,1.3-4.8-0.3-7.3c-0.5-1.3-0.3-2.3,0-3.5c0.5-0.8,1-1.5,1.3-2.3
		c0.3,0.3,0.5,0.3,0.5,0.5v17.8c0,1-0.5,2-0.8,2.8c0,0.3,0.3,0.8,0.5,1l0.5-0.5c1.8-1.5,2.5-3.5,2.5-6c0-4.5,0.3-9,0.3-13.3
		c0-3,0-5.8,0.3-9.3c1.5,2.5,0.3,4.3,1.3,6c0.3,0.3,0.8,0,0.8-0.5c0-7.3,0.3-14.3,0.3-21.5c0.3-4.8-0.3-9.3,1-14
		c0.5-2.5,0-5.5,0-8.3v-9.5c-0.3,0-0.5,0-0.5,0.3c-0.3,1.5-0.3,3.3-0.5,5c-0.3,2.8,0,5.3-1,8.3c-0.8,2-0.3,4.5-0.3,6.8
		c0,3.3-1,5.8-2.3,8.5c0,0.5-0.5,0.8-1,0.8c0,0-0.5-0.5-0.5-0.8c-0.3-3.5-0.3-7.3-0.3-11v-1.8c1.8-8.3,1.5-16.5,1.5-24.8
		c0-1.3,0-2.5,0.5-3.8c0.5-1,0.3-2,0.5-3.3c0.5-1.5-0.8-3.5-0.5-5.3c0.3-2,0.5-3.8,0.5-5.8c0.3-0.5,0-1.3-0.8-1.3c0,0-0.3,0.8-0.5,1
		l-0.8,0.5c-0.3-0.5-0.5-0.8-0.5-1.3c0-3.3-0.3-6.3,1-9.5c1-2.5,0.3-7.8,1.3-10.5c-1.8-1.8-0.3-4-0.3-5.8c0-2-0.8-3.8-1.3-5.5
		c0-0.5-0.3-1,0-1.3c2.5-1.5,0.3-3.8,0.5-5.8c0.3-1.5,0.5-2.8,1.5-3.8c1.3-1.8,0.8-2.8-1-3.5c-0.5,0-1,0-1.3-0.3
		c-1-0.5-1.5-0.5-2.3,0.3c-1,1.8-2.8,2.3-4.8,3c-5,1.5-8,3.3-11.3,5c-0.8,0.5-1.8,1-3,1.3c-5.8,1.5-11,4.8-16.5,7.5
		c-0.5,0-1,0-1.3,0.5c-2.5,3-6,2.5-9.3,1c-1-0.5-2.3-0.8-3.5-1.3c-1.8-1-3-2.5-3.3-4.5c-0.3-1-0.3-2-0.3-3c-0.3-2,0.8-3.5,2.8-4
		c5.8-1.5,11.8-3.3,17.3-6c0.8-0.5,1.8,0.5,2.3,0.3c1-0.3,2.3-0.8,3.3-1.5l3-2.5c0.3-0.3,0.5-0.3,0.5-0.3c2.8,0.8,4.8-2,7.8-1.8
		c1.5,0.3,3-0.5,4-1.3c6.5-3,13-5,19.5-7.3c0.8-0.3,1-0.8,1.3-1.5c0.8-2.8,1-3,3.5-2c1.5,0.8,3,0.8,4.8,0c1.3-0.8,2.8-1,4-1.5
		c1-0.5,2.3,1.5,3.5,0.3c4.8-0.8,9.3-2.8,13.8-4.3c7.8-2.5,15.8-5.3,23.5-7.5c1.3-0.5,2.5-1.3,3-2.8c4.3-1.5,8.5-1.5,13-2.5
		c2.5-0.5,5.3-1.3,7.8-2c1.3-0.5,2.3-1,3.5-1.3c3.3-1,6.3-1,9,0.8c1.5,1,3,1.8,4.3,2.8c-0.3,1.3-1.8,0.8-2.5,1.3
		c-2.3,1.3-3.8,4.3-7,3.8c-2.5,1-5.3,1.8-7.5,3c-2.5,1-5,2.3-7.5,3.3c-4,1.5-7.8,3.3-12,4c-3.5,0.8-6.8,3-10.5,4.5
		c-1.5,0.8-3.5,1.3-5.3,2c-1,0.5-1.8,0.5-2.8,0c-0.5-0.3-1.5,0-1.8,0.5c-0.8,1-1.8,1.5-3.3,0.8c-0.3-0.3-0.8,0-1,0.3
		c-3.8,3.3-8.3,4-12.3,5.8c-3.5,1.3-3.5,1.3-3.8,4.8c0,3.3,0.5,6.3-0.8,9.5c1.3,3,0.5,6,0.5,9.3c0.3,1.3,0.3,2.8-0.3,4
		c-0.5,1.3-0.3,2.5,0,4c0.5,2,0.3,4.3,0.3,8.8c0,2.3,0.8,4.8-0.8,6.8c-0.3,3.3-0.5,6.5-0.3,9.5c0,1.3,0.5,2.5,1.3,3.5
		c1.3,2.3,1.8,4.3,0.5,6.8c-0.5,0.8-0.5,1.8,0.3,2.3c1.8,1.5,1.3,3,1,4.8c-0.3,1.5-0.5,2.8-1,3.8c-0.3,1-1,1.8-0.3,2.5
		c1,1,0,1.8-0.8,2.5c-1.3,1.3-1.3,2-0.3,2.8c1.3,0.5,1.8,1.3,1.8,2.5c0,2-0.5,4.5,0,6.8c1.3,3.8,0.3,7.3-1.3,10.8
		c-0.3,0.5,0,1.3,0,1.8c-0.5,0.3-1.3,0-0.5,1c0-0.5,0.3-0.8,0.5-1c0.3,0,0.8,0.3,1,0.5c0.3,1,0.3,2,0.8,3c1,2.3,0.8,3.8-1,5.3
		c-1,0.8-0.8,1.8-1,2.8c-1.3,0-2.3,0.3-2.3,2v2.3c0,0.5,0.5,0.5,1,0.3l1.5-0.8v2.5l1.5-0.8c0.5-0.3,1,0,1,0.5c0,0.5-0.3,1.3-0.5,1.8
		c-1,2.8-2,5-2.3,7.8c0,0.5-0.5,0.8-1,1c0,1-0.3,1.8-0.3,2.5c0.3,1,0.8,1.3,1.8,0.8c0.5-0.3,0.8-0.3,0.8,0.3c-0.8,2.3-1,4.8-2.3,6.8
		c1.5,0.5,1.3,0.5,1.8,1.8c0.8,2.8-1.3,4.8-1.8,7.3c2.3,0.3,2.3,0.3,2.5,2.3c-0.5,0.3-1,0.5-0.8,1c0,0.3,0.5,0.5,0.8,0.8
		c-0.8,1.5-1.3,3.3-2,5c-0.3,0.3-0.5,0.5,0,1c1.8,1.5,0.5,3.5,0.5,5.3c-0.5,0.3-1,0.5-0.8,1.3c0.3,1.3,0.8,2.5-0.8,3.8
		c-1.3,1-0.8,2.5-0.8,4l1.3-0.8c0.5-0.5,1-0.3,1,0.3c0.5,1.3,0.5,3-0.5,3.8c-0.5,0.5-1,1-1.8,1.3c0,1,1.5,1.8,0.8,3.5
		c-0.5,1.3-0.3,1.5,1.5,1.8c0.3,1,0.5,2.5-0.5,3.5c-1.3,1.3-1.8,3-2,4.8c-0.3,1-1.5,1.8-2.8,2h-0.8c-4.8,0.8-10.8,0.3-14,1.3
		C510.7,399.5,507.9,397.8,505.9,394.8z M502.4,377.5c0-0.5,0.5-1.3,0.8-1.8c0.3,0,1,0,1.3,0.3c0.5,0.5,0.5,1.3,0.3,1.8
		c-0.5,1-1,1.8-1.8,2.8C502.7,379.5,502.4,378.5,502.4,377.5z M512.4,368.5c0.3-0.5,0.3-1,0.3-1.5v-1.8c0-0.3-0.3-0.5-0.5-0.8
		c0,0.3-0.5,0.5-0.5,0.8v3.3l0.5,0.5C512.2,368.8,512.4,368.5,512.4,368.5z M513.7,248.7c0.5-0.8,0.5-2.3,0-2.8l-0.8,0.5
		c-0.3,0.5,0,1.3,0,1.8c0,0.3,0.3,0.3,0.3,0.5H513.7z M518.9,277.7c0.5-2.3-0.3-4.3,3.5-6.3c0.3,0-2.5-1-3-1.5
		c-0.3-0.5-1.5,0.5-1.5,1.5c0,2.3-0.5,4.5,0,7.3C518.4,278.7,518.7,278.2,518.9,277.7z M518.9,267.9c-0.3,0-0.3-0.3-0.5-0.5
		c0,0.3-0.3,0.3-0.3,0.5l0.3,0.3C518.7,268.2,518.7,268.2,518.9,267.9z M529.9,362.3V362c0.8-1.5,0.8-1.8-1-3.5
		c-0.5,2-0.5,3.5,0,5.8C529.2,363.5,529.7,362.8,529.9,362.3z M530.4,268.4c0-0.3-0.3-0.3-0.3-0.5c-0.3,0-0.3,0.3-0.3,0.3
		c0,0.3,0,0.5,0.3,0.5L530.4,268.4z M531.2,381.3c0.3,0,0.5,0.3,0.8,0.3C531.9,381,531.9,380.8,531.2,381.3z M531.7,377.5
		c-0.3,0-0.8,0-0.3,0.8C531.7,378,531.7,377.8,531.7,377.5z M532.9,354.5c0.3-0.5,0.3-0.8,0.3-1.3c-0.8,0-1.3,0.5-1,1.3
		c0.3,0.3,0.3,0.5,0.5,0.5C532.7,355,532.9,354.8,532.9,354.5z M533.2,330.7l-0.5-0.5c0,0.3-0.3,0.3-0.3,0.5c-0.3,1.3-0.8,2.3,0.8,3
		V330.7z M532.9,360c0.3-0.5,0-0.8,0-1.3h-0.5c0,0.5-0.3,0.8,0,1.3C532.4,360.5,532.7,360.5,532.9,360z M534.5,325.5
		c0.3-0.5,0-1,0-1.8l-1.5,0.8c-0.8,0.8-0.8,3-0.3,2.8C533.4,326.7,534.2,326.2,534.5,325.5z M533.2,344.2c-0.5,0.3-0.8,0.3-0.3,0.8
		C532.9,344.7,533.2,344.7,533.2,344.2z M534.2,293.4c0.3-0.8,0.3-1.5,0.3-2.3c0-0.3-0.3-0.3-0.5-0.5c-0.3,0.5-0.5,1-0.5,1.5
		c0,0.8,0.3,1.3,0.3,1.8C533.9,293.7,534.2,293.7,534.2,293.4z M534.7,250.9c0.3-0.3,0.5-0.5,0.8-1c0,0.5,0.3,0.8,0.5,1
		c-0.3,0.5-0.5,0.8-0.8,1C535.2,251.7,534.7,251.2,534.7,250.9z M534.7,317.5c0.5,0,0.8-0.3,1,0c0.5,0,0.8,0.3,1,0.5
		c-0.8,1-0.3,2.5-2,3V317.5z M535.2,386c0.5,0.8,0,0.8-0.5,1C535,386.8,535,386.5,535.2,386z M535,255.2c0.3-0.5,0.5-0.5,0.8,0
		c-0.3,0.3-0.3,0.5-0.5,0.5C535.2,255.7,535,255.4,535,255.2z M535,368.8c0.3,0,0.5,0,0.8,0.3C535,369.5,535,369,535,368.8z
		 M536,355.5c0.3,0.3,0.5,0.5,1,0.8c-0.5,0-0.8,0.3-1,0.5V355.5z M573.2,171.1c-0.3-0.3,0-0.5,0.3-0.3l0.5,0.8
		C573.7,171.6,573.5,171.3,573.2,171.1z"/>
	<path class="st0" d="M589.8,381.3c-2.5-0.8-5-1.5-7.5-1.8c-1.8-0.3-3.3-1.5-4.5-2.5c-1.8-1-3-2.5-4.5-3.8c-1-0.8-2-1.3-1.5-2.5
		c0.3-0.5,1.3-1.3,1.8-2v0.3c0.5-0.5,1-1,1.3-1.5c0.5-4.8,1.3-9.5,1.3-14.3c0-4.8-0.5-9.5,0.8-14.3c0.5-2.3,0-4.8,0.3-7.3
		c0-3-0.3-6,0.8-9c0.8-2.8,0.3-6,0-9c0.3-0.3,1.3,0,0.5-1c0,0.3-0.3,0.8-0.5,1l-1.8,0.8c-0.3,0-0.5-0.3-0.5-0.8
		c-0.3-1,0.5-1.8,1-2.3c2.3-2,4-4,2.8-7.3c1.8-4,0.3-11.8,1.8-15.8c0.5-0.8-0.8-1.5-1.5-1.5c-0.8,0-1.5,0-2,0.3l-11.3,4.3
		c-1,0.5-2,0.5-3-0.5c-1-0.8-2-1.5-3-2.5c-0.8-0.8-1-1.8-1-3c0-1,0.5-1.8,0.3-3c-0.3-1.5,0.8-2.8,2-2.8c7,0.3,13-6.8,19.5-6
		c0.5,0,1.3-0.8,1.3-1.3c0.5-1.8,1.3-3.5,1.3-5.5c0-4.5-0.3-5.8,1-10c0.5-1.3-1.3-2.5-0.5-3.8c0.8-1,0.5-2.5,0.8-3.8
		c0.5-2.3-0.8-4.8,0.5-7.3c1.3-2-0.3-4.5,1.5-7c0.3-0.3,0.3-0.8,0.3-1.3c-0.3-4.8,1-9.5,1.3-14.3c0-2.8,1.3-5.3-0.3-8
		c-0.5-0.8,0.3-4.3,0.5-5.3c0-0.3,0-1-0.3-1c-0.5-0.3-1.3-0.5-1.8-0.3l-3.5,1.8c-2.3,1-3.8,3.8-5.5,2c-2.5-2.3-5.5,2-7.3,3.8
		c-1.3-1-3-0.8-4.8-1.8l-5.5-4.3c1-2.3,3-7,5-7.8l8-3.3c1.5-1.3,3.8,1,4.8-0.5c2.3-3.5,4.8-1.8,7-3c1.5-0.8,2.8,0.3,2.8-1.5
		c0-2.3,1.8-3,3.5-3.3c1.5-0.3,3-0.3,4.5,0.8c1.5,1,3.3,0,5-0.3l19-3.5c2.5-0.5,5.3,0,7.8-1.5c9.8-2.3,14.3-4.5,18.8-6
		c0.5-0.3,1.3,2,1.8,2c0.3,0,0.5,0.3,0.8,0.3c-0.8,1.5-1.8,4-3.3,4.8c-5.5,2.5-16,7-21.8,9.3c-2,0.8-4,0.8-6,1.5
		c-3.5,1.8-7,3.8-11,2.3c-0.8,0-1.5,1.3-2.5,2c-0.8,0.5-0.5,1.5-0.3,2.3c0.8,3.5,2,5.3,2.3,8.8c0.5,4.3,0.5,8.8,0.3,13
		c0,1.8-0.8,3.3-0.8,4.8v4.8c0,1.3-0.3,2.5-1,3.8c-0.3,0.8-0.3,1.8-0.3,2.5c0,1.8,1.3,3.8-0.8,5.3c0,0,0,0.5,0.3,0.5
		c3.3,1.3,0.8,3.3,0.3,4.8c-0.5,1.5-0.8,2.8,0,4.3c0.8,1.5,0.5,3.5,0.3,5.3c-0.3,0.8-0.5,1.5,0,2.3c0.5,1,0,2-1,2
		c-3.5,0.8-2,4.3-2.5,6.3c9.3,1.3,17.8-3.5,26.8-5.5c3.8-1,7.5-2.5,10.3-4.8c0.3-0.3,1.3-0.3,1.3,0c0.3,0.5,0.8,1.3,0.8,1.5
		c-0.5,1.3-0.8,2.3-1.8,3c-3,2.5-6,5.3-10,7c-9.5,3.5-18,9.8-27,11.3l-0.8,0.8l1.3,0.5c1,1-0.8,2,0.3,1.8c-1.8,4.3-1.8,9-3.3,13.3
		c-0.8,1.8-1.5,3.5,0,5.5c0.3,0.3,0,1.3-0.3,1.8c-0.5,1.3-0.8,2.5-0.8,3.8c0.3,0.8,1,1.8,0.8,2.5c-0.3,1.5-0.8,2.8-1,4.3
		c-0.3,0.5-1,1,0,1.5c0.5,0.3,1,0,1.8,0c0-0.3,0-0.3,0.3-0.3l3.3-2.5c0.3,2.5-1,4.5-0.8,6.8v5.8c0.3,3.5,0,3.5-3.8,5v3.8
		c-1.8,0.5-1,2-1.3,3c0,0.3,0.5,0.3,0.8,0.5c0.3-0.8,0.5-1.5,0.5-2.3v-1.3l3.8-2.5c0.3,6.3,0.5,12.5,0.3,18.5c0,1.3-0.8,2.3-1,3.5
		h-0.3c-0.8,0.5-1.3,0.3-0.5,1.3c0.3-0.3,0.5-1,0.5-1.3c1.5,0.5,1,1.8,1.5,2.8c-0.5,0-1.5-0.3-0.5,0.8c0.3,0.3,0.5-0.3,0.5-0.8v-0.3
		c3.3,0,6,0.8,9.3-0.3c4.8-1.8,9.8-3.3,15-4.3c5-1.3,10-2.3,15.3-2.8c2.3-0.5,4.8-1,7-1.8c1.5-0.8,2.8-0.5,4.3,0.3
		c1.3,0.3,2.8,0,3,1.8c0.5,2.3,0.3,4.5-2,5.8c-3.5,2-6.8,4.5-10.5,5.8c-1.5,0.5-2.8,1.3-4.3,2c-3.3,1.8-6.5,3-9.8,4.8
		c-3,2-6.5,2.8-9.5,4.3c-5.3,3-11,2.3-16.8,4.3c-4,1.5-8,1.8-11.8,4C591,381.8,590.3,381.5,589.8,381.3z M599,328.2
		c0.3-1.5,2-3,1.3-4.3c-1.3-1.8,0-3.3,0-4.8c0-1-0.3-1.8-1-1.8c-0.3,1.3-0.3,2-1.5,2.5c-0.5,0.3-1,0.8-1,1.5c-0.5,2,1.8,3.8,0,5.8
		c0,0,0,0.3,0.3,0.5c0.3,0.3,0.5,0.5,1,0.8C598.3,329,598.8,328.7,599,328.2z M597.3,331l-0.3,0.3c0.5,0.3,0.8,0.5,1,0.5
		C597.8,331.2,598,330.7,597.3,331z M599.3,351.8c-0.5,0-0.8,0-0.3,0.8C599.3,352.3,599.3,352,599.3,351.8z M600.5,351
		c0.3-0.8,0-0.8-0.5-0.5c-0.3,0.3-0.3,0.5-0.3,0.8C600,351.3,600.3,351.3,600.5,351z"/>
	<path class="st0" d="M747.7,404.3c0.5-0.3,1-0.3,1-1c-0.3-0.3-0.8-0.5-1-0.5c-0.5-0.8-1-1.8-1.5-2.8c-0.3-0.5-0.8-0.8-1.3-0.8
		c-1.3,0.3-1,1.3-1.3,2v0.5c-2.8-1.3-5.3-2.3-6.8-5c-2.8-1-4.8-3.3-7-5.3c-4.5-4-8.3-8-12.5-12.3c-5-5-15-19-19.3-24.3
		c-5.3-6.5-10.3-13.5-15.5-20.3h-0.5c0,1.5-1.8,3.3-0.3,4.5c-0.3,2.3-1,4.3,0.5,6c-2,5.3,0.3,10.5-1.8,15.8
		c-0.5,1.3,0.5,3.3-0.3,4.5c-1,1.5,0.8,2.5,0.5,3.5c-1,1.5,0.5,3.8-1.3,5c-1.5,0.8,0.8,2.3-0.5,3.3c-0.8,0.8-1.3,2-1.3,3
		c-0.3,0.3-0.3,0.8,0,1.3c1.5,2,1.3,4,0.5,6c-0.3,0.8-0.5,1.3-0.5,2c-0.3,1.3,0.8,2.8-0.3,3.8c-1.5,1.8-3.5,0.5-5,0.8
		c-2.5,0.5-4.3-0.5-5.8-2.3c-0.5-3.3-7.5-2.5-8.5-4.5c-0.8-1-0.8-1.8-0.3-2.5c1-1.8,0.3-3.5-0.3-5c-1.8-4.3,2-9.8,0.8-13.8
		c0-0.3-0.3-0.8,0-1.3c1-6.5,0-12.5,0-19c-0.3-3.3-0.8-6.8,0.8-10.5c0.3-0.8-0.5-1-1-1.3c-0.5-0.8-1-1.5-1.3-2.3
		c-0.3-1-0.3-2.3,1.3-2.5c-0.3,0.8-0.3,1.8,0.5,2c0.3,0.3,0.8,0.3,1.3,0c0.5,0,0.5-0.5,0-1c-0.5-0.8-1-1.3-2-1c-0.5-2,0.3-3.8,1-5.8
		c1-3.3,0.8-6.8,3-9.5c1.3-1.8-0.3-3.3-0.8-4.5c0.8-0.5,1.3-1,1.3-1.8c-0.3-3.5-0.3-7-0.8-10.5c0-2.3,0-4.5,1.3-6.3
		c1-2.3,0.8-4.5,1-6.5c-0.3-2-1-3.8,0.3-5.8c0.5-0.8,0.3-1-1.3-1h-0.5c-0.5-2-0.8-4,0-5.8c0-0.8,1.3-1.3,1.3-2
		c0.3-0.8-0.5-1.5-0.5-2.5c0-0.8,0-1.8,0.3-2.5c1-1.5,1-3.3,0.8-5c-0.5-4.8,0.8-9.5,1.3-14c0.3-1.3,0.5-2.3,0.5-3.3
		c-0.5-5.5,0-10.8,1.3-15.3c0.3-1,1-2,0.8-3.3c-0.5-5.3,0.5-10.3,1.8-15.3c0-1.3-0.3-2.8-0.3-4c0-0.8-1-1.8-1.8-1.5
		c-2.3,1.3-4.5,2-6.5,3.3l-11.8,7.3c-0.5,0.8-1.3,1.5-2,2.3c-1,0.8-2,1.8-3,3c-1,1-2.8,2-3.8,3.3c-1,1.3-1,3.3-1.5,4.8
		c-0.5,1.8-2.8,2.3-3.8,0.8c-1-1.3-2.3-2.8-2-4.8c0-1.3,0-2.5-0.3-3.8c0-2-0.3-3.3-1.5-4.8c-1-0.8-0.5-1.5,0.3-2
		c1.3-1.3,2.5-2,3.8-2.8c5.3-3.8,10.3-7.8,16-11.3c3.8-2.3,8-3,11.8-5c0.5-0.3,1,0,1.3,0c1.5,0.8,2,0,2.8-1.3
		c0.5-0.5,0.5-1.5,1.3-1.8c3-0.8,5.8-1.8,8.8-2.8c1.8,1.3,3,0.3,4.5-1c0.5-0.5,1.5-1,2.3-1.3c5,0,9.8-1.5,14.5-2.5
		c0.8,0,1.3,0.3,2,0.3c3,0.5,6,0.8,9,1.5c4,1,8,2,11.5,4.8c0.8,0.8,1.8,1,3,1.3c0.8-0.3,1,0.3,1.3,0.8c0.5,1.3,1.3,2,2.3,2.5
		c2.8,0.5,3.5,3,4.5,5s1.3,3.8,3.3,5.3c1.8,0.8,2.8,3.3,2.8,5.5c0.3,5.8,0.5,11.8,0.5,17.8c0.3,2.5-0.3,5-1,7.5
		c-2.3,7.5-4.5,14.5-7.5,21.8c-0.8,1.8-3,2.8-3,4.8s-1.3,3.3-2.5,4.5c-1.5,1.5-0.5,3.8-2.5,5c-1.8,1-1.3,3.3-1.8,5
		c-1.3,3.5-2.8,6.5-4,9.8c-1.5,4.8-4.3,9-6,13.5c-0.3,0.5-0.5,0.8-0.8,1c-5,5.8-7.8,13-11,19.3c-1.3,3-1.3,3.3-0.3,6.3
		c2,4.8,4.8,9.3,8.5,13c1.3,1.5,2.5,3,3.3,4.8c1.5,2.3,8.3,13.3,10.3,15c1.8,1,2.3,3,3.5,4.5c3,3.3,6,5.8,8.8,8.8
		c2.8,3.3,6,6.5,8.8,9.8c0.8,0.8,1.3,1.5,2.3,2c1.5,0.5,1.5,2.8,3.3,3.5c1.3,0.5,0.5,2.5,1.3,3.5c1,0.5,1.8,1.3,2.8,1.3
		c1.5,0.5,0.5,1.5,0.5,1.8c0.5,1.3,1.3,2.3,1,3.5c-0.3,0-0.3,0-0.5-0.3c-1.5-1-2,0-2.5,1.3c0,0.3-0.5,0.5-0.8,0.8
		c0.8,2,2.5,2,4.3,2.3h-0.3v1.3c-1.3,0.5-2.3,1.5-2.5,2.8C749.4,405.3,748.4,405.6,747.7,404.3z M657.6,313.5c0-0.3,0.3-0.8,0.5-1
		c0.3,0,0.5,0.5,0.5,0.8c0,0.5-0.3,0.8-0.5,1.3C657.8,314.2,657.6,314,657.6,313.5z M658.3,309.2c0,0.5-0.3,0.8-0.5,1.3
		C657.3,309.7,657.8,309.5,658.3,309.2z M658.6,308c0-0.5,0.3-1.3,1-1.3c1,0,1.3,0.8,1.3,1.3c0,0.5,0.3,0.8,0.3,1.3h-2.5V308z
		 M660.1,303.2h0.3c0.3,0.5,0.3,1,0.3,1.3c-0.3,0.8-0.5,0.8-0.8,0C659.8,304,660.1,303.7,660.1,303.2z M661.3,279.4
		c0-1,0.3-1.5,1-1.8c0,0.5,0.3,1,0,1.8c0,0.3-0.5,0.3-0.8,0.5C661.6,279.7,661.3,279.7,661.3,279.4z M677.6,267.9
		c0-2.3-0.3-4.3-0.3-6.5c-1.8,1.8-3,3.3-1,5.8c0.3,0.5,0,1,0.3,1.8C677.1,268.9,677.6,268.4,677.6,267.9z M676.3,269.2
		c-0.3,0-0.5,0.3-0.8,0.3l0.5,0.5C676.1,269.7,676.1,269.4,676.3,269.2z M683.6,310c1.5-1.8,1.5-4,2-6c0-0.3-0.3-0.8-0.5-1
		c-0.8-1,0.3-1.3,0.8-1.3c0.5-0.3,1.3-1,1.3-1.8c-1.5-0.8-1.5-1.3-1-2c1-1.3,2.3-1.8,3.5-2c0.8-0.3,1.3-1,0.8-1.5
		c-1-1.5-0.8-2,1-2.8c1.5-0.8,2.3-2,3-3.5c1.5-2.8,3.3-5.5,5.3-8c0.8-0.8,1-1.5,1-2.8c-0.3-0.3-1-0.5-0.8-1c0-0.3,0.3-0.5,0.5-0.5
		c0.3,0.5,0.3,1,0.3,1.3c0.3-0.3,0.5-0.5,1-0.8c-0.5,0-0.8-0.3-1.3-0.5c0.3-0.5,0.5-1.3,1-1.5c2.3-1.3,3.8-3,3.8-5.5
		c0.3-1.5,1.3-2.3,2-3.5c0.8-1.8,2.3-3.8,3-5.8c1-3.3,3.3-6,4-9.3c0.3-1.5,1-2.3,2-2.8c0.8-0.5,1.3-1,1.8-1.5c0.5-0.5,1-1.5,0.8-1.8
		c-1-1.3-0.5-2.3-0.3-3.5c1.5-3.8,2.5-7.5,3.5-11.3c0.8-2,1.3-4.3,0.3-6.8c-0.5-1.5,0-2.8,0.3-4.5c0.8-6-0.3-11.8-4-17
		c-5.5-6.8-12.5-8-20.3-8c-4.8,1.8-9.5,1.8-14,3c-2.8,0.5-5.3,1.3-7.8,3.3c4.8,8.3,5.5,13,6,19.8c0.5,7,1,14.3-0.3,21.3
		c-0.5,3.8-0.5,7.5-2.3,10.8c-0.5,1,0,2.5,0,3.5c0,0.8,0.5,0.8,1.3,0.8c0,0.3-0.3,0.8,0,1.3c1.3,1.8,1.3,4.3-0.5,5c-2,1-0.5,2-1,3
		c-0.5,1.3,1,1.8,0.8,3c-0.5,1.3-1,2-1,3c-0.5,1.3-0.8,2.5-1.3,3.8c0,0.3,0.3,0.5,0.5,0.5c0,0,0.5,0,0.5-0.3c0.8-0.8,1.5-2,2.5-3.3
		c0,1,0.3,2,0,2.8l-0.8,3.8c-1.3,3.5-2.5,7-0.8,10.5c0.3,0.3,0,0.5,0,0.8c0,4.3,0.5,8.8,0.8,13c0,1.3-0.8,2.5,0,3.8
		c0.5,0.5,0.5,0.5,1,0.3c0.8-0.5,1.8-0.8,1.5,0.8c0,0.8-0.8,1.5-1,2.3c0,0.3,0.3,0.5,0.3,0.5H683.6z M678.6,259.9
		c-0.5,0-1,0.5-1,1.3C678.3,261.2,678.8,260.7,678.6,259.9z M679.6,258.9h-0.5c-0.3,0.3,0,0.5-0.3,0.8
		C679.3,259.7,679.8,259.4,679.6,258.9z M681.6,334c-0.8-0.3-0.8,0-0.3,0.3c0,0.3,0.3,0,0.5,0.3C681.8,334.2,681.8,334,681.6,334z
		 M681.8,254.7c0.5,0.8,0,0.8-0.5,1C681.3,255.4,681.6,255.2,681.8,254.7z M687.8,299.5c0.3-0.3-0.3-0.5-0.3-0.3
		c-0.3,0.3-0.3,0.5-0.3,0.8C687.6,299.7,687.8,299.7,687.8,299.5z M733.4,383.3c0,0,0.3-0.3,0.3-0.8c-0.3,0.5-0.5,0.5-0.8,0.8
		C732.6,383.5,732.9,383.8,733.4,383.3z M734.9,382.3c-0.3-0.3-0.5-0.5-0.8-1c-0.3,0.5,0,0.8-0.3,1v0.3
		C734.1,382.3,734.4,382.3,734.9,382.3z M735.1,382.5c0,0.5,0,0.8,1,0.3C735.9,382.8,735.6,382.5,735.1,382.5z M740.1,388
		c0-0.3-0.3-0.3-0.3-0.5c-1.3-0.8-2-1.5-3.5-1.3c0-0.5,0-1-0.8-1c0,0-0.3,0.5,0,0.5l0.8,0.5c0.3,1.3,1.5,2,2.8,2.5
		C739.4,388.8,739.9,388.3,740.1,388z M737.4,395.8c0,0.3-0.3,0.5-0.5,0.8C737.4,396.3,738.4,396.8,737.4,395.8z M738.4,382.8
		c-0.3-0.5-0.5-0.3-0.3,0.3c0.3,0.3,0.5,0.3,0.8,0.3C738.6,383,738.6,382.8,738.4,382.8z M739.1,383.8c0,0.8,0.5,0.8,1,0.8
		C740.1,384,739.6,383.8,739.1,383.8z M740.4,385c0,0.3,0,0.5,0.8,0.3C740.9,385,740.9,385,740.4,385z M741.6,390.5l-0.3-0.3
		c-0.3,0-0.3,0.3-0.5,0.3c0.3,0.3,0.3,0.5,0.5,0.5C741.4,391,741.6,390.8,741.6,390.5z M744.4,388.5c0-0.5-0.3-0.8-0.5-0.8
		c-0.3-0.3-0.8-0.3-1.3-0.3c0,0-0.3,0.3-0.3,0.5c0.3,0.3,0.5,0.5,1,0.5H744.4z M745.4,388.8c0-0.3-0.3,0-0.8,0
		c0,0.3,0.3,0.5,0.5,0.8C745.4,389.5,745.6,389.3,745.4,388.8z M745.4,392.8c-0.3,0-0.8,0.3-0.3,0.5c0.3,0.3,0.5,0.3,0.8,0.3
		C745.9,393.3,745.6,393,745.4,392.8z M745.9,395.3l-0.8,0.5c0.3,0,0.5,0,0.8,0.3V395.3z M746.9,394c0,0-0.5-0.3-0.8-0.3v1
		C746.7,394.8,747.2,394.8,746.9,394z M747.4,397.5c0-0.8-0.5-1.3-1.3-1.3C746.2,397,746.7,397.5,747.4,397.5c0,1,0.5,1.5,1.5,1.3
		C748.7,398,748.2,397.5,747.4,397.5z M748.2,391c-0.5,0.3-0.8,0.3-0.3,1C748.2,391.8,748.2,391.5,748.2,391z"/>
	<path class="st0" d="M759.4,375.5c-2-0.5-3.5-2-4.8-3.5c0-0.3-0.3-0.3-0.3-0.5c-0.5-1.3-0.8-2.8-1-3.8c-0.3-0.8-0.3-1.8-0.3-2.8
		v-2.8l0.8-2.8c0-0.5,0-1.3,0.5-1.8c-0.5-1.5,1.3-2.8,2-4.5l2-1c2-0.5,3.3-1.3,5.3-1.5c0.8,0,1.3-0.8,2,0c0.8,0.3,2,0.8,2.3,1.5
		c0,0.5,0.5,1.3,1.3,1c0,0.3,0.8-0.3,0.8-0.3c1-0.3,0.8,1.3,1.3,1.3c1.3-0.3,2.5,0,3.8,1.3c1,1.3,2.3,2.5,2.3,4.3c0,1.5,0.5,5,0,6
		c-0.5,1.5-1.3,3-2.8,4.5c0,0.5-0.8,0.5-0.8,1c-0.5,1.8-2.8,2.8-4.3,3.8c-1.5,1.3-4,1.3-6.3,1.5
		C761.9,376.5,760.7,376.3,759.4,375.5z"/>
</g>
</svg>
