<?xml version="1.0" encoding="utf-8"?>
<!-- Generator: Adobe Illustrator 19.2.1, SVG Export Plug-In . SVG Version: 6.00 Build 0)  -->
<svg version="1.1" id="Layer_1" xmlns="http://www.w3.org/2000/svg" xmlns:xlink="http://www.w3.org/1999/xlink" x="0px" y="0px"
	 viewBox="0 0 500 30" style="enable-background:new 0 0 500 30;" xml:space="preserve">
<style type="text/css">
	.st0{fill:#FFFFFF;}
</style>
<g>
	<path class="st0" d="M198.9,7.5c1.6,1.3,12.4,1.4,14.9,1.4c0.3,0,0.5,0,0.5,0l1,0l-0.8-0.6c-1.3-1-6.8-1.4-13.4-1.7
		c-0.8,0-1.6-0.1-2.2-0.1c-0.3-0.2-0.9-0.2-1.9-0.1l0,0.7c0.4,0,0.9,0.1,1.5,0.1C198.5,7.3,198.6,7.4,198.9,7.5z"/>
	<path class="st0" d="M169.7,8.5L169.7,8.5l6.3,0l-2.7-1.9l-4.6,0.1l0,0.6c-1,0.2-1.3,0.3-1.3,0.6C167.5,8.4,167.8,8.4,169.7,8.5z"
		/>
	<path class="st0" d="M156.1,7.7c1.5,0,2.7-0.1,3.8-0.3l-0.1-0.7c-1.2,0-2.2-0.1-3.1-0.2c-0.9-0.1-1.6-0.2-2.3-0.1l-4.1,1l2.4,0.2
		C154,7.7,155.1,7.7,156.1,7.7z"/>
	<path class="st0" d="M165,9.9c0.5,0.2,0.9,0.3,1.9,0.3c0.4,0,0.8,0,1.4-0.1c0.8,0,1.1-0.1,1.2-0.3l0.1-0.2l-0.2-0.2
		c-0.4-0.5-5.1-0.8-5.9-0.5l-1.7,0.5l1.8,0.2C164.3,9.7,164.6,9.8,165,9.9z"/>
	<path class="st0" d="M399,6.4c2.2,0,4.3-0.3,5-0.4l1.9-0.3l-3.3-0.8l-9.9,0.9l3.5,0.4C397.1,6.3,398.1,6.4,399,6.4z"/>
	<path class="st0" d="M359.3,6.6c1.5,0.1,3.6,0.2,5.7,0.5c0.8,0,1.6,0,2.3,0c3.2,0,6.4-0.2,9.5-0.3c3.3-0.2,6.6-0.4,9.9-0.3l4.3-0.6
		l0-0.7c-7.5-0.3-23-0.8-33.6-0.2l-0.1,0c-0.6,0.2-1.1,0.5-1.1,0.9C356.4,6.5,357.1,6.5,359.3,6.6z"/>
	<path class="st0" d="M500.6,12.9l-0.4-0.3c-0.5-0.4-1.2-0.8-2.1-1.2h1.8v-0.8h-3.7c-5.5-2-15.7-3.9-30.5-5.9
		c-0.5,0.1-0.8,0.1-0.9,0.2c-2.4,0-5.1,0-8-0.1c-7.6-0.2-16.1-0.3-23.3,0.7l0,0.7c1.8,0.1,2.9,0.2,4.1,0.3c1.1,0.1,2.2,0.2,3.9,0.3
		c-2.2,0.1-4.4-0.1-6.8-0.3c-2.2-0.2-4.4-0.4-6.8-0.4l0,0.7c-1.5,0.2-3.8,0.3-6.1,0.4c-7.3-0.3-18.1-0.3-28.6-0.2l-5,0
		c-1.9,0.2-5.4,0.2-8.9,0.2c-8.7,0-10.5,0.2-10.7,0.9c0,0,0,0,0,0c-3.8,0-5.7-0.3-7.7-0.7c-1.4-0.3-2.8-0.5-5-0.6
		c-3.6,0.4-7,0.4-10.3,0.3c0.4,0,0.7,0,1.1,0c1.5,0,2.6,0,2.7,0l0,0c1.7-0.3,2.2-0.5,2.2-1c0-0.6-0.5-0.9-10.7-1c-0.6,0-1.2,0-1.6,0
		l-1.5,0l1.8,1c0,0.1,0,0.1,0,0.1c0.1,0.3,0.8,0.5,1.8,0.7c-2.2-0.2-4.4-0.4-6.7-0.6c-7.2-0.7-14.7-1.5-23.2-0.5
		C311.4,5.2,309.9,5,303,5c-0.8,0-1.6,0-2.2,0c-19.2-0.1-20.9,0.6-21,1.3c-0.1,0.5,0.5,0.8,0.8,0.9c2.4,0.5,6.1,0.4,9.9,0.2
		c3.9-0.2,8.4-0.4,12.1,0.2c0.8,0.1,1.4,0.2,1.9,0.3c-1.3,0.1-3.3,0.1-5,0.2c-8.7,0.2-10.5,0.4-10.7,1.2l-0.1,0.5l0.5-0.1
		c0.7-0.1,1.2,0,2,0.2c0.5,0.1,1.1,0.2,1.8,0.3c-0.1,0.1-0.1,0.2-0.1,0.2c0,0.1,0,0.1,0,0.2h-8.1c-1.2-0.5-1.8-0.9-1.9-1.1
		c0,0,0,0,0-0.1l0.5-0.5l-0.7-0.1c-7.9-1.1-15.2-0.8-23-0.4c-4.5,0.2-9.2,0.4-14.1,0.4c1.6-0.2,2.5-0.4,3.4-0.7
		c1.7-0.5,3.4-1,10.4-1l0-0.7c-6-0.7-12.7-0.5-19.9-0.3c-7.1,0.2-14.4,0.5-20.9-0.3c-4.8,0-4.9,0.8-4.9,1c0,0.5,0.6,0.8,2,0.8
		c1.1,0,2.4,0,3.7,0c3.1,0.1,6.7,0.1,9.8-0.2c4,0.1,7.9,0.5,9.1,0.9l-0.2,0.1c-0.2,0-0.4,0-0.6,0c-1.5-0.1-12.4-0.7-13.1,0.6l0,0.1
		c0,0.2,0,0.4,0.2,0.5c0.2,0.3,0.8,0.5,1.8,0.6c-0.2,0-0.3,0-0.5,0c-4.8-0.1-9.7-0.3-14.2-0.1l0,0.5h-2.7c0-0.1,0-0.3-0.2-0.5
		l-0.1-0.1l-0.1,0c-1.7-0.3-4.3-0.4-7.9-0.1l0,0.7h-4.2c-1.3-0.1-2.6-0.2-3.9-0.2l3.2-0.7l-3.6,0c-2,0-4.2-0.2-6.2-0.3
		c-3.9-0.3-7.1-0.5-8.2,0.3l-0.9,0.6l1.1,0c1.3,0.1,2.4,0.1,3.3,0.2c0.3,0,0.6,0,0.9,0.1h-11.9c-0.8-0.1-1.6-0.1-2.3-0.3l-0.1,0
		l-0.1,0c-0.8,0.1-2.1,0.2-3.4,0.3H90.1c-0.9-0.1-2.3-0.3-2.5-0.5L87.5,10l-0.1,0c-4.5,0.3-9.1,0.5-13.8,0.6H0v0.8h25.1
		c-2.5,0.1-5,0.2-7.5,0.3c-5.1,0.9-9,0.9-13.4,1c-1.3,0-2.7,0-4.2,0.1l0,0.7c0,0,0,0,0.1,0V30h500V13.3h-0.1c0.1,0,0.2-0.1,0.3-0.1
		L500.6,12.9z M396.7,13.3c0.3-0.1,0.7-0.1,1-0.2c0.9,0,2.3,0,3.6,0c-0.1,0.1-0.2,0.1-0.3,0.2H396.7z M215.7,11.5
		c-2.5,0.1-5.3,0-8-0.1h7.3L215.7,11.5z M153.1,11.8c0,0.1,0,0.1,0,0.2c-2.9,0-6-0.1-9.2-0.1c-13.5-0.1-28.8-0.3-42.2,0.4
		c-1-0.5-3.3-0.5-5.6-0.6c-1.2,0-2.3,0-3.1-0.1c0-0.1,0-0.1-0.1-0.2h60.4C153.2,11.5,153.1,11.6,153.1,11.8z M292.3,12.5l-0.8-0.1
		c-1.8-0.3-3.2-0.7-4.4-1h7.6c0.2,0,0.5,0.1,0.7,0.2c0.5,0.1,1.2,0.2,1.6,0.4c-0.2,0-0.3,0.1-0.6,0.1l-3.6,0.5l3.6,0.2
		c3.9,0.2,6.5,0.4,8.5,0.6h-13.7L292.3,12.5z M324.4,13.2c4.3-0.4,8.1-0.1,11.8,0.1H324C324.1,13.3,324.2,13.2,324.4,13.2z
		 M409.2,13.3c-0.2,0-0.3-0.1-0.5-0.1c1.2,0,3.3,0,5.4,0c4.9,0.1,11.1,0.2,14.4-0.4c10.5-1,13.3-0.3,16,0.5H409.2z M470.4,13.1
		c4.1-0.1,8.4-0.1,10.9-0.4c3.6,0,5.8,0.3,7.9,0.6h-27.1C464.3,13.2,467.5,13.2,470.4,13.1z"/>
</g>
</svg>
