<?xml version="1.0" encoding="utf-8"?>
<!-- Generator: Adobe Illustrator 19.2.1, SVG Export Plug-In . SVG Version: 6.00 Build 0)  -->
<svg version="1.1" id="Layer_1" xmlns="http://www.w3.org/2000/svg" xmlns:xlink="http://www.w3.org/1999/xlink" x="0px" y="0px"
	 viewBox="0 0 200 200" style="enable-background:new 0 0 200 200;" xml:space="preserve">
<style type="text/css">
	.st0{fill:#231F20;}
</style>
<g>
	<path class="st0" d="M193.1,92.4l-10.4-1.5c-7.2-1-9.1-10.5-2.8-14.2l9-5.4c3.3-2,4.6-6,3.2-9.6v0c-1.5-3.5-5.3-5.5-9-4.5l-9.7,2.5
		c-7,1.8-12.4-6.2-8.1-12.1l6-8c2.3-3.1,2-7.4-0.7-10.1l0,0c-2.7-2.7-7-3-10.1-0.7L152,35c-5.8,4.3-13.8-1-12.1-8.1l2.6-10.2
		c0.9-3.7-1-7.5-4.5-9h0c-3.5-1.5-7.6-0.1-9.6,3.2l-5.1,8.6c-3.7,6.3-13.2,4.4-14.3-2.8l-1.4-9.9c-0.6-3.8-3.8-6.6-7.6-6.6
		s-7.1,2.8-7.6,6.6l-1.5,10.4c-1,7.2-10.5,9.1-14.2,2.8l-5.4-9c-2-3.3-6-4.6-9.6-3.2h0c-3.5,1.5-5.5,5.3-4.5,9l2.5,9.7
		c1.8,7-6.2,12.4-12.1,8.1l-8-6c-3.1-2.3-7.4-2-10.1,0.7l0,0c-2.7,2.7-3,7-0.7,10.1L35,48c4.3,5.8-1,13.8-8.1,12.1l-10.2-2.6
		c-3.7-0.9-7.5,1-9,4.5l0,0c-1.5,3.5-0.1,7.6,3.2,9.6l8.6,5.1c6.3,3.7,4.4,13.2-2.8,14.3l-9.9,1.4c-3.8,0.6-6.6,3.8-6.6,7.6
		s2.8,7.1,6.6,7.6l10.4,1.5c7.2,1,9.1,10.5,2.8,14.2l-9,5.4c-3.3,2-4.6,6-3.2,9.6v0c1.5,3.5,5.3,5.4,9,4.5l9.7-2.5
		c7-1.8,12.4,6.2,8.1,12.1l-6,8c-2.3,3.1-2,7.4,0.7,10.1l0,0c2.7,2.7,7,3,10.1,0.7L48,165c5.8-4.3,13.8,1,12.1,8.1l-2.6,10.2
		c-0.9,3.7,1,7.5,4.5,9c3.5,1.5,7.6,0.1,9.6-3.2l5.1-8.6c3.7-6.3,13.2-4.4,14.3,2.8l1.4,9.9c0.6,3.8,3.8,6.6,7.6,6.6
		s7.1-2.8,7.6-6.6l1.5-10.4c1-7.2,10.5-9.1,14.2-2.8l5.4,9c2,3.3,6,4.6,9.6,3.2h0c3.5-1.5,5.5-5.3,4.5-9l-2.5-9.7
		c-1.8-7,6.2-12.4,12.1-8.1l8,6c3.1,2.3,7.4,2,10.1-0.7l0,0c2.7-2.7,3-7,0.7-10.1L165,152c-4.3-5.8,1-13.8,8.1-12.1l10.2,2.6
		c3.7,0.9,7.5-1,9-4.5v0c1.5-3.5,0.1-7.6-3.2-9.6l-8.6-5.1c-6.3-3.7-4.4-13.2,2.8-14.3l9.9-1.4c3.8-0.6,6.6-3.8,6.6-7.6
		S196.9,92.9,193.1,92.4z M136.3,48.7c9.3,0,17,7.6,17,17c0,9.3-7.6,17-17,17c-9.3,0-17-7.6-17-17C119.4,56.3,127,48.7,136.3,48.7z
		 M64.4,48.7c9.3,0,17,7.6,17,17c0,9.3-7.6,17-17,17c-9.3,0-17-7.6-17-17C47.4,56.3,55,48.7,64.4,48.7z M65.1,153.4
		c-9.3,0-17-7.6-17-17c0-9.3,7.6-17,17-17c9.3,0,17,7.6,17,17C82,145.8,74.4,153.4,65.1,153.4z M135.6,153.4c-9.3,0-17-7.6-17-17
		c0-9.3,7.6-17,17-17c9.3,0,17,7.6,17,17C152.6,145.8,145,153.4,135.6,153.4z M158.4,119.1c-5.5-7.2-14.3-11.7-24.1-11.2
		c-14.5,0.7-26.3,12.4-27.1,26.9c-0.5,9.7,3.8,18.4,10.7,23.9c3,2.4,1.9,7.1-1.7,8c-5.2,1.2-10.6,1.9-16.1,1.9
		c-5.4,0-10.6-0.6-15.6-1.8c-3.7-0.9-4.7-5.6-1.7-8c7.2-5.7,11.6-14.8,10.8-24.9c-1.2-13.9-12.4-25-26.3-26
		c-10.4-0.8-19.7,4.1-25.3,11.8c-2.2,3.1-7,2.2-8.1-1.5c-1.6-5.8-2.4-11.9-2.4-18.2c0-5.5,0.6-10.8,1.9-16c0.9-3.8,5.8-4.7,8.1-1.5
		c5.4,7.3,14.1,12,24,11.7C80,93.7,92.1,82,92.9,67.3c0.6-10.5-4.5-19.9-12.6-25.4c-3.2-2.1-2.4-7.1,1.3-8.1
		c5.8-1.6,12-2.5,18.4-2.5c6.5,0,12.9,0.9,18.9,2.6c3.7,1.1,4.4,5.9,1.3,8.1c-8,5.5-13,14.9-12.3,25.4c0.9,14,12.1,25.5,26.2,26.6
		c10.1,0.8,19.2-3.7,24.9-11c2.4-3,7.2-2.1,8,1.7c1.1,4.9,1.7,10,1.7,15.2c0,6-0.8,11.9-2.3,17.5
		C165.4,121.2,160.7,122.1,158.4,119.1z"/>
	<path class="st0" d="M55.1,76.4c1.2,0,2.2-1,2.2-2.3V60.9L63,75.6c0.2,0.5,0.7,0.8,1.2,0.8c0.5,0,1-0.3,1.2-0.8l5.7-14.6v13.2
		c0,1.2,1,2.3,2.3,2.3c1.3,0,2.3-1,2.3-2.3V58.5c0-2-1.6-3.7-3.7-3.7c-1.6,0-2.9,1-3.4,2.4l-4.3,11l-4.3-11
		c-0.5-1.4-1.9-2.4-3.5-2.4c-2,0-3.7,1.6-3.7,3.7v15.7C52.8,75.3,53.8,76.4,55.1,76.4z"/>
	<path class="st0" d="M142.4,55.5h-13.3c-1.1,0-2,0.9-2,2c0,1.1,0.9,2,2,2h4.4v15.2c0,1.2,1,2.3,2.3,2.3c1.2,0,2.3-1,2.3-2.3V59.4
		h4.4c1.1,0,2-0.9,2-2C144.4,56.3,143.5,55.5,142.4,55.5z"/>
	<path class="st0" d="M58.7,147.2h9.1c4,0,6.2-2.5,6.2-5.7c0-2.7-1.8-4.9-4.1-5.2c2-0.4,3.6-2.2,3.6-4.9c0-2.8-2.1-5.4-6.1-5.4h-8.8
		c-1.5,0-2.4,0.9-2.4,2.4v16.4C56.3,146.4,57.1,147.2,58.7,147.2z M60.8,129.9h5.6c1.5,0,2.5,1,2.5,2.3c0,1.4-1,2.3-2.5,2.3h-5.6
		V129.9z M60.8,138.4h5.8c1.8,0,2.7,1.1,2.7,2.5c0,1.5-1,2.5-2.7,2.5h-5.8V138.4z"/>
	<path class="st0" d="M142.4,126.1h-13.3c-1.1,0-2,0.9-2,2c0,1.1,0.9,2,2,2h4.4v15.2c0,1.2,1,2.3,2.3,2.3c1.2,0,2.3-1,2.3-2.3v-15.2
		h4.4c1.1,0,2-0.9,2-2C144.4,127,143.5,126.1,142.4,126.1z"/>
</g>
</svg>
