<?xml version="1.0" encoding="utf-8"?>
<!-- Generator: Adobe Illustrator 19.2.1, SVG Export Plug-In . SVG Version: 6.00 Build 0)  -->
<svg version="1.1" id="Layer_1" xmlns="http://www.w3.org/2000/svg" xmlns:xlink="http://www.w3.org/1999/xlink" x="0px" y="0px"
	 viewBox="0 0 1000 350" style="enable-background:new 0 0 1000 350;" xml:space="preserve">
<style type="text/css">
	.st0{fill:#FFFFFF;}
</style>
<g>
	<path class="st0" d="M123.3,197.3c-0.7,1.6-0.5,3.6-0.5,5.7c0.5,2.3-1.4,4.1-1.4,6.3c0,2,0.2,4.1-0.7,6.1c-0.9,1.8-1.1,4.3-4.1,6.3
		c2,0.9,1.6,1.8,1.1,2.7c-0.7,1.6-1.8,2.9-2,4.3c0,1.4-0.2,2.5-2.3,4.3c-0.7,0.9-1.6,1.8-1.4,3.4c0.2,0.7-0.5,1.6-0.9,2.5
		c-0.2,1.1-0.2,3.2-1.1,3.6c-2,1.1-1.8,3.2-3.8,4.5c-0.9,1.6-0.9,4.1-1.8,5.7c-2,4.3-3.4,8.6-7.2,11.5c-1.1,1.4-1.4,3.6-2.7,4.8
		c-1.1,1.1-2.9,2-4.1,3.8c-0.7,1.1-1.1,2.5-1.6,3.6c-0.2,0.5-0.5,1.4-0.7,1.6c-2.5,0.9-2.7,3.4-3.8,5.2c-1.6,2-2.9,4.1-5.2,5.9
		c-1.6,0.9-3.2,2.5-4.1,4.3c-0.7,1.1-1.6,2.5-3.2,3.2c0-0.7-0.2-1.4-0.2-1.8c0.7-3.6,1.4-7.7,3.4-10.9c0.7-1.4,0.7-2.7,1.1-4.3
		c0.7-1.1-1.1-2-2.3-1.8c-0.2,0-0.5,0.2-0.5,0.2c-1.8,0.7-3.6,0.5-5.4,1.4c-4.3,1.1-6.1-0.2-7.9-1.4c-0.5-0.2-0.9-0.9-0.9-1.4
		c0-3.4-2-6.6-2.5-9.7c-0.2-0.7-0.7-1.1-0.2-1.8c0.5-1.1,0.9-2.3,1.1-3.4c-1.6-2,0-4.8-1.1-7c-1.4-1.8,0-4.3-1.4-6.6
		c-0.7-0.5,0-1.4,0.5-2c1.1-1.1,1.6-2.3,1.4-3.8c-0.2-1.4-0.9-2.5-0.9-3.4c0.2-1.1,0.9-2.3,0.9-3.4c0-1.4,0.2-2.7-0.7-3.6
		c-0.2-0.5-0.5-1.4-0.2-1.6c1.6-1.8,0.9-3.8,0.7-6.1c0-1.4-1.4-2.5-0.7-3.8c0.5-1.6-0.2-3.4,0.5-4.5c1.1-1.6-0.9-2.5,0-3.8
		c0.7-1.1,0.2-2.5-0.2-3.6c-0.5-0.9,0-1.6,0.2-2.3c0.7-1.1,2.5-0.9,2.5-2.3c0-0.9-0.9-2-0.9-2.9c-0.2-1.6,0-3.2,0.2-4.8
		c0.2-2.7-1.8-4.5-1.4-7c0.2-2.5,0.5-4.8,0-6.8c-0.5-2-0.7-4.1,0.7-5.7c1.8-1.8,0.5-4.1,1.1-6.1c0.5-0.9-0.5-1.1-0.9-1.4
		c-0.7-0.5-1.1-1.1-0.7-2c0.7-1.6,0.2-2.9,0-4.8c-0.2-1.4-0.5-2.7,0.5-3.8c0.7-1.1,0-1.8-0.2-3.2c-0.2-1.6,0-3.2-0.2-5
		c1.6-1.1,0-3.2,0.7-4.5s0.2-2.9,0.2-4.5v-2.9c-0.7-0.2-1.1-0.7-1.1-1.6c-0.5-1.8,1.4-3.2,1.1-5.2c-0.2-1.8-1.6-3.4-1.1-5.2
		c0.2-0.9,0-2.3,0-3.2c-0.2-1.4,0.5-2.9-0.7-3.8c-1.8,0.5-4.3,0.2-5.4,2c-0.9,1.8-0.5,2.3-1.8,3.4c-0.5,0.2-0.9,0.5-1.1,0.2
		c-1.6-1.6-3.2,0.7-4.8,0c-0.9-0.7-1.8-1.4-2-2.3c-0.2-1.6-0.9-2.5-2.3-3.2c-1.1-0.7-1.8-1.8-1.6-3.2h-0.2c0.9-0.2,1.4-0.5,1.4-1.1
		c-0.2-0.7-0.7-1.4-0.7-2.3c-0.5-0.7,0.2-1.1,0.7-1.1c0.7-0.2,1.4-0.2,1.8-0.2c4.3,0.5,8.4-0.7,12.4-1.6c4.3-1.4,6.6-4.3,11.1-4.1
		c2.9,0.2,8.4-2.9,11.3-2.7c4.1,0.5,6.6-2.9,10.6-2.3c6.8,1.1,12.2-2.5,18.5,0.5c3.8,1.6,7.7,2.7,10.9,5c2.9,2,5.7,4.5,6.6,7.9
		c0.9,2.3,2,14.3-0.2,16.7c-0.7,0.7-0.7,2-1.1,2.9c-0.2,0.9-0.5,2-1.1,2.5c-2.9,2.9-2.3,7.5-6.1,9.5c-1.4,0.7-2.5,2-2.9,3.2
		c-1.8,3.4-5,5.4-7.9,8.1c-2.7,2-5.2,4.3-7.5,6.8c-0.7,0.7-1.6,1.6-2,2.3c-1.6,3.4-3.8,6.3-5.7,9.3c-0.2,0.5-0.5,0.7,0,0.9
		c0.2,0.5,0.7,0.9,0.9,0.7c6.3-1.4,12.7-0.7,18.8-0.7c2,0,3.6,0.5,5.2,1.6c0.5,0.5,0.9,0.9,1.6,0.9c2.3,0.5,3.6,1.8,4.5,3.6
		c1.6,2.7,5.2,5.4,4.8,8.6C122.6,193.5,124.2,195.3,123.3,197.3z M58.8,137.8c-0.2,0.2-0.5,0.5-0.5,0.7
		C58.8,138.5,59.5,138.5,58.8,137.8z M60.8,152.1l-0.7-0.7c-0.2,0.9-0.2,1.8-0.2,2.7v1.4c0,1.4,0,2.9-0.7,4.5
		c-0.2,0.2-0.2,2.9,0.5,2.9c0.2,0,0.7-1.4,1.6-5.7C61.5,155.7,61.5,153.5,60.8,152.1z M59.5,125.4c0,2.7,0.2,5,0.5,7.7
		c0,0.7,0.5,2,0.7,1.6c0.5-0.9,0.5-1.6,0.5-2.3c0-0.9-0.2-2-0.2-3.4c0-1.6,0-3.2-0.9-3.6H59.5z M60.8,137.8l-0.5-0.9
		c0,0.7-0.9,3.8-0.7,4.1C61.7,144,61.1,138.8,60.8,137.8z M74,111.8c-0.2-0.2-0.2-0.5-0.5-0.5c-0.2-0.2-0.5,0-0.2,0.2
		C73.5,111.8,73.5,111.8,74,111.8z M110.2,197.3l0.5-0.7c-0.5-1.1-0.9-2.5-1.6-3.4c-2,0.7-2-0.7-2-1.8v-2.9c-0.2-2.3-1.8-3.8-3.2-5
		c-1.1-0.9-2.9-0.9-4.8-1.4c-2.7,1.4-5.9,0.2-8.8,1.1c-2.7,0.9-5.4,0.7-8.4,0.9c-1.6,0.2-3.4-0.2-4.5,0.5c-2,1.1-0.5,3.4-0.7,5.2
		c-0.5,0.5-0.5,1.1-0.7,1.6c-1.1,1.1-0.2,2.9-0.9,4.1c-1.1,1.6,0.2,2.7,0.2,3.8v1.8c-0.7,5.7,0.9,11.3-0.9,17
		c1.8,3.8,0.5,7.9,0.9,11.8c0.2,2.7,0.2,5.4-0.9,7.9c-0.7,1.1-0.7,2.7,0.5,4.1c1.4,1.4,1.4,2.5,0.7,4.3c-0.5,1.1,0.7,2.9,0.5,4.1
		c0,1.6-0.7,2.9,0,4.5c0.7,1.4-0.2,3.4-0.5,5c1.8,1.1-0.2,2.7,0.2,4.3c0.9,1.4,0.9,2.9,0.9,4.3c0.2,1.6,0.2,2.9,0.2,5
		c0.9-1.4,1.6-2.7,2.7-3.2c1.8-0.7,2.7-2,3.4-3.8c0.9-2,2.5-3.8,3.2-5.9c0.7-2.5,2-5,1.4-7.5c0.2-0.2,0.5-0.2,0.5-0.2
		c1.8-3.2,3.8-6.3,5.7-9.7c1.4-2.9,2.5-5.9,3.6-8.6c0.2-0.7,0-1.8,0-2.5c0.5,0,0.9-0.2,0.9-0.7s-0.5-0.7-0.9-0.5v1.1
		c-0.5,0-0.9-0.2-0.7-0.9c0-0.2,0.5-0.2,0.7-0.5v0.2c0-1.1,0-1.1,1.6-1.6c1.8-0.7,2.9-2,3.2-3.4c0.2-2,0.7-3.6,2-5
		c0.5-0.2,0.5-0.9,0-0.9c-2-0.5-0.9-1.6-0.7-2.7l1.4-3.4c0.5-1.1,0.7-2.3,0.7-3.8c2.3-0.2,0.7-1.8,0.9-2.5c0.9-1.8,1.4-3.8,1.8-5.9
		c0-0.2-0.5-0.7-0.9-0.9c-0.5-1.1,0.9-1.8,1.1-2.7C108.6,197.1,109.2,196.9,110.2,197.3z M74.2,112.1c0.2,0.7,0.7,1.4,0.7,2
		c0,4.1,1.4,12.2,2,16.1c0,2.7,0.9,4.8,0.7,7.5c0-0.2-0.2-0.5-0.5,0.2c-1.1,1.8,0.9,3.6,0.7,5.4c-0.2,0.9-0.2,2-0.7,2.9
		c-0.9,1.6-0.5,3.6-0.5,5.4c-0.5,2,0.2,4.3-0.5,6.1s0,2.9,0.9,4.5c2.3-2.5,4.5-4.8,6.8-7c1.4-1.1,2.7-2,2.5-4.1
		c1.6-2.7,2.3-6.3,5.9-8.1c0.9-0.5,1.6-1.1,2-2c-0.7-2.7,0.7-4.8,2.7-6.8c1.1-1.1,2-2.3,0.7-3.6l2.5-4.5c0.7-1.8,1.6-13.1,0.7-14.9
		c-0.9-1.6-2.5-1.4-3.8-1.6c-0.2-0.2-0.5-0.2-0.5-0.7c-4.1-2.5-4.1,1.8-8.6,0.2C84.4,107.8,78.3,111.6,74.2,112.1z M75.8,238.3
		c0,0.2,0.2,0.2,0.2,0.5l-0.2,0.2c-0.2,0-0.5-0.2-0.5-0.2L75.8,238.3z M99.1,226.3c0.2,0,0.5,0.2,0.5,0.2c-0.5,0.7-0.7,0.5-0.9,0
		L99.1,226.3z M106.8,214.3c0,0-0.2-0.2-0.2-0.5c-0.2,0.2-0.5,0.2-0.5,0.5c0,0.5,0,0.7,0.2,1.1h0.2
		C106.8,215,106.8,214.8,106.8,214.3z M110.4,204.6c0-0.2-0.2-0.2-0.2-0.2c-0.2,0.5-0.5,0.7-0.5,1.1c0,0,0.2,0.2,0.5,0.2
		C110.6,205.9,110.8,205,110.4,204.6z M109.9,199.6l0.2,0.2c0.2,0,0.2-0.2,0.5-0.2C110.4,199.1,110.2,199.1,109.9,199.6z"/>
	<path class="st0" d="M137.5,290.3c-1.6-1.6-4.3-1.8-5.2-4.3c0-0.2-0.9-0.5-1.1-0.7c-2.7-0.9-4.1-2.7-4.8-5.2
		c-0.5-1.4-1.4-2.5-0.2-3.8c0.7-0.9,2.3-0.7,3.2-0.5c5,2.7,9.7,0.5,13.8-1.1c4.3-1.1,3.6-3.4,7.7-4.8c1.1-0.2,2-1.4,1.1-2.5
		c-1.1-1.6,0-3.4-0.9-5c-1.1-1.6-1.4-4.1-1.6-5.9c-0.2-2-1.1-3.6-1.6-5.2c-0.7-2.9-0.9-5.4-0.7-8.4v0.2c0.5-0.2,0.9-0.2,1.4-0.2
		c0.2-0.2,0.7-0.5,1.1-0.7c-0.5,0-0.9-0.5-1.4-0.7h-0.9c1.8-3.4,0.9-6.6,0.7-10c0,0-0.2-0.2-0.2-0.5c-0.2,0.2-0.9,0.5-0.9,0.7
		c-0.5,2.3,0.9,4.5-0.7,7.7c-0.2-4.3-0.9-7.7-0.9-11.1c-0.2-4.1-0.2-8.1-0.2-12.2c0-1.6,0-3.2,0.9-4.8c0.2-0.5,0.2-1.4,0.9-1.1
		c0.7,0.2,0.7,0.9,0.9,1.4c0.5,0.5-0.7,0.9,0.5,0.5c0-0.2,0.2-0.2,0.2-0.2c-0.2-4.3,1.8-4.1,1.1-8.4c-0.2-1.4-1.1-0.7-1.8-0.5
		c-0.2,0.2-0.7,0.2-0.7,0.2c-0.5-0.2-0.7-0.5-0.9-0.7c1.4-2,0.2-4.5,0.9-6.6c0.9-2.9,1.6-5.9,2.9-8.4c0.7-1.4,0.7-2.7,0.2-4.1
		c0-0.2-0.2-0.5-0.2-0.5c-0.2,0.2-0.7,0.2-0.7,0.5c-0.7,0.5-0.7,0.9-0.9,1.1c-0.2-0.2-0.7-0.5-0.7-0.7c0-2-0.2-3.6,0-5.2
		c1.4-3.8,0.7-7.9,0.9-12c0-2.3,0.7-4.8,0.9-6.8c0.2-2.3,0.2-4.5,0.5-6.8c1.1-4.5,1.4-9.3,1.6-13.6c0.2-3.8,1.6-7.2,1.1-10.9
		c0-1.1,0-1.8-0.2-2.9c0-0.5-0.5-1.1-1.4-0.9c-5,1.8-6.1,2-11.3,4.3c-0.9,0.7-2.5,0.5-3.6-0.7c-1.8-1.8-4.5-2.5-5.7-4.8
		c-0.7-1.4-2.7-1.6-4.1-2.3c-0.5-0.5-0.7-0.9-0.7-1.1c0.2-0.2,0.5-0.9,0.7-0.9c2-0.7,4.1-1.1,6.1-2c2.5-0.9,5.2-2.3,8.1-3.4
		c3.2-0.9,6.3-2.5,9.7-3.2h0.5c2.7-1.6,5.2-2.9,8.4-3.2c2.7-0.2,5.2-0.9,7.7-2c2.7-1.4,5.7-1.4,8.6-2c2.9-1.1,6.3-0.7,9.7-0.9h6.8
		c2,0,3.2,1.8,3.8,3.4c0.5,0.5,0,1.1-0.2,1.1c-0.9,0.7-2.3,1.8-3.4,2c-7.9,1.6-14.5,5.9-21,9.5c-0.9,0.5-1.8,1.6-1.8,2.9
		c0.2,3.8,0.2,7.5,0.2,11.5c0,3.4,0.7,6.8-0.7,10.2c-0.5,0.7-0.2,1.8-0.2,2.7c0.2,3.6,0.5,7.2-0.2,10.9c-0.7,2.9-0.2,6.3-0.2,9.5
		c0,3.6,0.5,7.7-0.7,11.5c-0.7,2.3-0.2,5-0.2,7.2c0,1.6,0.2,2.9-0.7,4.1c-0.5,0.2-0.5,0.9-0.5,1.4c2.5,2.5,0.5,5.2,0.5,7.7
		c0,0.5-0.5,0.9-0.7,1.4c-0.9,1.4,0.2,1.8,0.9,2.7c0.5,0.5,0.9,0.9,0.5,1.8l-0.7,9.3c-0.7,1.6,0.7,3.2-0.5,5.4c-0.5,0.9,0,2.9,0,4.5
		c-0.2,2,0.7,3.6,1.1,5.4c0.2,1.1,0.5,2.7,0.2,3.8c-1.8,4.5-0.7,8.6-0.7,13.1c0,2.3,0.5,5-0.2,7.2c-0.5,0.7-0.5,1.1-0.5,1.4
		c2,3.2,0.7,6.8,1.4,10.2c0.9,1.1,1.6-0.2,2.5-0.2l2.5-0.7c3.6-1.4,7.5-2.5,11.3-2.7c2.9-0.2,5.2,0.7,7.7,2.5
		c0.9,0.9,1.1,1.8,0.2,2.7c-0.9,0.9-1.8,2-2.9,2.7c-0.5,0.5-1.4,0.7-1.6,1.4c-1.8,4.3-6.3,5-9.7,7.2c-5.7,1.6-11.3,4.5-17,6.6
		c-4.5,1.8-8.6,4.1-13.6,4.5c-1.4,0.2-2.9,1.1-4.3,1.8C140.9,292.3,139.1,292.1,137.5,290.3z M149.3,218.2c-0.5-0.5-0.7-1.4-1.4-1.1
		c-0.7,0.2-1.1,0.7-1.1,0.9c-0.5,1.8-0.5,3.6,0.2,5.2c0,0.2,0.9,0.5,1.1,0.5C149.3,222,149.5,220.2,149.3,218.2z M149.3,225.8
		c0-1.1,0-2-1.1-2c0,0.7,0,1.1,0.2,2l0.2,0.2C148.8,226.1,149.3,225.8,149.3,225.8z M151.5,180.1c0-0.2-0.2-0.5-0.5-1.1
		c0,0.5-0.2,0.7-0.2,0.7c0,0.5,0.2,0.7,0.2,1.4C151.3,180.6,151.5,180.4,151.5,180.1z"/>
	<path class="st0" d="M202,226.7l-0.7,0.5c-0.2,0-0.2-0.5-0.5-0.5c0-0.9,0.2-1.4,1.1-1.6V226.7z M284.6,117.5
		c-0.7,1.8-1.4,3.4-1.8,5.4c-0.5,2-1.4,4.1-2.5,5.9c-1.1,1.8-2.3,3.2-2.7,5.4c-0.5,1.8-2,3.6-3.2,5.2v1.6c-0.2,0-0.7,0.2-0.9,0.5
		c-1.8,2.3-3.4,4.8-5.4,7c0,2.5-1.6,2.9-3.8,2.9l-0.5,0.5c0.2,0.2,0.5,0.5,0.9,0.7c0.2,0.2,1.1,0.7,0.2,0.9s-1.4,0.5-0.9,1.4
		c0.2,0.2,0.5,0.2,0.5,0.5c0.2,1.8-0.7,2.3-2.5,2c-1.4-0.2-1.8,0.5-2.7,1.4c-0.2,0.2,0.2,1.4,0.5,1.4c1.1-0.7,2-0.5,1.4,1.1
		c-0.7,1.4-2.3,2.3-2,4.1c-2,2-2.7,5-5.9,5.9c-0.2,0-0.5,0.7-0.5,0.9c1.8,2.3-0.7,3.8-1.4,5.7c-0.9,2-2.3,3.4-3.2,5.2
		c-0.9,0.9-1.8,1.8-2.3,3.2s-1.6,2.7-2.9,3.6c-0.7,0.7-1.1,0.9-0.7,1.6c0.5,0.5,0.5,1.1,0,1.6c-3.4,3.4-5.2,7.5-8.6,10.9
		c-0.9,0.9-0.9,3.2-2.3,4.3c-1.4-0.2-1.4,1.4-1.8,2.7c-0.9,2.5-2.3,0.7-3.4,2.9c-0.2,1.1-0.7,3.2-0.7,4.3c-0.2,0.9,1.1,1.8,1.6,2.3
		c1.6,1.8,2,4.1,4.1,5.4c6.8,4.5,8.4,10.9,14.7,16.3c2.3,1.8,8.4,7.2,10,9.7c0.7,1.1,2,1.6,2.7,2.5c0.5,1.4,1.4,2.3,2.7,2.7l0.9,0.9
		c1.8,3.6,5.9,5.9,8.1,9.7c0.7,1.4,2.5,2,3.6,3.4c2,2.9,4.8,5.4,7.2,8.4c-1.6,1.8-3.6,0.7-5.4,0.7c0-0.5-0.5-0.9-1.1-0.9
		c0,0.7,0.5,0.9,1.1,0.9c-0.2,0.9-0.9,1.4-1.4,0.9c-3.2-1.1-5.9-2.7-8.8-4.1h0.2c-0.9-0.7-0.9-0.7-1.4,0c-0.5-0.5-0.9-0.5-1.1-0.7
		c-0.5-0.5-0.5-0.9-0.5-0.9c-3.2,1.1-4.1-1.1-5.4-2.9c-0.2-0.7-0.7-1.4-0.9-1.4c-1.8-0.5-2.7-2.3-4.5-2.7c0-0.7-5.4-5-7-6.8
		c-0.2,0-0.2-0.2-0.2-0.5c-0.2-0.2-0.2-0.5,0-0.5c-0.2-1.1-5.7-1.8-6.3-5.9c-1.1-0.9-9.3-11.5-10-12.7c-0.5-0.5-1.4-0.9-2-1.1
		c-0.2,0-0.5,0.5-0.7,0.7c0,0,0,0.2,0.2,0.5c1.1,1.6,3.2,2.3,4.3,4.1c-1.1,0.5-2.5,0.5-3.6-0.7l-2.3-2.3c-2,0.5-3.6,1.8-3.8,3.6
		c-0.5,2-1.1,3.6-2,5c-0.2,0.2,0.2,0.9,0.2,1.1s0.7,0.2,0.9,0c0.9-0.5,1.6-1.1,1.8-2.3c0.5-0.9,0.7-2,0.9-3.2
		c0.2-0.5,0.2-0.9,1.1-0.7l1.1,1.4v0.5c-1.4,3.2-0.5,6.3-0.9,9.3c0,0.9-0.7,1.6-0.7,2.3c0.2,0.5,1.6,1.4,1.6,1.4
		c-0.9,1.1,0,2.5,0,3.6c-0.2,0.5-0.7,1.4-1.8,0.9c-0.2,0-0.5-0.2-0.7,0c-0.2,0.5-0.2,1.1,0.2,1.4c0.5,0.2,0.9,0.2,1.1,0.5
		c0.7,0.7,0.7,1.1,0.5,2c-0.9,0.7-0.9,0.7,0,1.1c0.5,1.1,1.8,2,0.7,3.4c-0.9,1.1,0.5,2,0.2,3.2c-0.5,0.9-0.5,1.8-0.7,2.5
		c-0.2,1.1,0,2.3-0.5,2.9c-0.9,1.1-0.2,2.5-0.5,3.8c-0.5,1.8,1.8,3.4,0.7,5c-0.9,2-0.5,3.8-0.9,5.9c-0.7-0.5-1.6-0.7-2.5-0.9
		c-1.4-0.2-2.9,0.5-4.3-0.7c-1.6,0.5-3.4,0.9-5,1.6c-1.1,0.2-1.8,0.2-2.9-0.2c-0.9-0.5-1.6-1.1-1.8-2.5c-0.5-1.1-1.8-2.3-0.5-3.8
		c0.7-0.9-0.2-1.8-0.7-2.7c-0.7-1.1-1.1-2.5-0.2-4.1c0.2-0.5-0.2-1.4-0.5-1.4c-2.5-0.9-1.4-2.9-0.7-3.8c1.1-1.8,0.5-3.2-0.2-4.8
		c-0.5-1.1-1.1-2-1.6-3.4c-0.5-0.7,0.2-0.7,0.9-0.9c0.5-0.2,0.5-0.7,0-0.9c-0.9-0.5-1.6-0.7-1.1-1.8c1.1-2.9,0.9-5.9-0.2-8.8
		c-0.7-1.8-0.7-1.8,1.4-3.8c0.7,1.4,1.4,2.7,2,3.8c0.9-0.7,0.5-1.8,1.8-1.8c0.2,1.1,0.5,2.3-0.2,3.2c-0.7,1.1,0.7,1.8-0.5,2.9
		c-0.5,0.5-0.2,1.4-0.2,2.3c0,0.2,1.1,0.7,1.4,0.5c1.6-0.9,2.9-2.3,2.9-4.3v-3.8c0-1.4-1.6-2.3-0.5-3.6c-1.1-0.5-1.4-1.1-0.9-2.5
		c0.5-1.8,1.1-3.8,0-5.9c-0.5-0.9,0.2-1.8,0.9-2.5c1.4-1.4,1.4-3.2,0.9-4.5c-0.9-1.8-0.9-3.6-0.9-5.4c0.2-1.4-0.5-2.7-1.4-3.4
		c-2.3-1.8-3.6-4.3-5-6.3c0-0.2-0.5-0.2-0.5-0.2c-0.2-1.6,0.2-2.9,0.7-4.8c0.2-1.1,0.2-2,0-3.4c0-0.7-0.5-0.5-0.9-0.2
		c-0.5,0.5-0.9,0.5-0.9-0.2c-0.2-1.1,0.5-2.7,1.4-3.4c2-1.8,3.4-5,5.9-6.3c0.5-0.5,1.1-1.4,1.1-2c0-3.2,0.9-6.3,0.9-9.7v-8.6
		c0-0.7-0.2-1.4,0-2c2-6.1,0.9-12.2,0.9-18.3c0-2.7-0.5-5.2,0.5-7.7c0.5-0.9,0.5-2.3,0.5-3.2c-0.2-2.9,0-5.7-0.5-8.6
		c-1.4,0.9-1.4,2-1.6,3.2c-0.5,2.7,0.2,5.9-0.9,8.8c-0.2,0.2,0.5,0.7,0.5,0.9c0.7,1.6,0.7,3.2-0.7,4.5c-0.9,0.9-1.1,2-1.1,3.2v3.4
		c0.2,1.8,1.6,3.2,0.9,5.2c-0.7,1.8-0.7,3.6-0.7,5.4c0.2,1.8,0,3.8,0,5.4c0,1.4-0.9,2.3-1.6,3.2c-0.9-1.6-0.5-3.4-0.7-5
		c0-0.2-0.2-0.7-0.5-0.9c-0.2,0.2-0.5,0.5-0.7,0.9v6.1c-1.6-0.9-1.4-2.3-1.8-3.6c1.4-2.5,0-5.4,1.6-7.9c0.2-0.7-0.2-1.1-0.9-1.1
		c-1.1-0.7-0.7-1.1,0.2-1.1c1.8-0.2,2.7-1.4,2.9-2.7c0.2-0.7,0-1.4-0.2-1.6c-0.5-0.5-1.1-0.5-1.6,0c-0.2,0.2-0.5,0.2-0.5,0.5
		c-0.5,0.2-0.9,0.2-0.9-0.5c0.5-2,0.7-3.8,1.4-5.9c0.5-0.9,0.9-2,0.7-3.2c-0.5-3.2,0.2-6.3,1.4-9c0.7-1.6,0.7-2.9,0-4.3
		c-0.9-2.3-0.2-5-0.5-7.2c-0.2-2.3-0.7-4.8,0.5-7.2c0.9-2-0.5-4.3,0.9-6.3c0-0.2-0.2-0.7-0.5-1.1c-1.1-1.8-1.1-3.4-0.5-5.7
		c0.5-1.6,0.2-3.8-0.2-5.4c-0.2-1.1-0.9-1.8-1.8-2.7l1.6-1.6c0.5-0.5,0.7-1.1,1.4-0.7c1.1,0.5,2.5,0.7,3.2,0c1.4-0.7,2.3,0.7,3.2,0
		c0.5,0,0.9-0.5,1.1-0.2c1.4,0.7,2.9,0.5,4.3,1.4c1.4,1.1,0.9,2.3,1.4,3.6c1.4,3.8,1.8,7.9,1.8,12c0,5.2,0.2,10.4,0.5,15.6
		c0,1.1,0.5,2.3,0,3.6c-0.5,1.1,0,2.7,0,3.8c0,1.4-0.7,2.7-2,3.2c-0.5,0.2-1.1,0.2-0.7,0.9c0.5,0.9,0.5,2,0.7,2.9
		c0.2,0.5,0.9,0.2,1.1,0c0.5-0.5,0.9-0.5,0.9,0.2c0,2.7,0.2,5.4,0.2,8.1c-0.2,0.7-0.9,1.6-1.6,2.5c-0.5,0.7-0.5,1.1-0.5,1.8
		s0.2,1.4,1.1,0.7c0.5-0.2,0.9-0.2,0.9,0.2c-0.2,1.4-0.5,2.5-0.9,3.6c-0.5,1.6,1.1,2.3,0.5,3.6c-0.2,0.5-0.2,0.9-0.2,1.1
		c-0.9,0-1.4-0.5-1.4-1.4c0-0.5-0.5-0.7-0.9-0.9c0.2,1.8,0,2.9-0.9,4.5c-0.2,0,0,0.5,0,0.5c0.2,0.5,0.5,0.5,0.9,0
		c0.7-0.9,1.8-1.6,2-2.7c0.9,0.2,1.1,0.7,1.1,1.4c0.2,2,0.2,3.8,0.5,6.1c1.1-0.7,2.3-1.6,2.7-2.7c1.1-2.3,3.6-3.6,3.8-6.6
		c0-0.7,0.9-1.1,1.6-1.6c2-1.4,3.2-3.8,5.4-5.4c1.8-1.4,2.5-3.4,4.1-5.2c0.7-0.5,0.9-1.4,0.2-2.3c-0.2-0.2-0.2-0.5-0.2-0.5
		c2-0.7,1.8-2.9,3.2-3.6c1.8-0.5,2-2,3.4-2.7c1.6-0.7,2.5-2.3,3.2-3.6c0.7-1.6,1.8-2.5,2.9-3.8c-0.9-0.2-1.8-0.2-2.5-0.5
		c-0.5,0-0.7-0.5-0.5-0.7c0.7-0.9,1.4-1.4,2-2c1.8-1.8,3.4-3.4,4.5-5.7c0.5-0.9,1.4-1.8,0.2-2.9c-0.2-0.2,0-0.9,0.2-1.1
		c0.7-1.6,1.6-3.6,3.2-5c2.3-2.7,3.8-5.4,3.8-8.8c0-0.9,0.5-1.6,0.7-2.5c0.7-1.1,1.1-2.3,1.8-2.9c0.9-0.9,0-2.9,1.8-3.4
		c1.1-0.2,2,0.5,3.2,0.9c0.5,0.2,0.9,0.2,1.4,0c2.9-1.6,5.4,0.5,7.9,1.1c0.5,0,0.7,0.5,0.9,0.7C284.6,116.4,285,116.6,284.6,117.5z
		 M203.3,236.5v-0.2c0.9,1.8,0.5,3.2-0.7,4.5c0,0.2-0.2,0.2-0.5,0c-0.2-0.2-0.7-0.5-0.7-0.7c0.2-0.9,0.5-2,0.9-3.2
		C202.7,236.7,203.1,236.7,203.3,236.5z M201.5,246.7h0.5c0,0.5-0.2,0.7-0.2,0.9c0-0.2-0.2-0.2-0.2-0.5V246.7z M202,225.2
		c0-0.9-0.2-1.8,1.1-2C202.7,224,203.1,224.9,202,225.2z M203.6,244.4c0.2,0,0.2,0.2,0.7,0.5l-0.9,0.5c-0.2-0.2-0.5-0.2-0.9-0.5
		C202.9,244.6,203.1,244.4,203.6,244.4z M203.6,198.2c0,0-0.2-0.2-0.2-0.5c0.2-0.2,0.5-0.2,0.7-0.2l0.5,0.5
		C204,198,203.8,198.2,203.6,198.2z M205.6,234.7c0.5-0.5,0.7-0.2,0.9,0.2v0.5c-0.2,0.2-0.2,0.7-0.7,0.9h-2.5
		C203.8,235.1,205.2,235.3,205.6,234.7z M204,194.6c0-0.2-0.2-0.5-0.2-0.7v-0.7c0-0.5,0.2-0.9,0.5-1.6c0,0.7,0.2,1.1,0.5,1.4
		c0,0.5,0,0.7-0.2,0.9C204.5,194.2,204.3,194.4,204,194.6z M204.7,241.5l0.5-0.5c0,0.2,0.2,0.5,0.2,0.5
		C205.2,241.9,204.9,241.9,204.7,241.5z M205.2,250.7c0-0.2-0.2-0.2-0.2-0.5h0.7L205.2,250.7z M206.5,232c-0.2,0.2-0.5,0.5-0.7,0.5
		l-0.2-0.7c0.2-0.2,0.5-0.2,0.5-0.5L206.5,232z M207.6,256.2l-0.7,0.5c0.2-0.5,0-0.7,0.2-1.1c0-0.2,0.2-0.7,0.2-0.7
		C207.9,254.6,208.1,255.5,207.6,256.2z M207.9,194.6h-0.5c0-0.5,0.5-0.7,1.1-0.5c0,0,0,0.2,0.2,0.2
		C208.3,194.6,208.1,194.6,207.9,194.6z M207.4,198.2c0-0.2,0-0.5,0.2-0.7c0.2,0.2,0.5,0.5,0.5,0.7c0,0.2-0.5,0.5-0.5,0.7
		C207.4,198.7,207.4,198.5,207.4,198.2z M208.8,276.3c0.7-0.2,1.1-0.5,1.8-0.5c0.5-0.2,0.9-0.5,0.9-1.1c-0.2-2.3-0.2-4.8-2-6.3
		c-0.5-0.2-0.9-0.2-0.9,0.2c-0.2,1.4-1.1,2.7-0.5,4.3C208.6,274,208.6,275.2,208.8,276.3z M211.9,284.4c0-2-0.2-4.3-0.5-6.6
		c-0.9,1.1-2.3,1.8-1.4,2.9c0.9,1.1,0.5,2.7,0.9,3.6c0,0.2,0.2,0.5,0.5,0.5C211.7,284.9,211.9,284.7,211.9,284.4z M214,166.1
		c0,0,0-0.2-0.2-0.5c0,0.2-0.2,0.2-0.2,0.5l0.2,0.2L214,166.1z M214.9,150.3c-0.2,0.2-0.5,0.5-0.5,0.7c0,0.5,0.2,0.7,0.5,0.9V150.3z
		 M219.9,148.3c0.2,0,0.2,0.2,0.5,0.2c0,0,0.2,0,0.2-0.2l-0.2-0.2C220.1,148,220.1,148,219.9,148.3z M220.1,163
		c0,0.5,0.2,0.7,0.5,1.1c0-0.2,0.2-0.2,0.2-0.5c0-0.2-0.2-0.7-0.2-1.1L220.1,163z M222.4,185.8c0-0.5-0.2-1.1-0.7-1.6l-0.9-0.7
		c-0.2,0.5-0.5,0.7-0.5,1.1c-0.2,0.2-0.2,0.7,0,1.1c0,0.2,0.2,0.7,0.5,0.9l0.9-0.7C222.1,185.8,222.4,185.8,222.4,185.8z
		 M220.8,174.7c-0.2,0.5-0.5,0.7-0.5,0.9c0,0.5,0.5,0.9,0.9,0.9c0-0.5,0-0.9-0.2-1.4C221,175.2,220.8,174.9,220.8,174.7z
		 M221.9,263.2c0,0.2,0.2,0.5,0.5,0.9c0-0.5,0.2-0.7,0.2-0.9c0-0.5-0.2-0.7-0.2-1.1C222.1,262.5,221.9,262.7,221.9,263.2z
		 M222.1,274c0,0.2,0.2,0.5,0.2,0.9c0-0.2,0.5-0.5,0.5-0.7l-0.2-0.9C222.4,273.6,222.1,273.8,222.1,274z M223.3,186.3
		c-0.2-0.2-0.5-0.2-0.7-0.2C222.6,186.3,222.6,186.5,223.3,186.3z M224.2,270c0.2,0,0.5,0,0.7,0.2l-0.7,0.5V270z M231.2,183.1
		c-0.2-0.2-0.5-0.5-0.7-0.5c0,0.2,0,0.5-0.2,0.7c-0.5,0-0.5,0-0.7,0.2c0,0-0.2,0.2-0.2,0.5c0.2,0.2,0.5,0.5,0.7,0
		c0-0.2,0-0.5,0.2-0.7C230.5,183.3,230.7,183.1,231.2,183.1z M237.3,194.9l-0.5-1.1c-0.5-0.2-1.6,1.1-1.6,2c0,0.5,0.5,0.9,1.1,0.9
		C237.3,196.4,237.3,195.8,237.3,194.9z M237.3,168.4c-0.2-0.7,0-0.7,0.2-0.7C237.5,167.9,237.5,168.2,237.3,168.4z M238,167.5
		c0-0.7,0.5-1.1,0.9-1.1C238.9,166.8,238.4,167.3,238,167.5z M239.1,166.1v-1.4c0,0,0.2-0.2,0.5-0.2c0.2,0.2,0.5,0.2,0.5,0.5
		C240,165.7,239.5,166.1,239.1,166.1z M249.3,177.4c-0.2-0.2-0.5-0.7-0.5-0.9c-0.2,0.2-0.5,0.7-0.5,0.9c0,0.2,0.2,0.5,0.2,0.9
		C248.8,177.9,249,177.7,249.3,177.4z M251.5,172.7c-0.2-0.2-0.5-0.5-0.7-0.5c0,0.2-0.5,0.5-0.2,0.9c0,0.2,0.2,0.5,0.5,0.5
		C251.3,173.4,251.3,173.1,251.5,172.7z M257.9,162.1c-0.5-0.2-0.7-0.5-0.9-0.5c-0.5,0-0.7,0.2-1.1,0.5c0.5,0.2,0.7,0.5,0.9,0.5
		C257.2,162.5,257.4,162.3,257.9,162.1z M264.4,276.7h1.1c-0.2,0.2-0.2,0.5-0.5,0.9C264.9,277.2,264.7,277,264.4,276.7z
		 M270.8,141.5c-0.2,0-0.5,0.2-0.5,0.5c0,0,0.2,0.2,0.5,0.2V141.5z M270.5,277.2l0.2,0.5h1.4c-0.5-0.2-0.7-0.5-0.9-0.7
		C271,276.7,270.8,277.2,270.5,277.2z M272.3,277.9c0.7,1.1,0.7,1.1,2,0.9C274.4,277.4,273.2,277.9,272.3,277.9z M274.4,141.2
		l0.7,0.5C274.6,141.9,274.6,141.7,274.4,141.2z"/>
	<path class="st0" d="M307.9,284.7c-2.3-0.7-4.5-1.4-6.8-1.6c-1.6-0.2-2.9-1.4-4.1-2.3c-1.6-0.9-2.7-2.3-4.1-3.4
		c-0.9-0.7-1.8-1.1-1.4-2.3c0.2-0.5,1.1-1.1,1.6-1.8v0.2c0.5-0.5,0.9-0.9,1.1-1.4c0.5-4.3,1.1-8.6,1.1-12.9c0-4.3-0.5-8.6,0.7-12.9
		c0.5-2,0-4.3,0.2-6.6c0-2.7-0.2-5.4,0.7-8.1c0.7-2.5,0.2-5.4,0-8.1c0.2-0.2,1.1,0,0.5-0.9c0,0.2-0.2,0.7-0.5,0.9l-1.6,0.7
		c-0.2,0-0.5-0.2-0.5-0.7c-0.2-0.9,0.5-1.6,0.9-2c2-1.8,3.6-3.6,2.5-6.6c1.6-3.6,0.2-10.6,1.6-14.3c0.5-0.7-0.7-1.4-1.4-1.4
		s-1.4,0-1.8,0.2l-10.2,3.8c-0.9,0.5-1.8,0.5-2.7-0.5c-0.9-0.7-1.8-1.4-2.7-2.3c-0.7-0.7-0.9-1.6-0.9-2.7c0-0.9,0.5-1.6,0.2-2.7
		c-0.2-1.4,0.7-2.5,1.8-2.5c6.3,0.2,11.8-6.1,17.6-5.4c0.5,0,1.1-0.7,1.1-1.1c0.5-1.6,1.1-3.2,1.1-5c0-4.1-0.2-5.2,0.9-9
		c0.5-1.1-1.1-2.3-0.5-3.4c0.7-0.9,0.5-2.3,0.7-3.4c0.5-2-0.7-4.3,0.5-6.6c1.1-1.8-0.2-4.1,1.4-6.3c0.2-0.2,0.2-0.7,0.2-1.1
		c-0.2-4.3,0.9-8.6,1.1-12.9c0-2.5,1.1-4.8-0.2-7.2c-0.5-0.7,0.2-3.8,0.5-4.8c0-0.2,0-0.9-0.2-0.9c-0.5-0.2-1.1-0.5-1.6-0.2
		l-3.2,1.6c-2,0.9-3.4,3.4-5,1.8c-2.3-2-5,1.8-6.6,3.4c-1.1-0.9-2.7-0.7-4.3-1.6l-5-3.8c0.9-2,2.7-6.3,4.5-7l7.2-2.9
		c1.4-1.1,3.4,0.9,4.3-0.5c2-3.2,4.3-1.6,6.3-2.7c1.4-0.7,2.5,0.2,2.5-1.4c0-2,1.6-2.7,3.2-2.9c1.4-0.2,2.7-0.2,4.1,0.7
		s2.9,0,4.5-0.2l17.2-3.2c2.3-0.5,4.8,0,7-1.4c8.8-2,12.9-4.1,17-5.4c0.5-0.2,1.1,1.8,1.6,1.8c0.2,0,0.5,0.2,0.7,0.2
		c-0.7,1.4-1.6,3.6-2.9,4.3c-5,2.3-14.5,6.3-19.7,8.4c-1.8,0.7-3.6,0.7-5.4,1.4c-3.2,1.6-6.3,3.4-10,2c-0.7,0-1.4,1.1-2.3,1.8
		c-0.7,0.5-0.5,1.4-0.2,2c0.7,3.2,1.8,4.8,2,7.9c0.5,3.8,0.5,7.9,0.2,11.8c0,1.6-0.7,2.9-0.7,4.3v4.3c0,1.1-0.2,2.3-0.9,3.4
		c-0.2,0.7-0.2,1.6-0.2,2.3c0,1.6,1.1,3.4-0.7,4.8c0,0,0,0.5,0.2,0.5c2.9,1.1,0.7,2.9,0.2,4.3c-0.5,1.4-0.7,2.5,0,3.8
		c0.7,1.4,0.5,3.2,0.2,4.8c-0.2,0.7-0.5,1.4,0,2c0.5,0.9,0,1.8-0.9,1.8c-3.2,0.7-1.8,3.8-2.3,5.7c8.4,1.1,16.1-3.2,24.2-5
		c3.4-0.9,6.8-2.3,9.3-4.3c0.2-0.2,1.1-0.2,1.1,0c0.2,0.5,0.7,1.1,0.7,1.4c-0.5,1.1-0.7,2-1.6,2.7c-2.7,2.3-5.4,4.8-9,6.3
		c-8.6,3.2-16.3,8.8-24.4,10.2l-0.7,0.7l1.1,0.5c0.9,0.9-0.7,1.8,0.2,1.6c-1.6,3.8-1.6,8.1-2.9,12c-0.7,1.6-1.4,3.2,0,5
		c0.2,0.2,0,1.1-0.2,1.6c-0.5,1.1-0.7,2.3-0.7,3.4c0.2,0.7,0.9,1.6,0.7,2.3c-0.2,1.4-0.7,2.5-0.9,3.8c-0.2,0.5-0.9,0.9,0,1.4
		c0.5,0.2,0.9,0,1.6,0c0-0.2,0-0.2,0.2-0.2l2.9-2.3c0.2,2.3-0.9,4.1-0.7,6.1v5.2c0.2,3.2,0,3.2-3.4,4.5v3.4
		c-1.6,0.5-0.9,1.8-1.1,2.7c0,0.2,0.5,0.2,0.7,0.5c0.2-0.7,0.5-1.4,0.5-2v-1.1l3.4-2.3c0.2,5.7,0.5,11.3,0.2,16.7
		c0,1.1-0.7,2-0.9,3.2h-0.2c-0.7,0.5-1.1,0.2-0.5,1.1c0.2-0.2,0.5-0.9,0.5-1.1c1.4,0.5,0.9,1.6,1.4,2.5c-0.5,0-1.4-0.2-0.5,0.7
		c0.2,0.2,0.5-0.2,0.5-0.7v-0.2c2.9,0,5.4,0.7,8.4-0.2c4.3-1.6,8.8-2.9,13.6-3.8c4.5-1.1,9-2,13.8-2.5c2-0.5,4.3-0.9,6.3-1.6
		c1.4-0.7,2.5-0.5,3.8,0.2c1.1,0.2,2.5,0,2.7,1.6c0.5,2,0.2,4.1-1.8,5.2c-3.2,1.8-6.1,4.1-9.5,5.2c-1.4,0.5-2.5,1.1-3.8,1.8
		c-2.9,1.6-5.9,2.7-8.8,4.3c-2.7,1.8-5.9,2.5-8.6,3.8c-4.8,2.7-10,2-15.2,3.8c-3.6,1.4-7.2,1.6-10.6,3.6
		C309,285.1,308.3,284.9,307.9,284.7z M316.2,236.7c0.2-1.4,1.8-2.7,1.1-3.8c-1.1-1.6,0-2.9,0-4.3c0-0.9-0.2-1.6-0.9-1.6
		c-0.2,1.1-0.2,1.8-1.4,2.3c-0.5,0.2-0.9,0.7-0.9,1.4c-0.5,1.8,1.6,3.4,0,5.2c0,0,0,0.2,0.2,0.5c0.2,0.2,0.5,0.5,0.9,0.7
		C315.5,237.4,316,237.2,316.2,236.7z M314.6,239.2l-0.2,0.2c0.5,0.2,0.7,0.5,0.9,0.5C315.1,239.4,315.3,239,314.6,239.2z
		 M316.5,258c-0.5,0-0.7,0-0.2,0.7C316.5,258.4,316.5,258.2,316.5,258z M317.6,257.3c0.2-0.7,0-0.7-0.5-0.5
		c-0.2,0.2-0.2,0.5-0.2,0.7C317.1,257.5,317.4,257.5,317.6,257.3z"/>
	<path class="st0" d="M446.7,298.2c-0.5,0-0.9,0-0.9-0.2c-1.4-0.7-8.8-4.5-10.9-4.3c-1.4-0.2-1.8-1.8-3.2-1.6
		c-0.5-3.6,1.1-7.2-0.2-10.4c-0.2-0.2,0.5-0.5,0.5-0.9c0.7-1.6,0.2-3.2-0.5-4.5c-0.5,0-0.7-0.2-0.9-0.7c-0.2-1.4-2.5-1.8-2.5-3.4
		c-0.2-1.8-0.2-3.6,0.7-5.4c0.7-0.9,0.7-1.6,0.2-2.5c-0.2-0.7-0.7-1.8-0.2-2.7c0.5-1.8-0.9-3.8-1.1-5.9c0-0.7-0.7-0.2-1.1-0.2h-0.5
		c-0.2-0.2-0.5-0.9,0-1.1c1.4-0.7,2.3-1.1,0.9-2.9c-0.7-1.6-1.1-3.4-0.9-5.2c0.2-3.2-1.4-6.3-0.7-9.5c0-0.7-0.2-1.1-1.1-1.6
		c-0.7-0.5-0.9-1.1-0.2-1.6c0.7-1.1-0.2-1.6,0-2.5c0.7-0.7,0.2-0.9,0-1.6c-0.2-0.5-0.2-0.9,0-1.1c0.7-1.1,0.2-2.3,0-3.4
		c-0.2-1.8,0.2-4.1-1.4-5.9c-0.5-0.5,0.5-1.6-0.5-2.5c1.4-2.7,0.2-5.9-0.7-8.4c-0.5-0.9-0.2-1.8-1.4-2.3c0.7-2.5-0.7-5-1.1-7.2
		c-0.2-0.9-0.5-1.8,0.2-2.7c0.2-0.5,0.2-1.4,0-1.6c-0.5-0.7-1.1-1.1-1.8-1.8c-0.5-0.2-0.9-0.9-0.7-1.4c0.7-1.1,0.5-2.3-0.7-2.9
		c-0.7-2,0-3.6-1.1-5.7l0.9-1.4l0.7-0.9c0.2-0.2-0.2-0.9-0.2-0.9c-1.4-1.1,0.2-2.9-1.6-3.8c-1.4-0.5-2.3-3.4,1.1-2.5
		c-1.6-4.1-1.1-3.4-2-5.2c-0.9-2.5-0.5-5.2-1.6-7.7c-0.2-0.9-1.8-1.1-1.8-2.3c0-1.1-0.2-1.8-0.5-2.5c-0.5-0.9-0.2-1.6,0.2-2.5
		c0.5-0.5,0.5-1.1,0-1.4c-1.4-0.7-1.1-3.6,3.2-1.8c-3.4-6.1-5.2-5-5.4-7c-1.4-5.4-0.7-11.1-2.3-16.7c-0.7-2.5,0-5,0-7.7
		c0.2-0.9-0.5-1.6-1.6-1.8c-1.6,0-1.6-1.4-2-2.3c-0.2-0.5-0.2-0.7,0.2-0.9c0.7-0.2,1.1-0.7,1.6-1.4c0.7-0.7,1.4-0.9,2,0
		c2,1.1,3.6,1.1,5.2-0.5c1.6-1.1,10.2,1.1,11.8,1.6c1.1,0.2,2.3,0.7,2.5,1.8c0.5,1.8,2.7,1.6,3.2,2.7c0.9,1.8-0.7,2.5-0.5,3.8
		c0.9,3.8,0,7,0.2,10.4c-0.2,2.5,0.2,5,0.5,7.2c0.2,2.5-0.5,4.8,0.7,7.2c0.2,1.1-0.2,2.9,0.2,4.1c0.9,2.5,0.2,5.2,1.1,7.5
		c0.7,2.5,0.7,5,1.6,7.7c0.2,0.5,0.2,0.9,0.5,1.4c0.2,7.2,2.9,14.3,4.1,21.3c0,0.7,0.5,1.4,0.5,2c-0.2,5,1.6,9.3,2.3,14.3
		c0.7,3.2,1.4,6.1,1.1,9.5c-0.2,1.4-0.5,2.7,0.9,3.8l0.7,0.5c-0.9,3.2,1.1,6.1,0.7,9c0,1.8-0.5,3.6,0.5,5.7c0.5,0.7-0.7,1.8-0.7,2.9
		c0,0.7,0.9,1.4,0,2.3c1.4,4.5,2.5,9.5,2.7,10.2c1.8-2.7,1.6-10,2.5-10.9c-1.1-1.8,0.9-3.4,0.7-5c-0.2-1.6,0.2-2.9,0.2-4.5
		c0.2-1.4,0.2-2.3,0.9-3.6l0.7-2.9c0-1.1,0.2-2.5,0.5-3.4l1.4-7.2c0.2-2,0.2-4.1,1.4-6.1c1.1-1.6,0.7-3.6,1.6-5.7
		c0.9-3.2,1.1-6.6,1.6-9.7c0.7-2,1.1-4.1,1.6-6.1c0.7-1.6,1.1-3.4,1.8-5.2c0.2-1.8,0.2-3.8,1.1-5.4c0.5-1.6,0.7-3.4,0.7-5
		c0-2,0.7-3.6,2-4.8c0.9-1.1,1.4-2.3,1.4-3.6c0.5-1.8,0.7-3.8,1.6-6.1s0.7-4.5,0.7-7c0-3.4,2-6.1,2.3-9.5c0-0.2,0.2-0.7,0.5-1.1
		c1.6-2.3,1.4-5.2,2-8.1l2.3-5.2c1.1-2.3,1.6-4.5,3.6-5.9c0.5-0.5,0.7-1.1,0.7-1.4c0.7-3.8,2.9-6.8,4.8-10c2.9-1.6,5.2-5.9,7.7-7
		c3.6-2,6.3-1.1,9.7-2.9c0.5-0.2,0.9-0.2,1.1-0.2c0.5,0.5,1.1,1.1,0.9,1.4c-0.5,1.1-2,1.8-2.3,3.4c-4.1,0-4.1,6.8-6.3,9.7
		c-1.4,1.1-2.5,2.5-3.2,4.3c-0.5,1.8-2.5,3.2-3.8,5c0-1.8,0-3.4-0.2-5c-2.7,2.3-0.9,9.3-1.8,12l-2.9,5c0,0.5,0.7,0.7,0.9,1.1
		c0,1.1,0,2-0.5,2.9c-0.5,0.5-0.9,0.9-0.2,1.6c0.9,2,0.2,3.6-1.1,5c-0.5,0.5-0.2,0.5-0.9-0.7c-0.2,0-0.2-0.2-0.5-0.5
		c-0.9,1.1-1.6,1.8-1.4,2.9c0.2,2.9,0,5.9,0,8.4c0,0.7-0.7,1.4-1.1,1.8c-0.2,0.9-0.7,1.8-0.9,2.5c1.4,1.4-0.5,2.7-0.2,4.1
		c0.9,2.7,0.7,5.2-0.2,8.1c-0.5-1.1-0.7-1.6-1.4-2.5c-0.5,1.8-0.5,3.4-0.7,5c-0.2,0.9-0.2,2.3-0.7,2.9c-0.9,1.8-0.9,3.8-0.2,6.1
		c0.5,0.9,0.2,1.6,0,2.5c-0.9,0.9-2.5,2-1.4,3.6c-0.7,1.1-1.4,2.5-1.6,3.6c-0.7,1.4-0.7,2.3-0.9,3.4c-0.5,1.6-0.5,2.7-0.9,3.8
		c-0.5,1.8-0.9,3.4-0.9,5c0.2,1.8-0.7,3.2-1.1,5.2c-0.2,1.8-0.2,3.4-0.5,5c-0.7,2.3-1.1,4.5-1.6,6.8c-0.7,2-0.2,4.1-1.4,5.9
		c-0.5,0.9-0.2,2-0.5,2.9c0.2,2.3-0.7,4.3-1.6,6.1c-0.9,2-1.1,4.3-1.4,6.8c0,1.1-0.2,2.3-0.5,3.8c-0.5,1.8-0.2,3.4,0.9,4.8
		c0.2,0.2,0.2,1.1-0.5,1.1c-0.5,0-0.9-0.2-1.4-0.7c-0.5,3.6-0.7,7.2-0.9,10.9c-0.7,6.1-0.9,12.4-1.4,18.5c-0.2,2.7-1.1,5.2-1.4,7.7
		c0,0.9-0.2,1.6,0.7,2.5c2,1.8,1.4,3.6,0.9,5.7c0,0.7-0.7,1.1-1.1,1.1c-1.4,0-2,0.2-2.3,1.8c0,0.9-0.7,1.4-1.8,1.4
		C449.9,298.7,448.3,298.5,446.7,298.2z M442.2,226.3c-0.2,0-0.5-0.5-0.5-0.5c-0.2,0-0.5,0-0.5,0.2c0,0.2,0.2,0.5,0,0.7
		C441.5,226.7,442,226.5,442.2,226.3z M445.2,244.6c0.2-0.2,0.5-0.2,0.7-0.2c0,0.2,0,0.7-0.5,0.5
		C445.2,244.8,445.2,244.6,445.2,244.6z M478.4,138.3c0,0-0.2-0.2-0.2-0.5c-0.2,0.2-0.5,0.5-0.5,0.7c0,0.5,0.2,0.7,0.5,0.7
		C478.2,139.2,478.4,138.8,478.4,138.3z M490,110.9v-1.4c-0.5,0-0.9,0.2-0.9,0.9c0,0.2,0.2,0.7,0.5,0.9
		C489.7,111.2,490,111.2,490,110.9z M491.3,108.2c0-0.2-0.2-0.2-0.5-0.5c0,0.2-0.2,0.2-0.2,0.5c-0.2,0.2-0.2,0.9-0.2,1.1
		C491.1,109.3,491.3,108.9,491.3,108.2z"/>
	<path class="st0" d="M507.8,305.9c-0.7-1.6-1.6-2.3-3.2-1.1c-0.7,0.5-1.1-0.5-1.1-0.9c-0.2-0.7-0.7-1.4-1.6-0.7
		c-0.5,0.5-0.5,0.2-0.5-0.2c-0.2-0.9,0.9-1.6,0.2-2.5c-0.2-0.5-0.7-1.1-0.9-2c-0.2,0,0-0.5-0.2-0.7c0.7,0,0.9,0,1.6,0.2h0.9
		c0-2.9,2.5-4.8,2.5-7.5c0-0.7,0.5-1.4,0.9-1.8c2.3-2.3,3.2-4.8,5.9-6.1c0-2.9,0.7-5,3.2-7c2.5-1.6,4.5-3.8,5.7-6.8
		c0.9-1.4,2-2.3,3.4-2.9c0.2,0.5,0.7,0.9,1.4,0.7c1.8-0.2,1.8-0.2,2,1.4l-0.7,0.2c-0.2,0.5,0.2,0.5,0.2,0.2c0.2,0,0.2-0.2,0.5-0.5
		c0.9,0,1.4-0.5,1.8-1.1c0.9-1.1,1.6-2,1.8-2.9c0.9-2.3,2-4.3,3.6-5.7c0.7-0.7,0.7-1.4,0.5-1.8c-0.9,0.2-1.4,1.1-2.3,1.6
		c-0.2,0.2-0.7,0.2-0.9,0.2c-0.7,0-0.9-0.7-0.9-1.1c-0.2-1.8-0.5-3.4,2-4.1c0.5,0.7,0.9,1.1,1.4,0.7c1.4-0.7,2.7-1.4,3.8-2.3
		c3.2-1.8,3.4-4.5,3.4-7.5c0-0.7-0.5-1.4,0-1.8c1.4-0.7,1.4-2,2-3.2c0.2-0.5,0.5-1.4,0.2-1.4c-1.1-1.6-0.5-3.2,0.2-4.5
		c0.7-0.9,1.1-2,1.1-2.9c0.2-1.8,0.5-3.6-0.2-5.2c-0.7-1.8,1.1-2.7,0.5-4.5c-0.7-1.6-0.9-3.4-1.4-5.2c0-0.2,0-0.5-0.5-0.7
		c-2-1.8-2-3.8-2.7-6.1c-0.2-0.9-0.7-1.6-0.9-2.5c-1.8-5-5.9-7.5-10.9-8.8c-4.1-1.1-8.1-2.3-12.2-3.6c-3.6-1.1-6.8-3.8-10.4-5
		c-1.4-0.5-2.5-1.1-3.6-2c-0.9-0.7-1.8-1.4-2-2c0,0,0.7-0.7,0-1.6c-0.5-1.1-0.2-2.5-1.6-3.2c0,0-0.2-0.2-0.5-0.2
		c0,0.2-0.5,0.7-0.2,0.9c0,0.5,0.5,0.9,0.7,1.8c0,0.2-0.2,0.7-0.5,0.9c-0.5-0.2-1.4-0.5-1.4-0.7c-0.5-2.9-1.1-6.1-1.4-9.3
		c-0.5-2.7,0-5.7,1.4-8.1c0.5-0.5,0.7-1.4,0.7-1.8c0-2.9,1.1-5.4,2.5-7.5c0.5-1.8,0.9-2.9,0.9-4.8c0-0.5,0.5-1.1,0.9-1.4
		c0.2,0,0.9,0,1.6,0.2c0.5,0,0.5,0.2,0.5,0c0.2-2.9,3.2-4.3,3.2-7.5c0.2-0.9,1.4-2.3,2.3-3.4c1.1-1.4,2.7-2.5,3.6-4.1
		c0.7-1.1,2.5-2,2-4.1c0,0,0.9-0.2,1.1-0.5c2.7-2.9,5.9-5.7,8.4-8.6c2.3-2.5,4.3-5.4,8.1-6.3c0.9-0.2,1.8-0.9,2.3-2
		c1.8-3.2,5.4,0.2,7.2-2.9c0.7-0.9,1.6-1.6,2.3-2.9c0.2-0.9,0.9-1.6,2-0.9c1.4,0.7,2.7,1.1,4.3,1.4c1.8,0.5,6.6-3.4,8.6-3.4
		c0.9,0,4.8-0.2,5.2,0.7c-1.6,2.7-3.6,5-5.7,7c-3.4,3.4-6.3,6.6-8.4,10.6c-1.4,2-3.2,3.4-5,4.8c-0.7,0.7-1.4,0.9-1.8,1.8
		c-2.5,3.4-5.2,6.6-7.5,9.7c-4.1,5.2-7,8.1-9.7,13.8c-0.5,1.6-3.4,1.6-7.9,6.8c-0.9,0.9,0.5,0.5,0.5,0.9c0.2,0.2,4.5-1.8,4.3-1.6
		l-3.6,8.8c0,0.2-0.2,0.5-0.7,0.5c0,0.7,0,1.1-0.2,2c0,0.5-0.5,0.9-0.9,1.1h0.2c0.7-0.5,0.7,1.1,0.7,2.9c0,4.3-4.5,7.2-0.5,8.4
		c6.1,1.8,12,6.1,18.6,7.7c5.9,1.4,11.3,4.3,16.3,7.5c2.5,1.4,4.1,3.4,6.6,4.5c1.6,0.7,2,1.6,2.3,3.8c0.2,0.2,0,0.7,0,0.7
		c2.3,0.7,1.8,2.9,2.9,4.1c1.4,1.4,1.1,3.2,1.1,4.8c0.2,0.5,0.5,0.9,0.9,1.1c1.4,0.5,1.4,1.6,0.9,2.5c-0.2,0.9-0.7,1.8-0.9,2.7
		c0,1.1,0.9,2.9,0.5,4.3c-0.5,1.4-0.5,3.2-0.2,4.1c0.7,2.5,0,3.8-0.9,6.1c-0.2,0.5,0,0.9,0.9,1.1c0.5,0.2,0.7,0.7,0.5,1.4
		c-1.4,2.7-2.5,5.9-4.3,8.6c-0.7,0.9-1.4,1.6-2.7,2.5c-1.8,0.9-2.9,2.9-3.6,5c-0.7,2-2.5,2.9-3.4,4.8c-2.5,0.5-3.2,2.5-4.5,4.3
		c-0.5,0.2-0.7,0.7-0.9,0.9c0,2,0,3.8-2,4.8c-1.6,1.1-1.4,3.2-3.2,4.3h-0.5c-0.2,0.5-0.2,0.7-0.5,0.9c-0.9,0.5-2,0.5-0.9,1.6
		c0,0.2-0.2,0.7-0.2,1.1c-0.5,0.7-0.9,0.7-1.8,0.5c0-0.2,0-0.7-0.2-0.9c0-0.5-0.2-0.7-0.5-0.9c0,0.2-0.2,0.5-0.5,0.9
		c-0.2,0.2-0.2,0.7-0.2,1.1c-0.9,0.7-1.6,0.9-2,1.8c-1.8,0.9-2.7,2.5-3.8,3.8c-0.9-0.7-0.7-1.4-1.8-1.4c-0.2,0-0.9,0.2-1.4,0.5
		c-0.7,0.5-0.7,0.9,0.5,1.6c0.5,0.2,0.9,0.2,0.7,1.1c0,0.5-0.5,0.7-1.1,0.7c-0.7,0-1.1,0.2-1.8,0.2h-0.5c-0.2,0.2-0.7,0.9-0.7,1.1
		c0.9,2-0.2,3.2-1.4,4.8c-0.2,0-0.5,0.2-0.7,0.2c0-0.5-0.5-0.7-0.5-0.9V291c-0.9,0-1.1,1.1-2,1.6c1.1,1.1,0.5,2-0.7,2.3
		c-2.9,0.7-4.1,2.9-5,5.2c-0.7,1.6-1.4,2.7-3.4,2.9c-0.9,0-1.1,0.7-1.1,1.4c0,0.5,0.2,1.1-0.7,1.1c-0.2,0-0.2-0.7-0.5-1.1
		c-0.5-0.5-0.7-0.5-0.9,0c-0.2,0.9-0.5,1.6-0.9,2c0,0.2-0.7,0.2-0.7,0.2C508.3,306.4,508,306.1,507.8,305.9z M508.7,296.9v-1.1
		c-0.5,0-0.7,0.5-0.7,1.1l0.2,0.5C508.5,297.1,508.7,297.1,508.7,296.9z M509.9,294.4c-0.5,0-0.9,0.5-0.9,1.1
		C509.6,295.5,509.9,295.1,509.9,294.4z M510.8,293.9v-0.5c-0.7,0-0.7,0.5-0.7,0.7C510.3,294.2,510.5,293.9,510.8,293.9z
		 M513.2,289.6c0.2-0.2,0-0.5,0-0.7h-0.7c0,0.2-0.2,0.5,0,0.7c0,0.5,0,0.7,0.2,0.9C513,290.3,513.2,290.1,513.2,289.6z M513.9,288.1
		c-0.2,0.2-0.2,0.5-0.2,0.7C513.9,288.7,514.2,288.7,513.9,288.1z M519.1,169.7c0-0.2-0.2-0.5-0.5-0.5s-0.2,0.2-0.5,0.2
		c-0.2,0.7,0,1.4,0.9,1.6V169.7z M520,167.7v-4.3h-0.2l-1.4,3.8c0,0,0.7,0.2,0.9,0.5H520z M518.9,176.1c0,0-0.2-0.2-0.2-0.5
		c0,0.2-0.2,0.2-0.2,0.5c0,0.2,0,0.2,0.2,0.5C518.7,176.3,518.9,176.3,518.9,176.1z M520,284.4c-0.5,0-0.7,0-0.5,0.7
		C519.8,284.9,520,284.9,520,284.4z M520.9,283.8l-0.2-0.2c-0.5,0-0.7,0.2-0.5,0.7L520.9,283.8z M522.3,277c-0.2,0-0.2-0.2-0.5-0.2
		c-0.5,0.2-0.5,0.5,0,0.7L522.3,277z M525.2,296.9c0.2-0.2,0.5,0,0.2,0.2c-0.2,0.2-0.5,0.5-0.7,0.5
		C524.8,297.3,525,297.1,525.2,296.9z M532,286.5c0.2-0.2,0.7-0.7,0.9-0.7s0.5,0.5,0.7,0.7c-0.2,0.2-0.2,0.7-0.5,0.9
		c-0.5,0.5-1.4,0.5-1.4,0S531.8,286.7,532,286.5z M536.3,260c-0.2,0.2-0.2,0.2-0.2,0.7C536.3,260.7,536.8,260.7,536.3,260z
		 M542.9,279.2c-0.2-0.2,0-0.5,0.2-0.2c0.2,0.2,0.2,0.5,0.2,0.7L542.9,279.2z"/>
	<path class="st0" d="M581.8,279.5c-1.8-0.5-3.2-1.8-4.3-3.2c0-0.2-0.2-0.2-0.2-0.5c-0.5-1.1-0.7-2.5-0.9-3.4
		c-0.2-0.7-0.2-1.6-0.2-2.5v-2.5l0.7-2.5c0-0.5,0-1.1,0.5-1.6c-0.5-1.4,1.1-2.5,1.8-4.1l1.8-0.9c1.8-0.5,2.9-1.1,4.8-1.4
		c0.7,0,1.1-0.7,1.8,0c0.7,0.2,1.8,0.7,2,1.4c0,0.5,0.5,1.1,1.1,0.9c0,0.2,0.7-0.2,0.7-0.2c0.9-0.2,0.7,1.1,1.1,1.1
		c1.1-0.2,2.3,0,3.4,1.1c0.9,1.1,2,2.3,2,3.8c0,1.4,0.5,4.5,0,5.4c-0.5,1.4-1.1,2.7-2.5,4.1c0,0.5-0.7,0.5-0.7,0.9
		c-0.5,1.6-2.5,2.5-3.8,3.4c-1.4,1.1-3.6,1.1-5.7,1.4C584,280.4,582.9,280.1,581.8,279.5z"/>
	<path class="st0" d="M718.2,197.3c-0.7,1.6-0.5,3.6-0.5,5.7c0.5,2.3-1.4,4.1-1.4,6.3c0,2,0.2,4.1-0.7,6.1c-0.9,1.8-1.1,4.3-4.1,6.3
		c2,0.9,1.6,1.8,1.1,2.7c-0.7,1.6-1.8,2.9-2,4.3c0,1.4-0.2,2.5-2.3,4.3c-0.7,0.9-1.6,1.8-1.4,3.4c0.2,0.7-0.5,1.6-0.9,2.5
		c-0.2,1.1-0.2,3.2-1.1,3.6c-2,1.1-1.8,3.2-3.8,4.5c-0.9,1.6-0.9,4.1-1.8,5.7c-2,4.3-3.4,8.6-7.2,11.5c-1.1,1.4-1.4,3.6-2.7,4.8
		c-1.1,1.1-2.9,2-4.1,3.8c-0.7,1.1-1.1,2.5-1.6,3.6c-0.2,0.5-0.5,1.4-0.7,1.6c-2.5,0.9-2.7,3.4-3.8,5.2c-1.6,2-2.9,4.1-5.2,5.9
		c-1.6,0.9-3.2,2.5-4.1,4.3c-0.7,1.1-1.6,2.5-3.2,3.2c0-0.7-0.2-1.4-0.2-1.8c0.7-3.6,1.4-7.7,3.4-10.9c0.7-1.4,0.7-2.7,1.1-4.3
		c0.7-1.1-1.1-2-2.3-1.8c-0.2,0-0.5,0.2-0.5,0.2c-1.8,0.7-3.6,0.5-5.4,1.4c-4.3,1.1-6.1-0.2-7.9-1.4c-0.5-0.2-0.9-0.9-0.9-1.4
		c0-3.4-2-6.6-2.5-9.7c-0.2-0.7-0.7-1.1-0.2-1.8c0.5-1.1,0.9-2.3,1.1-3.4c-1.6-2,0-4.8-1.1-7c-1.4-1.8,0-4.3-1.4-6.6
		c-0.7-0.5,0-1.4,0.5-2c1.1-1.1,1.6-2.3,1.4-3.8c-0.2-1.4-0.9-2.5-0.9-3.4c0.2-1.1,0.9-2.3,0.9-3.4c0-1.4,0.2-2.7-0.7-3.6
		c-0.2-0.5-0.5-1.4-0.2-1.6c1.6-1.8,0.9-3.8,0.7-6.1c0-1.4-1.4-2.5-0.7-3.8c0.5-1.6-0.2-3.4,0.5-4.5c1.1-1.6-0.9-2.5,0-3.8
		c0.7-1.1,0.2-2.5-0.2-3.6c-0.5-0.9,0-1.6,0.2-2.3c0.7-1.1,2.5-0.9,2.5-2.3c0-0.9-0.9-2-0.9-2.9c-0.2-1.6,0-3.2,0.2-4.8
		c0.2-2.7-1.8-4.5-1.4-7c0.2-2.5,0.5-4.8,0-6.8c-0.5-2-0.7-4.1,0.7-5.7c1.8-1.8,0.5-4.1,1.1-6.1c0.5-0.9-0.5-1.1-0.9-1.4
		c-0.7-0.5-1.1-1.1-0.7-2c0.7-1.6,0.2-2.9,0-4.8c-0.2-1.4-0.5-2.7,0.5-3.8c0.7-1.1,0-1.8-0.2-3.2c-0.2-1.6,0-3.2-0.2-5
		c1.6-1.1,0-3.2,0.7-4.5c0.7-1.4,0.2-2.9,0.2-4.5v-2.9c-0.7-0.2-1.1-0.7-1.1-1.6c-0.5-1.8,1.4-3.2,1.1-5.2c-0.2-1.8-1.6-3.4-1.1-5.2
		c0.2-0.9,0-2.3,0-3.2c-0.2-1.4,0.5-2.9-0.7-3.8c-1.8,0.5-4.3,0.2-5.4,2c-0.9,1.8-0.5,2.3-1.8,3.4c-0.5,0.2-0.9,0.5-1.1,0.2
		c-1.6-1.6-3.2,0.7-4.8,0c-0.9-0.7-1.8-1.4-2-2.3c-0.2-1.6-0.9-2.5-2.3-3.2c-1.1-0.7-1.8-1.8-1.6-3.2H632c0.9-0.2,1.4-0.5,1.4-1.1
		c-0.2-0.7-0.7-1.4-0.7-2.3c-0.5-0.7,0.2-1.1,0.7-1.1c0.7-0.2,1.4-0.2,1.8-0.2c4.3,0.5,8.4-0.7,12.4-1.6c4.3-1.4,6.6-4.3,11.1-4.1
		c2.9,0.2,8.4-2.9,11.3-2.7c4.1,0.5,6.6-2.9,10.6-2.3c6.8,1.1,12.2-2.5,18.5,0.5c3.8,1.6,7.7,2.7,10.9,5c2.9,2,5.7,4.5,6.6,7.9
		c0.9,2.3,2,14.3-0.2,16.7c-0.7,0.7-0.7,2-1.1,2.9c-0.2,0.9-0.5,2-1.1,2.5c-2.9,2.9-2.3,7.5-6.1,9.5c-1.4,0.7-2.5,2-2.9,3.2
		c-1.8,3.4-5,5.4-7.9,8.1c-2.7,2-5.2,4.3-7.5,6.8c-0.7,0.7-1.6,1.6-2,2.3c-1.6,3.4-3.8,6.3-5.7,9.3c-0.2,0.5-0.5,0.7,0,0.9
		c0.2,0.5,0.7,0.9,0.9,0.7c6.3-1.4,12.7-0.7,18.8-0.7c2,0,3.6,0.5,5.2,1.6c0.5,0.5,0.9,0.9,1.6,0.9c2.3,0.5,3.6,1.8,4.5,3.6
		c1.6,2.7,5.2,5.4,4.8,8.6C717.5,193.5,719.1,195.3,718.2,197.3z M653.7,137.8c-0.2,0.2-0.5,0.5-0.5,0.7
		C653.7,138.5,654.4,138.5,653.7,137.8z M655.8,152.1l-0.7-0.7c-0.2,0.9-0.2,1.8-0.2,2.7v1.4c0,1.4,0,2.9-0.7,4.5
		c-0.2,0.2-0.2,2.9,0.5,2.9c0.2,0,0.7-1.4,1.6-5.7C656.4,155.7,656.4,153.5,655.8,152.1z M654.4,125.4c0,2.7,0.2,5,0.5,7.7
		c0,0.7,0.5,2,0.7,1.6c0.5-0.9,0.5-1.6,0.5-2.3c0-0.9-0.2-2-0.2-3.4c0-1.6,0-3.2-0.9-3.6H654.4z M655.8,137.8l-0.5-0.9
		c0,0.7-0.9,3.8-0.7,4.1C656.7,144,656,138.8,655.8,137.8z M668.9,111.8c-0.2-0.2-0.2-0.5-0.5-0.5c-0.2-0.2-0.5,0-0.2,0.2
		C668.4,111.8,668.4,111.8,668.9,111.8z M705.1,197.3l0.5-0.7c-0.5-1.1-0.9-2.5-1.6-3.4c-2,0.7-2-0.7-2-1.8v-2.9
		c-0.2-2.3-1.8-3.8-3.2-5c-1.1-0.9-2.9-0.9-4.8-1.4c-2.7,1.4-5.9,0.2-8.8,1.1c-2.7,0.9-5.4,0.7-8.4,0.9c-1.6,0.2-3.4-0.2-4.5,0.5
		c-2,1.1-0.5,3.4-0.7,5.2c-0.5,0.5-0.5,1.1-0.7,1.6c-1.1,1.1-0.2,2.9-0.9,4.1c-1.1,1.6,0.2,2.7,0.2,3.8v1.8
		c-0.7,5.7,0.9,11.3-0.9,17c1.8,3.8,0.5,7.9,0.9,11.8c0.2,2.7,0.2,5.4-0.9,7.9c-0.7,1.1-0.7,2.7,0.5,4.1c1.4,1.4,1.4,2.5,0.7,4.3
		c-0.5,1.1,0.7,2.9,0.5,4.1c0,1.6-0.7,2.9,0,4.5c0.7,1.4-0.2,3.4-0.5,5c1.8,1.1-0.2,2.7,0.2,4.3c0.9,1.4,0.9,2.9,0.9,4.3
		c0.2,1.6,0.2,2.9,0.2,5c0.9-1.4,1.6-2.7,2.7-3.2c1.8-0.7,2.7-2,3.4-3.8c0.9-2,2.5-3.8,3.2-5.9c0.7-2.5,2-5,1.4-7.5
		c0.2-0.2,0.5-0.2,0.5-0.2c1.8-3.2,3.8-6.3,5.7-9.7c1.4-2.9,2.5-5.9,3.6-8.6c0.2-0.7,0-1.8,0-2.5c0.5,0,0.9-0.2,0.9-0.7
		s-0.5-0.7-0.9-0.5v1.1c-0.5,0-0.9-0.2-0.7-0.9c0-0.2,0.5-0.2,0.7-0.5v0.2c0-1.1,0-1.1,1.6-1.6c1.8-0.7,2.9-2,3.2-3.4
		c0.2-2,0.7-3.6,2-5c0.5-0.2,0.5-0.9,0-0.9c-2-0.5-0.9-1.6-0.7-2.7l1.4-3.4c0.5-1.1,0.7-2.3,0.7-3.8c2.3-0.2,0.7-1.8,0.9-2.5
		c0.9-1.8,1.4-3.8,1.8-5.9c0-0.2-0.5-0.7-0.9-0.9c-0.5-1.1,0.9-1.8,1.1-2.7C703.5,197.1,704.2,196.9,705.1,197.3z M669.1,112.1
		c0.2,0.7,0.7,1.4,0.7,2c0,4.1,1.4,12.2,2,16.1c0,2.7,0.9,4.8,0.7,7.5c0-0.2-0.2-0.5-0.5,0.2c-1.1,1.8,0.9,3.6,0.7,5.4
		c-0.2,0.9-0.2,2-0.7,2.9c-0.9,1.6-0.5,3.6-0.5,5.4c-0.5,2,0.2,4.3-0.5,6.1c-0.7,1.8,0,2.9,0.9,4.5c2.3-2.5,4.5-4.8,6.8-7
		c1.4-1.1,2.7-2,2.5-4.1c1.6-2.7,2.3-6.3,5.9-8.1c0.9-0.5,1.6-1.1,2-2c-0.7-2.7,0.7-4.8,2.7-6.8c1.1-1.1,2-2.3,0.7-3.6l2.5-4.5
		c0.7-1.8,1.6-13.1,0.7-14.9c-0.9-1.6-2.5-1.4-3.8-1.6c-0.2-0.2-0.5-0.2-0.5-0.7c-4.1-2.5-4.1,1.8-8.6,0.2
		C679.3,107.8,673.2,111.6,669.1,112.1z M670.7,238.3c0,0.2,0.2,0.2,0.2,0.5l-0.2,0.2c-0.2,0-0.5-0.2-0.5-0.2L670.7,238.3z
		 M694,226.3c0.2,0,0.5,0.2,0.5,0.2c-0.5,0.7-0.7,0.5-0.9,0L694,226.3z M701.7,214.3c0,0-0.2-0.2-0.2-0.5c-0.2,0.2-0.5,0.2-0.5,0.5
		c0,0.5,0,0.7,0.2,1.1h0.2C701.7,215,701.7,214.8,701.7,214.3z M705.3,204.6c0-0.2-0.2-0.2-0.2-0.2c-0.2,0.5-0.5,0.7-0.5,1.1
		c0,0,0.2,0.2,0.5,0.2C705.5,205.9,705.7,205,705.3,204.6z M704.8,199.6l0.2,0.2c0.2,0,0.2-0.2,0.5-0.2
		C705.3,199.1,705.1,199.1,704.8,199.6z"/>
	<path class="st0" d="M732.4,290.3c-1.6-1.6-4.3-1.8-5.2-4.3c0-0.2-0.9-0.5-1.1-0.7c-2.7-0.9-4.1-2.7-4.8-5.2
		c-0.5-1.4-1.4-2.5-0.2-3.8c0.7-0.9,2.3-0.7,3.2-0.5c5,2.7,9.7,0.5,13.8-1.1c4.3-1.1,3.6-3.4,7.7-4.8c1.1-0.2,2-1.4,1.1-2.5
		c-1.1-1.6,0-3.4-0.9-5c-1.1-1.6-1.4-4.1-1.6-5.9c-0.2-2-1.1-3.6-1.6-5.2c-0.7-2.9-0.9-5.4-0.7-8.4v0.2c0.5-0.2,0.9-0.2,1.4-0.2
		c0.2-0.2,0.7-0.5,1.1-0.7c-0.5,0-0.9-0.5-1.4-0.7h-0.9c1.8-3.4,0.9-6.6,0.7-10c0,0-0.2-0.2-0.2-0.5c-0.2,0.2-0.9,0.5-0.9,0.7
		c-0.5,2.3,0.9,4.5-0.7,7.7c-0.2-4.3-0.9-7.7-0.9-11.1c-0.2-4.1-0.2-8.1-0.2-12.2c0-1.6,0-3.2,0.9-4.8c0.2-0.5,0.2-1.4,0.9-1.1
		c0.7,0.2,0.7,0.9,0.9,1.4c0.5,0.5-0.7,0.9,0.5,0.5c0-0.2,0.2-0.2,0.2-0.2c-0.2-4.3,1.8-4.1,1.1-8.4c-0.2-1.4-1.1-0.7-1.8-0.5
		c-0.2,0.2-0.7,0.2-0.7,0.2c-0.5-0.2-0.7-0.5-0.9-0.7c1.4-2,0.2-4.5,0.9-6.6c0.9-2.9,1.6-5.9,2.9-8.4c0.7-1.4,0.7-2.7,0.2-4.1
		c0-0.2-0.2-0.5-0.2-0.5c-0.2,0.2-0.7,0.2-0.7,0.5c-0.7,0.5-0.7,0.9-0.9,1.1c-0.2-0.2-0.7-0.5-0.7-0.7c0-2-0.2-3.6,0-5.2
		c1.4-3.8,0.7-7.9,0.9-12c0-2.3,0.7-4.8,0.9-6.8c0.2-2.3,0.2-4.5,0.5-6.8c1.1-4.5,1.4-9.3,1.6-13.6c0.2-3.8,1.6-7.2,1.1-10.9
		c0-1.1,0-1.8-0.2-2.9c0-0.5-0.5-1.1-1.4-0.9c-5,1.8-6.1,2-11.3,4.3c-0.9,0.7-2.5,0.5-3.6-0.7c-1.8-1.8-4.5-2.5-5.7-4.8
		c-0.7-1.4-2.7-1.6-4.1-2.3c-0.5-0.5-0.7-0.9-0.7-1.1c0.2-0.2,0.5-0.9,0.7-0.9c2-0.7,4.1-1.1,6.1-2c2.5-0.9,5.2-2.3,8.1-3.4
		c3.2-0.9,6.3-2.5,9.7-3.2h0.5c2.7-1.6,5.2-2.9,8.4-3.2c2.7-0.2,5.2-0.9,7.7-2c2.7-1.4,5.7-1.4,8.6-2c2.9-1.1,6.3-0.7,9.7-0.9h6.8
		c2,0,3.2,1.8,3.8,3.4c0.5,0.5,0,1.1-0.2,1.1c-0.9,0.7-2.3,1.8-3.4,2c-7.9,1.6-14.5,5.9-21,9.5c-0.9,0.5-1.8,1.6-1.8,2.9
		c0.2,3.8,0.2,7.5,0.2,11.5c0,3.4,0.7,6.8-0.7,10.2c-0.5,0.7-0.2,1.8-0.2,2.7c0.2,3.6,0.5,7.2-0.2,10.9c-0.7,2.9-0.2,6.3-0.2,9.5
		c0,3.6,0.5,7.7-0.7,11.5c-0.7,2.3-0.2,5-0.2,7.2c0,1.6,0.2,2.9-0.7,4.1c-0.5,0.2-0.5,0.9-0.5,1.4c2.5,2.5,0.5,5.2,0.5,7.7
		c0,0.5-0.5,0.9-0.7,1.4c-0.9,1.4,0.2,1.8,0.9,2.7c0.5,0.5,0.9,0.9,0.5,1.8l-0.7,9.3c-0.7,1.6,0.7,3.2-0.5,5.4c-0.5,0.9,0,2.9,0,4.5
		c-0.2,2,0.7,3.6,1.1,5.4c0.2,1.1,0.5,2.7,0.2,3.8c-1.8,4.5-0.7,8.6-0.7,13.1c0,2.3,0.5,5-0.2,7.2c-0.5,0.7-0.5,1.1-0.5,1.4
		c2,3.2,0.7,6.8,1.4,10.2c0.9,1.1,1.6-0.2,2.5-0.2l2.5-0.7c3.6-1.4,7.5-2.5,11.3-2.7c2.9-0.2,5.2,0.7,7.7,2.5
		c0.9,0.9,1.1,1.8,0.2,2.7c-0.9,0.9-1.8,2-2.9,2.7c-0.5,0.5-1.4,0.7-1.6,1.4c-1.8,4.3-6.3,5-9.7,7.2c-5.7,1.6-11.3,4.5-17,6.6
		c-4.5,1.8-8.6,4.1-13.6,4.5c-1.4,0.2-2.9,1.1-4.3,1.8C735.8,292.3,734,292.1,732.4,290.3z M744.2,218.2c-0.5-0.5-0.7-1.4-1.4-1.1
		c-0.7,0.2-1.1,0.7-1.1,0.9c-0.5,1.8-0.5,3.6,0.2,5.2c0,0.2,0.9,0.5,1.1,0.5C744.2,222,744.4,220.2,744.2,218.2z M744.2,225.8
		c0-1.1,0-2-1.1-2c0,0.7,0,1.1,0.2,2l0.2,0.2C743.7,226.1,744.2,225.8,744.2,225.8z M746.5,180.1c0-0.2-0.2-0.5-0.5-1.1
		c0,0.5-0.2,0.7-0.2,0.7c0,0.5,0.2,0.7,0.2,1.4C746.2,180.6,746.5,180.4,746.5,180.1z"/>
	<path class="st0" d="M796.9,226.7l-0.7,0.5c-0.2,0-0.2-0.5-0.5-0.5c0-0.9,0.2-1.4,1.1-1.6V226.7z M879.5,117.5
		c-0.7,1.8-1.4,3.4-1.8,5.4c-0.5,2-1.4,4.1-2.5,5.9c-1.1,1.8-2.3,3.2-2.7,5.4c-0.5,1.8-2,3.6-3.2,5.2v1.6c-0.2,0-0.7,0.2-0.9,0.5
		c-1.8,2.3-3.4,4.8-5.4,7c0,2.5-1.6,2.9-3.8,2.9l-0.5,0.5c0.2,0.2,0.5,0.5,0.9,0.7c0.2,0.2,1.1,0.7,0.2,0.9s-1.4,0.5-0.9,1.4
		c0.2,0.2,0.5,0.2,0.5,0.5c0.2,1.8-0.7,2.3-2.5,2c-1.4-0.2-1.8,0.5-2.7,1.4c-0.2,0.2,0.2,1.4,0.5,1.4c1.1-0.7,2-0.5,1.4,1.1
		c-0.7,1.4-2.3,2.3-2,4.1c-2,2-2.7,5-5.9,5.9c-0.2,0-0.5,0.7-0.5,0.9c1.8,2.3-0.7,3.8-1.4,5.7c-0.9,2-2.3,3.4-3.2,5.2
		c-0.9,0.9-1.8,1.8-2.3,3.2s-1.6,2.7-2.9,3.6c-0.7,0.7-1.1,0.9-0.7,1.6c0.5,0.5,0.5,1.1,0,1.6c-3.4,3.4-5.2,7.5-8.6,10.9
		c-0.9,0.9-0.9,3.2-2.3,4.3c-1.4-0.2-1.4,1.4-1.8,2.7c-0.9,2.5-2.3,0.7-3.4,2.9c-0.2,1.1-0.7,3.2-0.7,4.3c-0.2,0.9,1.1,1.8,1.6,2.3
		c1.6,1.8,2,4.1,4.1,5.4c6.8,4.5,8.4,10.9,14.7,16.3c2.3,1.8,8.4,7.2,10,9.7c0.7,1.1,2,1.6,2.7,2.5c0.5,1.4,1.4,2.3,2.7,2.7l0.9,0.9
		c1.8,3.6,5.9,5.9,8.1,9.7c0.7,1.4,2.5,2,3.6,3.4c2,2.9,4.8,5.4,7.2,8.4c-1.6,1.8-3.6,0.7-5.4,0.7c0-0.5-0.5-0.9-1.1-0.9
		c0,0.7,0.5,0.9,1.1,0.9c-0.2,0.9-0.9,1.4-1.4,0.9c-3.2-1.1-5.9-2.7-8.8-4.1h0.2c-0.9-0.7-0.9-0.7-1.4,0c-0.5-0.5-0.9-0.5-1.1-0.7
		c-0.5-0.5-0.5-0.9-0.5-0.9c-3.2,1.1-4.1-1.1-5.4-2.9c-0.2-0.7-0.7-1.4-0.9-1.4c-1.8-0.5-2.7-2.3-4.5-2.7c0-0.7-5.4-5-7-6.8
		c-0.2,0-0.2-0.2-0.2-0.5c-0.2-0.2-0.2-0.5,0-0.5c-0.2-1.1-5.7-1.8-6.3-5.9c-1.1-0.9-9.3-11.5-10-12.7c-0.5-0.5-1.4-0.9-2-1.1
		c-0.2,0-0.5,0.5-0.7,0.7c0,0,0,0.2,0.2,0.5c1.1,1.6,3.2,2.3,4.3,4.1c-1.1,0.5-2.5,0.5-3.6-0.7l-2.3-2.3c-2,0.5-3.6,1.8-3.8,3.6
		c-0.5,2-1.1,3.6-2,5c-0.2,0.2,0.2,0.9,0.2,1.1s0.7,0.2,0.9,0c0.9-0.5,1.6-1.1,1.8-2.3c0.5-0.9,0.7-2,0.9-3.2
		c0.2-0.5,0.2-0.9,1.1-0.7l1.1,1.4v0.5c-1.4,3.2-0.5,6.3-0.9,9.3c0,0.9-0.7,1.6-0.7,2.3c0.2,0.5,1.6,1.4,1.6,1.4
		c-0.9,1.1,0,2.5,0,3.6c-0.2,0.5-0.7,1.4-1.8,0.9c-0.2,0-0.5-0.2-0.7,0c-0.2,0.5-0.2,1.1,0.2,1.4c0.5,0.2,0.9,0.2,1.1,0.5
		c0.7,0.7,0.7,1.1,0.5,2c-0.9,0.7-0.9,0.7,0,1.1c0.5,1.1,1.8,2,0.7,3.4c-0.9,1.1,0.5,2,0.2,3.2c-0.5,0.9-0.5,1.8-0.7,2.5
		c-0.2,1.1,0,2.3-0.5,2.9c-0.9,1.1-0.2,2.5-0.5,3.8c-0.5,1.8,1.8,3.4,0.7,5c-0.9,2-0.5,3.8-0.9,5.9c-0.7-0.5-1.6-0.7-2.5-0.9
		c-1.4-0.2-2.9,0.5-4.3-0.7c-1.6,0.5-3.4,0.9-5,1.6c-1.1,0.2-1.8,0.2-2.9-0.2c-0.9-0.5-1.6-1.1-1.8-2.5c-0.5-1.1-1.8-2.3-0.5-3.8
		c0.7-0.9-0.2-1.8-0.7-2.7c-0.7-1.1-1.1-2.5-0.2-4.1c0.2-0.5-0.2-1.4-0.5-1.4c-2.5-0.9-1.4-2.9-0.7-3.8c1.1-1.8,0.5-3.2-0.2-4.8
		c-0.5-1.1-1.1-2-1.6-3.4c-0.5-0.7,0.2-0.7,0.9-0.9c0.5-0.2,0.5-0.7,0-0.9c-0.9-0.5-1.6-0.7-1.1-1.8c1.1-2.9,0.9-5.9-0.2-8.8
		c-0.7-1.8-0.7-1.8,1.4-3.8c0.7,1.4,1.4,2.7,2,3.8c0.9-0.7,0.5-1.8,1.8-1.8c0.2,1.1,0.5,2.3-0.2,3.2c-0.7,1.1,0.7,1.8-0.5,2.9
		c-0.5,0.5-0.2,1.4-0.2,2.3c0,0.2,1.1,0.7,1.4,0.5c1.6-0.9,2.9-2.3,2.9-4.3v-3.8c0-1.4-1.6-2.3-0.5-3.6c-1.1-0.5-1.4-1.1-0.9-2.5
		c0.5-1.8,1.1-3.8,0-5.9c-0.5-0.9,0.2-1.8,0.9-2.5c1.4-1.4,1.4-3.2,0.9-4.5c-0.9-1.8-0.9-3.6-0.9-5.4c0.2-1.4-0.5-2.7-1.4-3.4
		c-2.3-1.8-3.6-4.3-5-6.3c0-0.2-0.5-0.2-0.5-0.2c-0.2-1.6,0.2-2.9,0.7-4.8c0.2-1.1,0.2-2,0-3.4c0-0.7-0.5-0.5-0.9-0.2
		c-0.5,0.5-0.9,0.5-0.9-0.2c-0.2-1.1,0.5-2.7,1.4-3.4c2-1.8,3.4-5,5.9-6.3c0.5-0.5,1.1-1.4,1.1-2c0-3.2,0.9-6.3,0.9-9.7v-8.6
		c0-0.7-0.2-1.4,0-2c2-6.1,0.9-12.2,0.9-18.3c0-2.7-0.5-5.2,0.5-7.7c0.5-0.9,0.5-2.3,0.5-3.2c-0.2-2.9,0-5.7-0.5-8.6
		c-1.4,0.9-1.4,2-1.6,3.2c-0.5,2.7,0.2,5.9-0.9,8.8c-0.2,0.2,0.5,0.7,0.5,0.9c0.7,1.6,0.7,3.2-0.7,4.5c-0.9,0.9-1.1,2-1.1,3.2v3.4
		c0.2,1.8,1.6,3.2,0.9,5.2c-0.7,1.8-0.7,3.6-0.7,5.4c0.2,1.8,0,3.8,0,5.4c0,1.4-0.9,2.3-1.6,3.2c-0.9-1.6-0.5-3.4-0.7-5
		c0-0.2-0.2-0.7-0.5-0.9c-0.2,0.2-0.5,0.5-0.7,0.9v6.1c-1.6-0.9-1.4-2.3-1.8-3.6c1.4-2.5,0-5.4,1.6-7.9c0.2-0.7-0.2-1.1-0.9-1.1
		c-1.1-0.7-0.7-1.1,0.2-1.1c1.8-0.2,2.7-1.4,2.9-2.7c0.2-0.7,0-1.4-0.2-1.6c-0.5-0.5-1.1-0.5-1.6,0c-0.2,0.2-0.5,0.2-0.5,0.5
		c-0.5,0.2-0.9,0.2-0.9-0.5c0.5-2,0.7-3.8,1.4-5.9c0.5-0.9,0.9-2,0.7-3.2c-0.5-3.2,0.2-6.3,1.4-9c0.7-1.6,0.7-2.9,0-4.3
		c-0.9-2.3-0.2-5-0.5-7.2c-0.2-2.3-0.7-4.8,0.5-7.2c0.9-2-0.5-4.3,0.9-6.3c0-0.2-0.2-0.7-0.5-1.1c-1.1-1.8-1.1-3.4-0.5-5.7
		c0.5-1.6,0.2-3.8-0.2-5.4c-0.2-1.1-0.9-1.8-1.8-2.7l1.6-1.6c0.5-0.5,0.7-1.1,1.4-0.7c1.1,0.5,2.5,0.7,3.2,0c1.4-0.7,2.3,0.7,3.2,0
		c0.5,0,0.9-0.5,1.1-0.2c1.4,0.7,2.9,0.5,4.3,1.4c1.4,1.1,0.9,2.3,1.4,3.6c1.4,3.8,1.8,7.9,1.8,12c0,5.2,0.2,10.4,0.5,15.6
		c0,1.1,0.5,2.3,0,3.6c-0.5,1.1,0,2.7,0,3.8c0,1.4-0.7,2.7-2,3.2c-0.5,0.2-1.1,0.2-0.7,0.9c0.5,0.9,0.5,2,0.7,2.9
		c0.2,0.5,0.9,0.2,1.1,0c0.5-0.5,0.9-0.5,0.9,0.2c0,2.7,0.2,5.4,0.2,8.1c-0.2,0.7-0.9,1.6-1.6,2.5c-0.5,0.7-0.5,1.1-0.5,1.8
		s0.2,1.4,1.1,0.7c0.5-0.2,0.9-0.2,0.9,0.2c-0.2,1.4-0.5,2.5-0.9,3.6c-0.5,1.6,1.1,2.3,0.5,3.6c-0.2,0.5-0.2,0.9-0.2,1.1
		c-0.9,0-1.4-0.5-1.4-1.4c0-0.5-0.5-0.7-0.9-0.9c0.2,1.8,0,2.9-0.9,4.5c-0.2,0,0,0.5,0,0.5c0.2,0.5,0.5,0.5,0.9,0
		c0.7-0.9,1.8-1.6,2-2.7c0.9,0.2,1.1,0.7,1.1,1.4c0.2,2,0.2,3.8,0.5,6.1c1.1-0.7,2.3-1.6,2.7-2.7c1.1-2.3,3.6-3.6,3.8-6.6
		c0-0.7,0.9-1.1,1.6-1.6c2-1.4,3.2-3.8,5.4-5.4c1.8-1.4,2.5-3.4,4.1-5.2c0.7-0.5,0.9-1.4,0.2-2.3c-0.2-0.2-0.2-0.5-0.2-0.5
		c2-0.7,1.8-2.9,3.2-3.6c1.8-0.5,2-2,3.4-2.7c1.6-0.7,2.5-2.3,3.2-3.6c0.7-1.6,1.8-2.5,2.9-3.8c-0.9-0.2-1.8-0.2-2.5-0.5
		c-0.5,0-0.7-0.5-0.5-0.7c0.7-0.9,1.4-1.4,2-2c1.8-1.8,3.4-3.4,4.5-5.7c0.5-0.9,1.4-1.8,0.2-2.9c-0.2-0.2,0-0.9,0.2-1.1
		c0.7-1.6,1.6-3.6,3.2-5c2.3-2.7,3.8-5.4,3.8-8.8c0-0.9,0.5-1.6,0.7-2.5c0.7-1.1,1.1-2.3,1.8-2.9c0.9-0.9,0-2.9,1.8-3.4
		c1.1-0.2,2,0.5,3.2,0.9c0.5,0.2,0.9,0.2,1.4,0c2.9-1.6,5.4,0.5,7.9,1.1c0.5,0,0.7,0.5,0.9,0.7C879.5,116.4,879.9,116.6,879.5,117.5
		z M798.3,236.5v-0.2c0.9,1.8,0.5,3.2-0.7,4.5c0,0.2-0.2,0.2-0.5,0s-0.7-0.5-0.7-0.7c0.2-0.9,0.5-2,0.9-3.2
		C797.6,236.7,798,236.7,798.3,236.5z M796.5,246.7h0.5c0,0.5-0.2,0.7-0.2,0.9c0-0.2-0.2-0.2-0.2-0.5V246.7z M796.9,225.2
		c0-0.9-0.2-1.8,1.1-2C797.6,224,798,224.9,796.9,225.2z M798.5,244.4c0.2,0,0.2,0.2,0.7,0.5l-0.9,0.5c-0.2-0.2-0.5-0.2-0.9-0.5
		C797.8,244.6,798,244.4,798.5,244.4z M798.5,198.2c0,0-0.2-0.2-0.2-0.5c0.2-0.2,0.5-0.2,0.7-0.2l0.5,0.5
		C798.9,198,798.7,198.2,798.5,198.2z M800.5,234.7c0.5-0.5,0.7-0.2,0.9,0.2v0.5c-0.2,0.2-0.2,0.7-0.7,0.9h-2.5
		C798.7,235.1,800.1,235.3,800.5,234.7z M798.9,194.6c0-0.2-0.2-0.5-0.2-0.7v-0.7c0-0.5,0.2-0.9,0.5-1.6c0,0.7,0.2,1.1,0.5,1.4
		c0,0.5,0,0.7-0.2,0.9C799.4,194.2,799.2,194.4,798.9,194.6z M799.6,241.5l0.5-0.5c0,0.2,0.2,0.5,0.2,0.5
		C800.1,241.9,799.8,241.9,799.6,241.5z M800.1,250.7c0-0.2-0.2-0.2-0.2-0.5h0.7L800.1,250.7z M801.4,232c-0.2,0.2-0.5,0.5-0.7,0.5
		l-0.2-0.7c0.2-0.2,0.5-0.2,0.5-0.5L801.4,232z M802.6,256.2l-0.7,0.5c0.2-0.5,0-0.7,0.2-1.1c0-0.2,0.2-0.7,0.2-0.7
		C802.8,254.6,803,255.5,802.6,256.2z M802.8,194.6h-0.5c0-0.5,0.5-0.7,1.1-0.5c0,0,0,0.2,0.2,0.2
		C803.2,194.6,803,194.6,802.8,194.6z M802.3,198.2c0-0.2,0-0.5,0.2-0.7c0.2,0.2,0.5,0.5,0.5,0.7c0,0.2-0.5,0.5-0.5,0.7
		C802.3,198.7,802.3,198.5,802.3,198.2z M803.7,276.3c0.7-0.2,1.1-0.5,1.8-0.5c0.5-0.2,0.9-0.5,0.9-1.1c-0.2-2.3-0.2-4.8-2-6.3
		c-0.5-0.2-0.9-0.2-0.9,0.2c-0.2,1.4-1.1,2.7-0.5,4.3C803.5,274,803.5,275.2,803.7,276.3z M806.9,284.4c0-2-0.2-4.3-0.5-6.6
		c-0.9,1.1-2.3,1.8-1.4,2.9c0.9,1.1,0.5,2.7,0.9,3.6c0,0.2,0.2,0.5,0.5,0.5C806.6,284.9,806.9,284.7,806.9,284.4z M808.9,166.1
		c0,0,0-0.2-0.2-0.5c0,0.2-0.2,0.2-0.2,0.5l0.2,0.2L808.9,166.1z M809.8,150.3c-0.2,0.2-0.5,0.5-0.5,0.7c0,0.5,0.2,0.7,0.5,0.9
		V150.3z M814.8,148.3c0.2,0,0.2,0.2,0.5,0.2c0,0,0.2,0,0.2-0.2l-0.2-0.2C815,148,815,148,814.8,148.3z M815,163
		c0,0.5,0.2,0.7,0.5,1.1c0-0.2,0.2-0.2,0.2-0.5c0-0.2-0.2-0.7-0.2-1.1L815,163z M817.3,185.8c0-0.5-0.2-1.1-0.7-1.6l-0.9-0.7
		c-0.2,0.5-0.5,0.7-0.5,1.1c-0.2,0.2-0.2,0.7,0,1.1c0,0.2,0.2,0.7,0.5,0.9l0.9-0.7C817,185.8,817.3,185.8,817.3,185.8z M815.7,174.7
		c-0.2,0.5-0.5,0.7-0.5,0.9c0,0.5,0.5,0.9,0.9,0.9c0-0.5,0-0.9-0.2-1.4C815.9,175.2,815.7,174.9,815.7,174.7z M816.8,263.2
		c0,0.2,0.2,0.5,0.5,0.9c0-0.5,0.2-0.7,0.2-0.9c0-0.5-0.2-0.7-0.2-1.1C817,262.5,816.8,262.7,816.8,263.2z M817,274
		c0,0.2,0.2,0.5,0.2,0.9c0-0.2,0.5-0.5,0.5-0.7l-0.2-0.9C817.3,273.6,817,273.8,817,274z M818.2,186.3c-0.2-0.2-0.5-0.2-0.7-0.2
		C817.5,186.3,817.5,186.5,818.2,186.3z M819.1,270c0.2,0,0.5,0,0.7,0.2l-0.7,0.5V270z M826.1,183.1c-0.2-0.2-0.5-0.5-0.7-0.5
		c0,0.2,0,0.5-0.2,0.7c-0.5,0-0.5,0-0.7,0.2c0,0-0.2,0.2-0.2,0.5c0.2,0.2,0.5,0.5,0.7,0c0-0.2,0-0.5,0.2-0.7
		C825.4,183.3,825.6,183.1,826.1,183.1z M832.2,194.9l-0.5-1.1c-0.5-0.2-1.6,1.1-1.6,2c0,0.5,0.5,0.9,1.1,0.9
		C832.2,196.4,832.2,195.8,832.2,194.9z M832.2,168.4c-0.2-0.7,0-0.7,0.2-0.7C832.4,167.9,832.4,168.2,832.2,168.4z M832.9,167.5
		c0-0.7,0.5-1.1,0.9-1.1C833.8,166.8,833.3,167.3,832.9,167.5z M834,166.1v-1.4c0,0,0.2-0.2,0.5-0.2c0.2,0.2,0.5,0.2,0.5,0.5
		C834.9,165.7,834.5,166.1,834,166.1z M844.2,177.4c-0.2-0.2-0.5-0.7-0.5-0.9c-0.2,0.2-0.5,0.7-0.5,0.9c0,0.2,0.2,0.5,0.2,0.9
		C843.7,177.9,844,177.7,844.2,177.4z M846.4,172.7c-0.2-0.2-0.5-0.5-0.7-0.5c0,0.2-0.5,0.5-0.2,0.9c0,0.2,0.2,0.5,0.5,0.5
		C846.2,173.4,846.2,173.1,846.4,172.7z M852.8,162.1c-0.5-0.2-0.7-0.5-0.9-0.5c-0.5,0-0.7,0.2-1.1,0.5c0.5,0.2,0.7,0.5,0.9,0.5
		C852.1,162.5,852.3,162.3,852.8,162.1z M859.3,276.7h1.1c-0.2,0.2-0.2,0.5-0.5,0.9C859.8,277.2,859.6,277,859.3,276.7z
		 M865.7,141.5c-0.2,0-0.5,0.2-0.5,0.5c0,0,0.2,0.2,0.5,0.2V141.5z M865.4,277.2l0.2,0.5h1.4c-0.5-0.2-0.7-0.5-0.9-0.7
		C865.9,276.7,865.7,277.2,865.4,277.2z M867.3,277.9c0.7,1.1,0.7,1.1,2,0.9C869.3,277.4,868.2,277.9,867.3,277.9z M869.3,141.2
		l0.7,0.5C869.5,141.9,869.5,141.7,869.3,141.2z"/>
	<path class="st0" d="M902.8,284.7c-2.3-0.7-4.5-1.4-6.8-1.6c-1.6-0.2-2.9-1.4-4.1-2.3c-1.6-0.9-2.7-2.3-4.1-3.4
		c-0.9-0.7-1.8-1.1-1.4-2.3c0.2-0.5,1.1-1.1,1.6-1.8v0.2c0.5-0.5,0.9-0.9,1.1-1.4c0.5-4.3,1.1-8.6,1.1-12.9c0-4.3-0.5-8.6,0.7-12.9
		c0.5-2,0-4.3,0.2-6.6c0-2.7-0.2-5.4,0.7-8.1c0.7-2.5,0.2-5.4,0-8.1c0.2-0.2,1.1,0,0.5-0.9c0,0.2-0.2,0.7-0.5,0.9l-1.6,0.7
		c-0.2,0-0.5-0.2-0.5-0.7c-0.2-0.9,0.5-1.6,0.9-2c2-1.8,3.6-3.6,2.5-6.6c1.6-3.6,0.2-10.6,1.6-14.3c0.5-0.7-0.7-1.4-1.4-1.4
		s-1.4,0-1.8,0.2l-10.2,3.8c-0.9,0.5-1.8,0.5-2.7-0.5c-0.9-0.7-1.8-1.4-2.7-2.3c-0.7-0.7-0.9-1.6-0.9-2.7c0-0.9,0.5-1.6,0.2-2.7
		c-0.2-1.4,0.7-2.5,1.8-2.5c6.3,0.2,11.8-6.1,17.6-5.4c0.5,0,1.1-0.7,1.1-1.1c0.5-1.6,1.1-3.2,1.1-5c0-4.1-0.2-5.2,0.9-9
		c0.5-1.1-1.1-2.3-0.5-3.4c0.7-0.9,0.5-2.3,0.7-3.4c0.5-2-0.7-4.3,0.5-6.6c1.1-1.8-0.2-4.1,1.4-6.3c0.2-0.2,0.2-0.7,0.2-1.1
		c-0.2-4.3,0.9-8.6,1.1-12.9c0-2.5,1.1-4.8-0.2-7.2c-0.5-0.7,0.2-3.8,0.5-4.8c0-0.2,0-0.9-0.2-0.9c-0.5-0.2-1.1-0.5-1.6-0.2
		l-3.2,1.6c-2,0.9-3.4,3.4-5,1.8c-2.3-2-5,1.8-6.6,3.4c-1.1-0.9-2.7-0.7-4.3-1.6l-5-3.8c0.9-2,2.7-6.3,4.5-7l7.2-2.9
		c1.4-1.1,3.4,0.9,4.3-0.5c2-3.2,4.3-1.6,6.3-2.7c1.4-0.7,2.5,0.2,2.5-1.4c0-2,1.6-2.7,3.2-2.9c1.4-0.2,2.7-0.2,4.1,0.7
		c1.4,0.9,2.9,0,4.5-0.2l17.2-3.2c2.3-0.5,4.8,0,7-1.4c8.8-2,12.9-4.1,17-5.4c0.5-0.2,1.1,1.8,1.6,1.8c0.2,0,0.5,0.2,0.7,0.2
		c-0.7,1.4-1.6,3.6-2.9,4.3c-5,2.3-14.5,6.3-19.7,8.4c-1.8,0.7-3.6,0.7-5.4,1.4c-3.2,1.6-6.3,3.4-10,2c-0.7,0-1.4,1.1-2.3,1.8
		c-0.7,0.5-0.5,1.4-0.2,2c0.7,3.2,1.8,4.8,2,7.9c0.5,3.8,0.5,7.9,0.2,11.8c0,1.6-0.7,2.9-0.7,4.3v4.3c0,1.1-0.2,2.3-0.9,3.4
		c-0.2,0.7-0.2,1.6-0.2,2.3c0,1.6,1.1,3.4-0.7,4.8c0,0,0,0.5,0.2,0.5c2.9,1.1,0.7,2.9,0.2,4.3c-0.5,1.4-0.7,2.5,0,3.8
		c0.7,1.4,0.5,3.2,0.2,4.8c-0.2,0.7-0.5,1.4,0,2c0.5,0.9,0,1.8-0.9,1.8c-3.2,0.7-1.8,3.8-2.3,5.7c8.4,1.1,16.1-3.2,24.2-5
		c3.4-0.9,6.8-2.3,9.3-4.3c0.2-0.2,1.1-0.2,1.1,0c0.2,0.5,0.7,1.1,0.7,1.4c-0.5,1.1-0.7,2-1.6,2.7c-2.7,2.3-5.4,4.8-9,6.3
		c-8.6,3.2-16.3,8.8-24.4,10.2l-0.7,0.7l1.1,0.5c0.9,0.9-0.7,1.8,0.2,1.6c-1.6,3.8-1.6,8.1-2.9,12c-0.7,1.6-1.4,3.2,0,5
		c0.2,0.2,0,1.1-0.2,1.6c-0.5,1.1-0.7,2.3-0.7,3.4c0.2,0.7,0.9,1.6,0.7,2.3c-0.2,1.4-0.7,2.5-0.9,3.8c-0.2,0.5-0.9,0.9,0,1.4
		c0.5,0.2,0.9,0,1.6,0c0-0.2,0-0.2,0.2-0.2l2.9-2.3c0.2,2.3-0.9,4.1-0.7,6.1v5.2c0.2,3.2,0,3.2-3.4,4.5v3.4
		c-1.6,0.5-0.9,1.8-1.1,2.7c0,0.2,0.5,0.2,0.7,0.5c0.2-0.7,0.5-1.4,0.5-2v-1.1l3.4-2.3c0.2,5.7,0.5,11.3,0.2,16.7
		c0,1.1-0.7,2-0.9,3.2h-0.2c-0.7,0.5-1.1,0.2-0.5,1.1c0.2-0.2,0.5-0.9,0.5-1.1c1.4,0.5,0.9,1.6,1.4,2.5c-0.5,0-1.4-0.2-0.5,0.7
		c0.2,0.2,0.5-0.2,0.5-0.7v-0.2c2.9,0,5.4,0.7,8.4-0.2c4.3-1.6,8.8-2.9,13.6-3.8c4.5-1.1,9-2,13.8-2.5c2-0.5,4.3-0.9,6.3-1.6
		c1.4-0.7,2.5-0.5,3.8,0.2c1.1,0.2,2.5,0,2.7,1.6c0.5,2,0.2,4.1-1.8,5.2c-3.2,1.8-6.1,4.1-9.5,5.2c-1.4,0.5-2.5,1.1-3.8,1.8
		c-2.9,1.6-5.9,2.7-8.8,4.3c-2.7,1.8-5.9,2.5-8.6,3.8c-4.8,2.7-10,2-15.2,3.8c-3.6,1.4-7.2,1.6-10.6,3.6
		C903.9,285.1,903.2,284.9,902.8,284.7z M911.1,236.7c0.2-1.4,1.8-2.7,1.1-3.8c-1.1-1.6,0-2.9,0-4.3c0-0.9-0.2-1.6-0.9-1.6
		c-0.2,1.1-0.2,1.8-1.4,2.3c-0.5,0.2-0.9,0.7-0.9,1.4c-0.5,1.8,1.6,3.4,0,5.2c0,0,0,0.2,0.2,0.5c0.2,0.2,0.5,0.5,0.9,0.7
		C910.5,237.4,910.9,237.2,911.1,236.7z M909.6,239.2l-0.2,0.2c0.5,0.2,0.7,0.5,0.9,0.5C910,239.4,910.2,239,909.6,239.2z
		 M911.4,258c-0.5,0-0.7,0-0.2,0.7C911.4,258.4,911.4,258.2,911.4,258z M912.5,257.3c0.2-0.7,0-0.7-0.5-0.5
		c-0.2,0.2-0.2,0.5-0.2,0.7C912,257.5,912.3,257.5,912.5,257.3z"/>
</g>
<g>
	<path class="st0" d="M34.2,55.4l-3.8,15.9h-6.9L16.2,46h7.3l3.8,16.9L31.7,46h5L41,62.9L44.8,46h7.4L45,71.3H38L34.2,55.4z"/>
	<path class="st0" d="M71.4,61.1H60.8v10.2h-6.5V46h6.5v9.5h10.5V46h6.5v25.4h-6.5V61.1z"/>
	<path class="st0" d="M82.5,46H89v25.4h-6.5V46z"/>
	<path class="st0" d="M92.3,58.7c0-7.8,5.9-13.1,13.5-13.1c6.3,0,9.6,3.5,11.3,6.8l-5.6,2.7c-0.8-2-3-3.7-5.6-3.7
		c-4,0-6.9,3.2-6.9,7.3s2.9,7.3,6.9,7.3c2.6,0,4.8-1.7,5.6-3.7l5.6,2.7c-1.6,3.3-4.9,6.8-11.3,6.8C98.2,71.8,92.3,66.5,92.3,58.7z"
		/>
	<path class="st0" d="M137,61.1h-10.5v10.2h-6.5V46h6.5v9.5H137V46h6.5v25.4H137V61.1z"/>
	<path class="st0" d="M157.8,46h14.4c5,0,7.4,3.3,7.4,6.5c0,3.2-1.9,5.3-4.3,5.8c2.7,0.4,4.8,3,4.8,6.2c0,3.7-2.5,6.9-7.5,6.9h-14.8
		V46z M170.7,55.8c1.3,0,2.2-1,2.2-2.2s-0.9-2.2-2.2-2.2h-6.4v4.4H170.7z M171,65.9c1.6,0,2.5-1,2.5-2.3c0-1.3-0.9-2.4-2.5-2.4h-6.6
		v4.7H171z"/>
	<path class="st0" d="M183.7,46h6.5v25.4h-6.5V46z"/>
	<path class="st0" d="M203.1,61.8l-1.7,2.1v7.4h-6.5V46h6.5v10.4l7.8-10.4h8.1l-9.9,11.9l10.4,13.5h-8L203.1,61.8z"/>
	<path class="st0" d="M219.7,46h18.6v5.5h-12.1v4.2H238v5.6h-11.8v4.6h12.1v5.5h-18.6V46z"/>
	<path class="st0" d="M243.7,62.9c1.8,1.8,4.6,3.3,8.1,3.3c2.2,0,3.6-1,3.6-2.2c0-1.4-1.6-2-4.3-2.6c-4.2-0.8-10-1.9-10-7.9
		c0-4.3,3.6-8,10.1-8c4.1,0,7.6,1.2,10.3,3.5l-3.6,4.7c-2.1-1.7-4.9-2.6-7.2-2.6c-2.2,0-3,0.9-3,2c0,1.3,1.6,1.8,4.4,2.3
		c4.2,0.9,10,2.1,10,7.8c0,5.1-3.8,8.5-10.6,8.5c-5.1,0-8.7-1.6-11.3-4L243.7,62.9z"/>
	<path class="st0" d="M291.1,67.5h-10.5l-1.3,3.8h-7.1l9.5-25.4h8.2l9.6,25.4h-7.1L291.1,67.5z M282.3,62h7.1l-3.6-10.3L282.3,62z"
		/>
	<path class="st0" d="M311.3,62.7h-3.3v8.6h-6.5V46h12.7c5.6,0,8.8,3.7,8.8,8.4c0,4.4-2.7,6.8-5.1,7.6l5.2,9.3h-7.5L311.3,62.7z
		 M313.1,51.5h-5.2v5.7h5.2c1.7,0,3.2-1.1,3.2-2.9S314.8,51.5,313.1,51.5z"/>
	<path class="st0" d="M326.5,46h18.6v5.5h-12.1v4.2h11.8v5.6h-11.8v4.6h12.1v5.5h-18.6V46z"/>
	<path class="st0" d="M364.4,51.7h-7.1V46H378v5.7h-7.1v19.7h-6.5V51.7z"/>
	<path class="st0" d="M398.2,61.1h-10.5v10.2h-6.5V46h6.5v9.5h10.5V46h6.5v25.4h-6.5V61.1z"/>
	<path class="st0" d="M409.3,46h18.6v5.5h-12.1v4.2h11.8v5.6h-11.8v4.6h12.1v5.5h-18.6V46z"/>
	<path class="st0" d="M441.4,46h14.4c5,0,7.4,3.3,7.4,6.5c0,3.2-1.9,5.3-4.3,5.8c2.7,0.4,4.8,3,4.8,6.2c0,3.7-2.5,6.9-7.5,6.9h-14.8
		V46z M454.3,55.8c1.3,0,2.2-1,2.2-2.2s-0.9-2.2-2.2-2.2H448v4.4H454.3z M454.6,65.9c1.6,0,2.5-1,2.5-2.3c0-1.3-0.9-2.4-2.5-2.4H448
		v4.7H454.6z"/>
	<path class="st0" d="M467.3,46h18.6v5.5h-12.1v4.2h11.8v5.6h-11.8v4.6h12.1v5.5h-18.6V46z"/>
	<path class="st0" d="M491.3,62.9c1.8,1.8,4.6,3.3,8.1,3.3c2.2,0,3.6-1,3.6-2.2c0-1.4-1.6-2-4.3-2.6c-4.2-0.8-10-1.9-10-7.9
		c0-4.3,3.6-8,10.1-8c4.1,0,7.6,1.2,10.3,3.5l-3.6,4.7c-2.1-1.7-4.9-2.6-7.2-2.6c-2.2,0-3,0.9-3,2c0,1.3,1.6,1.8,4.4,2.3
		c4.2,0.9,10,2.1,10,7.8c0,5.1-3.8,8.5-10.6,8.5c-5.1,0-8.7-1.6-11.3-4L491.3,62.9z"/>
	<path class="st0" d="M518.3,51.7h-7.1V46h20.7v5.7h-7.1v19.7h-6.5V51.7z"/>
	<path class="st0" d="M544.8,46h14.4c5,0,7.4,3.3,7.4,6.5c0,3.2-1.9,5.3-4.3,5.8c2.7,0.4,4.8,3,4.8,6.2c0,3.7-2.5,6.9-7.5,6.9h-14.8
		V46z M557.7,55.8c1.3,0,2.2-1,2.2-2.2s-0.9-2.2-2.2-2.2h-6.4v4.4H557.7z M557.9,65.9c1.6,0,2.5-1,2.5-2.3c0-1.3-0.9-2.4-2.5-2.4
		h-6.6v4.7H557.9z"/>
	<path class="st0" d="M586.9,67.5h-10.5l-1.3,3.8h-7.1l9.5-25.4h8.2l9.6,25.4h-7.1L586.9,67.5z M578,62h7.1l-3.6-10.3L578,62z"/>
	<path class="st0" d="M603.7,56v15.3h-6.5V46h6.7l10.3,14.6V46h6.6v25.4h-6.3L603.7,56z"/>
	<path class="st0" d="M637.7,45.5c5.6,0,9,2.7,10.8,5.9l-5.5,2.9c-1-1.7-3-3-5.4-3c-4.1,0-7.1,3.2-7.1,7.3s2.9,7.3,7.1,7.3
		c2,0,3.8-0.7,4.8-1.5v-2.1h-5.8v-5.4H649v9.9c-2.7,3-6.4,4.9-11.2,4.9c-7.6,0-13.7-5.1-13.7-13.1S630.2,45.5,637.7,45.5z"/>
	<path class="st0" d="M662.5,46h18.6v5.5h-12.1v4.2h11.8v5.6h-11.8v10.1h-6.5V46z"/>
	<path class="st0" d="M697,45.5c7.8,0,13.5,5.4,13.5,13.1s-5.8,13.1-13.5,13.1s-13.6-5.4-13.6-13.1S689.2,45.5,697,45.5z M697,51.3
		c-4.2,0-6.9,3.2-6.9,7.3c0,4.1,2.7,7.3,6.9,7.3c4.2,0,6.9-3.2,6.9-7.3C703.8,54.5,701.1,51.3,697,51.3z"/>
	<path class="st0" d="M723.7,62.7h-3.3v8.6h-6.5V46h12.7c5.6,0,8.8,3.7,8.8,8.4c0,4.4-2.7,6.8-5.1,7.6l5.2,9.3H728L723.7,62.7z
		 M725.5,51.5h-5.2v5.7h5.2c1.7,0,3.2-1.1,3.2-2.9S727.2,51.5,725.5,51.5z"/>
	<path class="st0" d="M755.6,61.1L746,46h7.4l5.5,9.4l5.4-9.4h7.4l-9.6,15.1v10.2h-6.5V61.1z"/>
	<path class="st0" d="M784.4,45.5c7.8,0,13.5,5.4,13.5,13.1s-5.8,13.1-13.5,13.1s-13.6-5.4-13.6-13.1S776.6,45.5,784.4,45.5z
		 M784.4,51.3c-4.2,0-6.9,3.2-6.9,7.3c0,4.1,2.7,7.3,6.9,7.3c4.2,0,6.9-3.2,6.9-7.3C791.3,54.5,788.6,51.3,784.4,51.3z"/>
	<path class="st0" d="M801.2,46h6.7v14.9c0,3,1.6,5.2,5.1,5.2c3.5,0,5.1-2.2,5.1-5.2V46h6.7V61c0,6.3-3.6,10.8-11.8,10.8
		s-11.8-4.5-11.8-10.7V46z"/>
	<path class="st0" d="M839.2,62.7h-3.3v8.6h-6.5V46h12.7c5.6,0,8.8,3.7,8.8,8.4c0,4.4-2.7,6.8-5.1,7.6l5.2,9.3h-7.5L839.2,62.7z
		 M841.1,51.5h-5.2v5.7h5.2c1.7,0,3.2-1.1,3.2-2.9S842.8,51.5,841.1,51.5z"/>
	<path class="st0" d="M864.2,46h14.4c5,0,7.4,3.3,7.4,6.5c0,3.2-1.9,5.3-4.3,5.8c2.7,0.4,4.8,3,4.8,6.2c0,3.7-2.5,6.9-7.5,6.9h-14.8
		V46z M877.1,55.8c1.3,0,2.2-1,2.2-2.2s-0.9-2.2-2.2-2.2h-6.4v4.4H877.1z M877.4,65.9c1.6,0,2.5-1,2.5-2.3c0-1.3-0.9-2.4-2.5-2.4
		h-6.6v4.7H877.4z"/>
	<path class="st0" d="M890.1,46h6.7v14.9c0,3,1.6,5.2,5.1,5.2c3.5,0,5.1-2.2,5.1-5.2V46h6.7V61c0,6.3-3.6,10.8-11.8,10.8
		s-11.8-4.5-11.8-10.7V46z"/>
	<path class="st0" d="M916.9,58.7c0-7.8,5.9-13.1,13.5-13.1c6.3,0,9.6,3.5,11.3,6.8l-5.6,2.7c-0.8-2-3-3.7-5.6-3.7
		c-4,0-6.9,3.2-6.9,7.3s2.9,7.3,6.9,7.3c2.6,0,4.8-1.7,5.6-3.7l5.6,2.7c-1.6,3.3-4.9,6.8-11.3,6.8C922.9,71.8,916.9,66.5,916.9,58.7
		z"/>
	<path class="st0" d="M952.8,61.8l-1.7,2.1v7.4h-6.5V46h6.5v10.4l7.8-10.4h8.1l-9.9,11.9l10.4,13.5h-8L952.8,61.8z"/>
	<path class="st0" d="M975.5,54.8c1-0.6,1.7-1.2,1.7-2c0-0.8-0.6-1.5-2.2-1.5c-1.4,0-2.9,0.8-4,2l-3.7-4.2c2.1-2.4,5.2-3.6,8.4-3.6
		c5,0,8.1,2.4,8.1,6.1c0,3.2-1.9,4.6-3.6,5.9c-1.2,0.9-2.3,1.6-2.3,2.9c0,0.6,0.3,1.2,0.6,1.5l-5.1,1.3c-0.7-0.9-1.2-2.1-1.2-3.5
		C972.3,57.1,974.1,55.8,975.5,54.8z M975.8,64.6c1.9,0,3.6,1.6,3.6,3.6c0,1.9-1.6,3.6-3.6,3.6c-1.9,0-3.6-1.6-3.6-3.6
		C972.2,66.3,973.8,64.6,975.8,64.6z"/>
</g>
</svg>
