<?xml version="1.0" encoding="utf-8"?>
<!-- Generator: Adobe Illustrator 19.2.1, SVG Export Plug-In . SVG Version: 6.00 Build 0)  -->
<svg version="1.1" id="Layer_1" xmlns="http://www.w3.org/2000/svg" xmlns:xlink="http://www.w3.org/1999/xlink" x="0px" y="0px"
	 viewBox="0 0 1000 350" style="enable-background:new 0 0 1000 350;" xml:space="preserve">
<style type="text/css">
	.st0{fill:#FFFFFF;}
</style>
<g>
	<path class="st0" d="M231.9,296.5c-0.2-0.5-0.7-1.1-0.5-1.8c0.9-3.8-1.6-6.8-3.4-9.7c-0.7-1.1-0.5-2,0.7-2.5
		c0.2-0.2,0.5-0.2,0.5-0.5c0-0.5-0.2-0.7-0.2-1.1c-0.7-2.9-2.7-10.6-2.7-13.8c0-2.9-2-5.4-1.8-8.1c0-0.5,0-1.4-0.2-1.8
		c-1.4-1.8,0-4.8-1.4-6.1c-1.4-2.3,0.5-3.6,0.5-5.7c0-1.8-0.2-3.8-0.2-5.7c-0.2-0.2-0.7-0.5-0.9-0.5h-0.2c0,0,0,0.2-0.2,0.5
		c-0.2,0.2,0,1.1-1.1,0.7c-1.1-0.9-2.5-0.7-3.8-0.5c-8.1,2.7-16.7,3.2-25.1,4.1c-1.4,0-2,0.9-2.7,2.3c-0.9,3.4-2.3,7-2.7,10.4
		c-0.5,2.9-0.2,4.3-2.3,6.1c0,0.9,0.2,1.8,0.2,2.7c0,2.7-0.9,5.7-1.4,8.8c-0.7,1.8-1.8,3.8-2.3,5.9c-0.2,2.3-0.9,4.1-1.1,6.3
		c-0.5,2.3-2.3,3.2-4.3,3.4c-1.1,0-3.2-0.5-4.3-0.2c-2.3,0.2,2.5-18.1-3.4-1.6c-0.9-1.4-2.3-3.6-1.4-4.8c1.8-2.3,1.4-5.4,2.3-7.9
		c0.7-3.2,0.9-6.3,1.4-9.5c0.2-0.5,0-0.9,0.2-1.4c2.9-4.3,1.4-8.4,3.4-12.7c1.1-2.3,0.2-4.3,1.4-6.3c0.7-1.4,0.5-2-1.1-2.3
		c-3.6-0.5-5.7-3.4-7.5-6.6c-0.5-0.5,0-0.9,0.5-1.1c0.5,0,1.1-0.2,2-0.2c1.6,0,2.9,0.2,4.3,0.2c4.3,0,5.4-0.5,5.9-4.3
		c0.5-5.7,2.5-10.6,3.6-15.6c1.1-5,2.7-9.7,2.5-14.5c0-1.1,0.2-1.8,0.9-2.7c1.6-4.8,2.7-9.7,4.1-14.7c0.5-2.9,1.1-5.9,1.6-8.8
		c0.7-4.3,2.5-7.9,3.2-12c0.7-3.6,1.8-7.5,2.9-10.6c0.9-2.7,0.5-5.4,1.4-7.7c1.1-2.5,1.8-5,1.6-7.5c-0.2-0.5,0-0.9,0-1.4
		c0.5-1.4,1.4-2.5,1.8-3.4c0.5-1.1,0.2-2.5,0.9-3.2c0.9-1.6-0.2-2.5,0.2-3.6c0.7-1.1,0.9-2.3,1.6-3.4s-0.7-1.8-0.2-3.2
		c0.7-1.4,0.7-3.4,1.4-4.8c0.7-1.8,0.2-3.4,0.5-5c0-0.7,0.2-1.4,0.7-1.8c1.1-1.6,2.7-2.5,3.4-4.5c0.5-0.7,0.9,0.5,1.1,0.9
		c0.2,0.9,0.9,0.7,1.1,0c1.1-0.7,1.6-1.8,1.6-2.9c0-1.4,0.7-1.1,1.6-0.9c0.5,0.2,1.4,0.2,1.8,0c1.6-0.7,3.6-0.7,5.7-0.9
		c0.5,0,6.3-0.9,6.6-0.5c0.7,1.6,2.3,2.9,1.8,4.8c-0.2,1.4-1.4,2.7-0.7,4.3c1.1,1.6-0.7,2.9,0.7,4.3c0.2,0.2,0.2,0.7,0.5,1.1
		c0.7,7,1.6,13.6,1.8,20.4c-0.2,3.4-0.7,6.8,0.9,9.7c0.5,0.7,0.5,1.1,0,1.4c-1.8,4.1,0,8.6-1.8,12.7c-0.2,0.2,0.2,1.4,0.5,2
		c0.7,1.4,0.5,2.7,0,4.3c-0.7,1.4-0.9,3.6-0.2,5c1.8,3.6,0.7,7.7,1.1,11.5c0.2,2.3-1.6,3.8-0.9,6.3c0.2,1.6,1.4,3.2,0.9,5.2
		c-0.2,1.4-0.2,2.9-2.7,4.1c-0.7,1.6-0.7,3.6,0.2,5.7c0,0.2,0.5,0.7,0.7,0.9c-0.5,1.1-0.7,2.3-1.1,3.6h-0.5l-0.9,0.2
		c0,0.2,0.2,0.7,0.2,0.7c0.7,0,0.7-0.5,0.7-0.9c1.1,0.2,1.8,0.9,1.4,1.6c-0.9,1.6-0.5,2.5,0.9,3.4c0.7,0.5,1.1,1.6,0.5,2
		c0.9,1.4,2.5,3.2,2,5.2c-0.5,1.4,1.1,2.7,1.1,4.5c1.4,0.7,5.4,1.1,4.5,2.3c2,0.7,1.4,0.7,0.7,2c-0.2,1.1-0.7,2.5-2,3.4
		c-1.1,0.7-4.3,1.4-5.4,2c0.7,1.4,1.1,2.5,1.1,3.8c0,0.7,0,2,0.5,2.5c3.6,1.8,3.2,4.1,3.4,6.3c0.5,1.6-1.6,2.5-0.2,4.3
		c0.5,1.1,0.5,2.7,0.9,4.3c0.2,1.1,0,1.4-0.9,1.8c-1.1,0.5-3.4,2.3-2.9,2.7c4.1,0.9,3.6,2,3.8,3.6c0,1.4,0.9,2.5,1.1,4.1
		c0.2,1.4,0.9,2.5,1.1,4.3c-0.2,1.6,0.9,8.1,0.9,9.5c-0.5,0-0.7-0.2-0.9-0.2c-0.5-0.5-1.1-0.9-1.1,0.2c-0.2,0.7,0,1.6,0.2,2.5
		c1.4,3.2,1.6,6.8,3.2,10.2c-0.7,1.8,0,3.4,0,4.8c-0.2,1.6-1.8,2.3-2.9,1.8C240,298,233,298.5,231.9,296.5z M200,227.7
		c3.6-0.9,7.2-2.5,10.9-2c1.6,0.2,2.9-1.4,5-0.9c1.6,0.5,3.6-0.5,5.4-0.9c-0.7-2-2.3-3.4-2.3-5.7c-0.5-1.8,0-3.8-1.1-5.2
		c-0.2-0.2,0-0.9,0.2-1.1c2-2,1.1-4.1,0.5-5.9c-0.7-1.6-1.1-3.2-1.1-5c0-3.6-0.2-7.5-0.7-11.1c0-1.1,0.5-2.5-0.2-3.6
		c-2-5,0-10.4-2-15.4c-0.2-0.7,0.9-2,0.5-2.9c-1.4-4.5-0.7-9.3-1.1-13.6c-0.2-2.5-1.1-5.2-2-8.4l-3.2,11.8c-0.9,2.5-1.1,4.8-1.4,7.5
		c-0.5,2.7-0.9,5-0.9,7.7c0.2,2.3-0.2,4.5-1.6,7c-0.9,1.1-0.9,2.5-0.9,4.1c0,1.8,0.5,4.3-0.2,5.7c-1.1,3.2-2,6.6-2.9,10
		c-0.5,2.9-7,10.4-4.5,10c4.1-0.9,0.7,4.5-0.2,7.9c-1.1,3.6-1.8,7.7-2.9,11.5C195.4,228.4,197.9,228.1,200,227.7z M225.5,252.1
		c0-0.5-0.2-0.5-0.5,0l0.2,0.2C225.5,252.3,225.5,252.1,225.5,252.1z M226.6,260.9h-0.2c0,0.2-0.2,0.7,0,0.9
		c-0.5,0.5,0.2,0.7,0.2,0.7C227.1,262.5,227.3,261.4,226.6,260.9z M229.4,205.3c0.2,0.2,0.5,0.2,0.7,0.2
		C230,205.1,230,204.8,229.4,205.3z M230.9,215.2l-0.2,0.2c0,0.9,0.2,0.9,0.5,0.2C231.6,215.5,231.2,215.5,230.9,215.2z
		 M231.6,220.9c-0.5-0.2-0.5-0.5-0.7-0.5l-0.2,0.2c0,0.2,0,0.2,0.2,0.5C230.9,220.9,231.2,220.9,231.6,220.9z M233.9,286.5
		c0-0.2-0.5-0.7-0.7-0.9c0,0.2-0.7,0.2-0.5,0.5l0.2,1.1C233.2,286.7,233.9,286.7,233.9,286.5z M241.1,271.3l0.2-0.9
		c0-0.9-0.5-1.4-0.5-2l-0.7,1.8c0.2,0.5,0.2,0.7,0.2,1.1c0,0.2,0.2,0.2,0.5,0.5C240.9,271.6,241.1,271.6,241.1,271.3z"/>
	<path class="st0" d="M328.9,197.8c-0.7,1.6-0.5,3.6-0.5,5.7c0.5,2.3-1.4,4.1-1.4,6.3c0,2,0.2,4.1-0.7,6.1c-0.9,1.8-1.1,4.3-4.1,6.3
		c2,0.9,1.6,1.8,1.1,2.7c-0.7,1.6-1.8,2.9-2,4.3c0,1.4-0.2,2.5-2.3,4.3c-0.7,0.9-1.6,1.8-1.4,3.4c0.2,0.7-0.5,1.6-0.9,2.5
		c-0.2,1.1-0.2,3.2-1.1,3.6c-2,1.1-1.8,3.2-3.8,4.5c-0.9,1.6-0.9,4.1-1.8,5.7c-2,4.3-3.4,8.6-7.2,11.5c-1.1,1.4-1.4,3.6-2.7,4.8
		c-1.1,1.1-2.9,2-4.1,3.8c-0.7,1.1-1.1,2.5-1.6,3.6c-0.2,0.5-0.5,1.4-0.7,1.6c-2.5,0.9-2.7,3.4-3.8,5.2c-1.6,2-2.9,4.1-5.2,5.9
		c-1.6,0.9-3.2,2.5-4.1,4.3c-0.7,1.1-1.6,2.5-3.2,3.2c0-0.7-0.2-1.4-0.2-1.8c0.7-3.6,1.4-7.7,3.4-10.9c0.7-1.4,0.7-2.7,1.1-4.3
		c0.7-1.1-1.1-2-2.3-1.8c-0.2,0-0.5,0.2-0.5,0.2c-1.8,0.7-3.6,0.5-5.4,1.4c-4.3,1.1-6.1-0.2-7.9-1.4c-0.5-0.2-0.9-0.9-0.9-1.4
		c0-3.4-2-6.6-2.5-9.7c-0.2-0.7-0.7-1.1-0.2-1.8c0.5-1.1,0.9-2.3,1.1-3.4c-1.6-2,0-4.8-1.1-7c-1.4-1.8,0-4.3-1.4-6.6
		c-0.7-0.5,0-1.4,0.5-2c1.1-1.1,1.6-2.3,1.4-3.8c-0.2-1.4-0.9-2.5-0.9-3.4c0.2-1.1,0.9-2.3,0.9-3.4c0-1.4,0.2-2.7-0.7-3.6
		c-0.2-0.5-0.5-1.4-0.2-1.6c1.6-1.8,0.9-3.8,0.7-6.1c0-1.4-1.4-2.5-0.7-3.8c0.5-1.6-0.2-3.4,0.5-4.5c1.1-1.6-0.9-2.5,0-3.8
		c0.7-1.1,0.2-2.5-0.2-3.6c-0.5-0.9,0-1.6,0.2-2.3c0.7-1.1,2.5-0.9,2.5-2.3c0-0.9-0.9-2-0.9-2.9c-0.2-1.6,0-3.2,0.2-4.8
		c0.2-2.7-1.8-4.5-1.4-7c0.2-2.5,0.5-4.8,0-6.8c-0.5-2-0.7-4.1,0.7-5.7c1.8-1.8,0.5-4.1,1.1-6.1c0.5-0.9-0.5-1.1-0.9-1.4
		c-0.7-0.5-1.1-1.1-0.7-2c0.7-1.6,0.2-2.9,0-4.8c-0.2-1.4-0.5-2.7,0.5-3.8c0.7-1.1,0-1.8-0.2-3.2c-0.2-1.6,0-3.2-0.2-5
		c1.6-1.1,0-3.2,0.7-4.5s0.2-2.9,0.2-4.5V139c-0.7-0.2-1.1-0.7-1.1-1.6c-0.5-1.8,1.4-3.2,1.1-5.2c-0.2-1.8-1.6-3.4-1.1-5.2
		c0.2-0.9,0-2.3,0-3.2c-0.2-1.4,0.5-2.9-0.7-3.8c-1.8,0.5-4.3,0.2-5.4,2c-0.9,1.8-0.5,2.3-1.8,3.4c-0.5,0.2-0.9,0.5-1.1,0.2
		c-1.6-1.6-3.2,0.7-4.8,0c-0.9-0.7-1.8-1.4-2-2.3c-0.2-1.6-0.9-2.5-2.3-3.2c-1.1-0.7-1.8-1.8-1.6-3.2h-0.2c0.9-0.2,1.4-0.5,1.4-1.1
		c-0.2-0.7-0.7-1.4-0.7-2.3c-0.5-0.7,0.2-1.1,0.7-1.1c0.7-0.2,1.4-0.2,1.8-0.2c4.3,0.5,8.4-0.7,12.4-1.6c4.3-1.4,6.6-4.3,11.1-4.1
		c2.9,0.2,8.4-2.9,11.3-2.7c4.1,0.5,6.6-2.9,10.6-2.3c6.8,1.1,12.2-2.5,18.5,0.5c3.8,1.6,7.7,2.7,10.9,5c2.9,2,5.7,4.5,6.6,7.9
		c0.9,2.3,2,14.3-0.2,16.7c-0.7,0.7-0.7,2-1.1,2.9c-0.2,0.9-0.5,2-1.1,2.5c-2.9,2.9-2.3,7.5-6.1,9.5c-1.4,0.7-2.5,2-2.9,3.2
		c-1.8,3.4-5,5.4-7.9,8.1c-2.7,2-5.2,4.3-7.5,6.8c-0.7,0.7-1.6,1.6-2,2.3c-1.6,3.4-3.8,6.3-5.7,9.3c-0.2,0.5-0.5,0.7,0,0.9
		c0.2,0.5,0.7,0.9,0.9,0.7c6.3-1.4,12.7-0.7,18.8-0.7c2,0,3.6,0.5,5.2,1.6c0.5,0.5,0.9,0.9,1.6,0.9c2.3,0.5,3.6,1.8,4.5,3.6
		c1.6,2.7,5.2,5.4,4.8,8.6C328.2,194,329.8,195.8,328.9,197.8z M264.4,138.3c-0.2,0.2-0.5,0.5-0.5,0.7
		C264.4,139,265.1,139,264.4,138.3z M266.5,152.6l-0.7-0.7c-0.2,0.9-0.2,1.8-0.2,2.7v1.4c0,1.4,0,2.9-0.7,4.5
		c-0.2,0.2-0.2,2.9,0.5,2.9c0.2,0,0.7-1.4,1.6-5.7C267.1,156.2,267.1,153.9,266.5,152.6z M265.1,125.9c0,2.7,0.2,5,0.5,7.7
		c0,0.7,0.5,2,0.7,1.6c0.5-0.9,0.5-1.6,0.5-2.3c0-0.9-0.2-2-0.2-3.4c0-1.6,0-3.2-0.9-3.6H265.1z M266.5,138.3l-0.5-0.9
		c0,0.7-0.9,3.8-0.7,4.1C267.4,144.4,266.7,139.2,266.5,138.3z M279.6,112.3c-0.2-0.2-0.2-0.5-0.5-0.5c-0.2-0.2-0.5,0-0.2,0.2
		C279.1,112.3,279.1,112.3,279.6,112.3z M315.8,197.8l0.5-0.7c-0.5-1.1-0.9-2.5-1.6-3.4c-2,0.7-2-0.7-2-1.8V189
		c-0.2-2.3-1.8-3.8-3.2-5c-1.1-0.9-2.9-0.9-4.8-1.4c-2.7,1.4-5.9,0.2-8.8,1.1c-2.7,0.9-5.4,0.7-8.4,0.9c-1.6,0.2-3.4-0.2-4.5,0.5
		c-2,1.1-0.5,3.4-0.7,5.2c-0.5,0.5-0.5,1.1-0.7,1.6c-1.1,1.1-0.2,2.9-0.9,4.1c-1.1,1.6,0.2,2.7,0.2,3.8v1.8
		c-0.7,5.7,0.9,11.3-0.9,17c1.8,3.8,0.5,7.9,0.9,11.8c0.2,2.7,0.2,5.4-0.9,7.9c-0.7,1.1-0.7,2.7,0.5,4.1c1.4,1.4,1.4,2.5,0.7,4.3
		c-0.5,1.1,0.7,2.9,0.5,4.1c0,1.6-0.7,2.9,0,4.5c0.7,1.4-0.2,3.4-0.5,5c1.8,1.1-0.2,2.7,0.2,4.3c0.9,1.4,0.9,2.9,0.9,4.3
		c0.2,1.6,0.2,2.9,0.2,5c0.9-1.4,1.6-2.7,2.7-3.2c1.8-0.7,2.7-2,3.4-3.8c0.9-2,2.5-3.8,3.2-5.9c0.7-2.5,2-5,1.4-7.5
		c0.2-0.2,0.5-0.2,0.5-0.2c1.8-3.2,3.8-6.3,5.7-9.7c1.4-2.9,2.5-5.9,3.6-8.6c0.2-0.7,0-1.8,0-2.5c0.5,0,0.9-0.2,0.9-0.7
		s-0.5-0.7-0.9-0.5v1.1c-0.5,0-0.9-0.2-0.7-0.9c0-0.2,0.5-0.2,0.7-0.5v0.2c0-1.1,0-1.1,1.6-1.6c1.8-0.7,2.9-2,3.2-3.4
		c0.2-2,0.7-3.6,2-5c0.5-0.2,0.5-0.9,0-0.9c-2-0.5-0.9-1.6-0.7-2.7l1.4-3.4c0.5-1.1,0.7-2.3,0.7-3.8c2.3-0.2,0.7-1.8,0.9-2.5
		c0.9-1.8,1.4-3.8,1.8-5.9c0-0.2-0.5-0.7-0.9-0.9c-0.5-1.1,0.9-1.8,1.1-2.7C314.2,197.6,314.9,197.4,315.8,197.8z M279.8,112.5
		c0.2,0.7,0.7,1.4,0.7,2c0,4.1,1.4,12.2,2,16.1c0,2.7,0.9,4.8,0.7,7.5c0-0.2-0.2-0.5-0.5,0.2c-1.1,1.8,0.9,3.6,0.7,5.4
		c-0.2,0.9-0.2,2-0.7,2.9c-0.9,1.6-0.5,3.6-0.5,5.4c-0.5,2,0.2,4.3-0.5,6.1c-0.7,1.8,0,2.9,0.9,4.5c2.3-2.5,4.5-4.8,6.8-7
		c1.4-1.1,2.7-2,2.5-4.1c1.6-2.7,2.3-6.3,5.9-8.1c0.9-0.5,1.6-1.1,2-2c-0.7-2.7,0.7-4.8,2.7-6.8c1.1-1.1,2-2.3,0.7-3.6l2.5-4.5
		c0.7-1.8,1.6-13.1,0.7-14.9c-0.9-1.6-2.5-1.4-3.8-1.6c-0.2-0.2-0.5-0.2-0.5-0.7c-4.1-2.5-4.1,1.8-8.6,0.2
		C290,108.3,283.9,112.1,279.8,112.5z M281.4,238.8c0,0.2,0.2,0.2,0.2,0.5l-0.2,0.2c-0.2,0-0.5-0.2-0.5-0.2L281.4,238.8z
		 M304.7,226.8c0.2,0,0.5,0.2,0.5,0.2c-0.5,0.7-0.7,0.5-0.9,0L304.7,226.8z M312.4,214.8c0,0-0.2-0.2-0.2-0.5
		c-0.2,0.2-0.5,0.2-0.5,0.5c0,0.5,0,0.7,0.2,1.1h0.2C312.4,215.5,312.4,215.2,312.4,214.8z M316,205.1c0-0.2-0.2-0.2-0.2-0.2
		c-0.2,0.5-0.5,0.7-0.5,1.1c0,0,0.2,0.2,0.5,0.2C316.2,206.4,316.4,205.5,316,205.1z M315.5,200.1l0.2,0.2c0.2,0,0.2-0.2,0.5-0.2
		C316,199.6,315.8,199.6,315.5,200.1z"/>
	<path class="st0" d="M375,284.2c-1.1-0.7-1.8-1.6-2.7-2.3c-1.8-1.4-3.2-2.7-5.2-3.6c-1.6-1.1-2.9-2.7-4.5-3.8
		c-1.6-1.1-2.7-2-3.2-4.1l-0.9-1.4c-2-0.7-2.7-2.7-3.6-4.3c-1.6-4.1-5.7-8.1-7.7-12.2c-0.9-1.8-1.4-3.4-1.8-5.7
		c-0.7-3.6-2.3-7.5-3.4-11.1c-0.7-1.8-1.1-3.8-1.6-5.7c-0.2-1.8-0.7-3.6,0.5-5.2c0.7-0.9,0.5-1.8-0.2-2.5c-2.5-3.6-2.3-7.9-0.9-12
		c0.2-0.5,0.5-1.1,0.2-2c-0.2-0.9-0.7-1.8-0.9-2.9c-0.5-1.1,1.1-1.8,0.2-2.9c-0.9-1.4-0.5-2.9,0-4.3c0-1.1,0.2-2.7-0.2-3.6
		c-0.5-2,0-4.1,0-5.9c0-2-1.4-4.1-0.7-6.3c1.1-3.6,1.4-7.7,3.4-11.3c0.7-0.9,0.7-1.6-0.7-2.3c-0.2,0-0.5-0.5-0.5-0.7
		c0-1.6-0.5-3.2,0.7-4.8c0.7-0.7,1.4-1.8,1.6-3.2c0.7-0.9,0.9-2,0.5-2.9c1.8-6.3,2.7-12.7,5.2-18.3c0.5-1.1,0.7-2.5,1.1-3.6
		c0.5-2,1.6-3.8,2.9-5.4c1.4-2,2.9-4.3,3.4-7c0.5-2.5,4.3-4.8,5.2-7c0.5-0.5,0.7-0.9,1.4-0.7v0.9c0.2,0.5,0.2,0.7,0.5,0.7
		c0.2,0.2,0.5,0.2,0.7,0c0.9-0.7,1.1-1.6,1.4-2.7v0.2c0.7-0.5,0.9-1.4,1.1-2.3H366c0.7-0.5,0.7-0.5,0-1.1l0.2,0.2
		c0-1.1,0.9-1.6,1.6-2c5.7-1.6,10.6-3.8,15.8-6.6c2.9-1.4,5.7-1.8,8.4-2.5c1.1-0.2,1.8,0,2.9-0.7c0.5-0.2,1.1-0.2,1.4,0
		c2.3,1.4,4.8,0.9,7,1.4c1.6,0.7,2.9,1.4,4.5,2.3c2.7,0.2,2.9,0.9,3.2,1.1c3.2,5.2,5.7,10.4,6.1,16.1c0.2,2.5,0,5.2-0.2,7.7
		c-0.5,2.7,1.6,2.7,0.7,5.2c0.5,0.9,0.9,1.1,1.8,1.1c1.1-0.2,1.6,0.5,1.8,1.4c5,1.6,5.7,2.5,6.3,3.8c2.9,0.9,2.9,2,3.4,3.2
		c0,0.2,0,0.5,0.5,0.5h-0.2c0,0.9,2.5,1.4,2.5,2.7c0,2.7,0.7,5.9,3.6,6.6c0.9,0.2,0.9,0.9,0.9,1.8c-0.2,1.1-0.2,2.5,0.2,3.6
		c0.7,1.8,0.9,3.8,2.7,5v0.9c-1.6,2.3-0.2,3.6,0.9,5.2c0.7,1.4,0.9,2.5,0.7,4.3c-0.2,1.6-0.2,2.9,0.9,4.5c0.5,0.2,0.9,1.1,0.7,1.6
		c-1.1,1.8-0.9,3.8-0.2,5.7c0,0.9-0.2,1.6-0.5,2.5h0.2c-1.6,0.5-2,1.6-1.4,2.5c0.9,1.6,0.7,3.2,0.7,4.8c0,1.4,0.9,2.5,0,3.8
		c-0.5,0.7-0.2,1.6-0.5,2.5c-0.5,1.6,0.9,2.9,0.5,4.5c-0.5,1.6-1.4,2.9-1.4,4.5c0,1.8-0.7,3.4-0.7,5c0,2.5,0,5-1.1,7.5
		c-0.5,0.7-0.7,1.4-0.7,2c0,2-0.7,4.1-0.5,6.1c-0.2,1.8-1.1,3.4-0.7,5c-1.1,1.6-0.2,4.3-2.5,5.4c-0.5,2-0.5,4.3-1.4,5.9
		c-0.7,5-3.2,9-6.1,13.8c-0.2,0.9-0.9,1.6-1.6,2.3c-2,2.5-3.2,4.5-4.3,6.3c-1.4,2-3.4,4.3-5,6.6c-1.6,1.8-3.6,2.7-5.4,4.1
		c-2,1.1-3.6,2.5-5.7,3.6c-3.6,2.3-13.6,2.5-17.6,3.4C384.8,285.6,378.9,285.8,375,284.2z M402.6,268.9l4.1-5
		c3.2-4.1,5.4-8.8,7-13.8c1.8-4.5,2.5-9.3,4.3-13.8c1.6-4.5,2-8.6,2-13.3c0-1.1,0-1.8,0.7-2.5c0.9-0.9,1.4-2.3,1.6-3.4
		c0.5-4.8,0-10.2,0.5-14.7c0-1.1,1.6-2,1.6-2.7c-0.9-2.3-0.5-4.3-0.2-6.6c0-0.5,0.7-0.9,0.2-1.1c-2.5-1.4-1.6-3.4-2-5.2
		c-0.5-1.6,0.7-2.9,0-4.5c-0.7-1.6-0.5-3.2-0.9-5v-1.4c0-2.5-0.7-4.5-1.1-7.2l-2.7-7.5c0-1.4,0.9-0.9,1.6-1.1h0.2
		c-0.2-1.1-1.4-1.8-2-2.9c-1.1-2-1.8-4.1-1.4-7.2c0.2-0.2-0.2-0.7-0.5-0.5c-1.6,0.9-1.8-1.1-2.7-1.4c-1.1,0.9-0.2,0.9-0.5,2l0.7,0.7
		c-0.2,0.2-2.3,1.1-2,2.3c0.2,2.5-1.1,3.8-3.2,4.3c-1.6,0.5-2.9,1.1-4.5,1.4c-0.9,0.2-2,0.2-2.7-0.5c-0.7-0.5-1.4-0.7-0.9-1.8
		c2-3.4,2.3-7.5,3.4-11.3c0.2-0.2,0.2-0.9,0.2-1.6c0-0.5-0.2-0.9-0.5-1.1c-1.8-2.3-4.3-2.3-6.8-3.8c-1.1-0.7-2,0.9-3.2,1.1
		c-0.9,0.2-1.8,0.7-2.9,0.7c-1.6-0.2-3.2,0.5-4.1,1.6c-1.8,2.5-4.3,4.3-5.4,7.5c-0.2,1.1-0.7,2.5-2,3.2c-3.2,1.1-4.5,4.5-5.7,7.5
		c-1.6,3.6-2.7,7.7-3.8,11.5c-0.9,1.8-1.4,3.8-2.5,5.4c-0.5,0.5-1.6,0.7-2.3,0.2c-0.5-0.5-0.9-0.9-0.5-1.8c0.2-0.2,0.2-0.9,0.2-0.9
		c-2.5-0.9-1.1-3.2-1.1-5c0-1.1,1.1-1.8,0.7-3.2c-0.7-1.4-0.2-2.3,0.5-3.4c1.1-2,2-4.3,2-6.6c-0.2-1.6,0.9-2.5,2-2.9
		c0-2,0.5-4.3,1.8-6.1c0.7-0.5,0.9-1.6,1.1-2.5v0.2c0.5-0.2,0.9-0.7,0.9-1.6c0-1.4,1.1-2.3,2.3-2.5c0.2-0.5,0.5-0.7,0.9-0.9
		c0-0.2,0.5-0.2,0.7-0.5c-0.2-0.2-0.2-0.7-0.7-0.7l-1.6-0.2c0.2-0.9,0.7-0.7,1.1-0.9c2.7-0.7,5.9-0.7,8.1-2.3
		c0.9-0.7,2.3-1.4,3.4-1.1c0.5,0.2,0.5-0.5,0.5-0.7c-0.5-1.1,0-1.8,0.7-2c1.4-0.5,2.5-0.5,3.8-1.1c2.3-1.6,5-2,7.7-2.3
		c1.6,0,2.9,0,4.8-0.2c0.5,0.2,1.4-0.5,1.1-1.1c-0.7-2.9-0.9-5.4-1.6-7.9c-0.2-0.7-0.5-1.1-0.7-1.4c-1.4-0.7-2.5-1.8-3.2-2.7
		c-1.4-1.4-3.2-1.8-5-1.8c-3.2-0.2-6.6,0.7-9.7,1.6c-1.4,0.9-2.5,2-4.3,1.6c0.2-0.7,0.7-1.1,1.4-1.4c1.8-1.1,3.2-1.8,5-2.3
		c0.5-0.2,0.7-0.5,0.7-0.9c-2.5-0.9-4.3-0.5-6.8,0.7c-1.6,0.7-3.2,1.6-5.2,1.6c-0.7,0-0.9,0.5-1.6,0.7c-2.9,2-5,5-7.2,7.7
		c-1.1,1.6-2.3,3.2-2.9,5c-0.9,2-1.8,3.6-2.9,5.4c-0.7,1.1-1.4,2.3-1.6,3.6c-0.7,2.7-1.4,5.9-2.7,8.4c-0.5,0.7-0.7,1.6-0.7,2
		c0,2.3-1.1,3.8-1.8,5.9l-1.1,2.3l-1.1,9l-0.7,5c0,1.8-0.7,3.6-1.6,5.2c-0.2,0.7-0.2,1.4-0.2,2c-0.2,0.7-0.7,1.4,0.2,2.3
		c1.1,0.5-0.2,1.1-0.2,1.6c0.7,4.3,0.5,5-0.5,7.7c-0.7,3.2-0.5,6.3-0.7,9c1.1,1.8,0.5,3.2,0.5,5c-0.2,1.8-0.2,3.4,0.2,5.4
		c0.2,0.5,0.2,1.4,0,2.3c0,2,0.2,3.8,0.7,5.9c0,0.5,0.7,1.4,0.5,1.8c-0.7,1.6,0.7,2.7,0.5,4.1c-0.7,1.8,0.7,3.2,0.7,4.8
		c0.7,0.9,0.5,2,0.7,3.2c0,0.9,0,2,0.2,3.2l4.3,13.8c0.2,1.4,0.9,2.3,1.4,3.6c1.6,4.3,4.1,8.6,6.6,12.4c2.9,4.3,5.9,7.7,10,10.9
		c2.3,1.4,4.3,2.5,6.3,2.7c2,0.2,3.6,0.7,5.2,0.7C392.5,276.6,398.1,274.1,402.6,268.9z M369.8,154.4c0.5-0.9,0.9-1.8,0.2-2.3
		c-1.1-0.7-0.9,1.4-1.6,1.4l-0.2,0.2c-0.2,1.4-0.7,2.7,0,4.3C368.7,156.4,369.4,155.5,369.8,154.4z M372.5,147.4
		c0.2-0.2,0-0.5-0.2-0.9c-0.2,0.5-0.5,0.7-0.7,0.9c0,0.2,0.2,0.7,0.5,0.9C372.3,148.1,372.5,147.8,372.5,147.4z M374.8,141.5
		c-0.2-0.2-0.5-0.2-0.7-0.2c0,0.2,0,0.5,0.2,0.7C374.6,142.2,375,141.7,374.8,141.5z M388.2,111.9c0.5,0,0.7-0.2,1.1-0.5
		c-0.5-0.5-0.9-0.7-1.4-0.2c-0.2,0-0.2,0.5-0.5,0.7H388.2z M399.7,131.8c0-0.2-0.2-0.2-0.2-0.5c-0.5,0-0.7,0-0.7,0.7v0.2
		C399,132.5,399.7,132.2,399.7,131.8z M418.5,153.9c-0.2-0.2-0.5,0.2-0.2,0.2l0.5,0.5C418.7,154.4,418.7,154.2,418.5,153.9z
		 M418.9,154.8c0,1.8,0,1.8,1.6,2C420.5,155.8,419.8,155.3,418.9,154.8z M420.3,161c0-0.2-0.2-0.5-0.7-0.7c0,0.2,0,0.7-0.5,1.4
		l0.7,0.5C420.1,161.6,420.3,161.4,420.3,161z M420.5,157.1c0,0.5,0,0.9,0.9,0.7C421,157.6,420.7,157.3,420.5,157.1z M435.2,158.9
		c0-1.6-0.9-3.8-2-4.1c1.1,1.8,0.7,3.6,1.1,5.4c0,0.2,0,0.5,0.2,0.5C435,160.3,435.2,159.6,435.2,158.9z M437.5,166.2
		c-0.2-0.2-1.1-1.1-1.6-1.4l-0.5-0.2c0.7,3.4,1.8,6.6,2.3,9.7c0,2.3-0.5,4.3,0.2,6.1c0.5,1.8,2.5,10.4,2.7,7.9
		C440.9,185.6,438.4,167.7,437.5,166.2z M443.1,178.6c0.2-0.2,0.2-0.7,0.2-0.9c-0.5,0.2-0.7,0.2-0.7,0.5c-0.5,0.5-0.2,0.9,0,1.4
		C442.9,179.3,443.1,178.8,443.1,178.6z"/>
	<path class="st0" d="M544.7,293.7c0.2-0.9,0.5-1.1-0.7-1.4c-0.9-0.2-1.8,0-2-1.1c-0.5-0.2-0.7-0.2-0.7-0.5c-0.9-2.9-4.5-5.2-5-8.1
		c-0.5-2.3-1.1-4.1-2.9-5.7c-0.7-0.7-0.9-1.8-1.1-2.7c-0.2-0.7-0.2-1.6-0.5-2c-0.2-2.3-2.3-4.1-2-6.1c0.5-2.5-0.9-4.8-1.1-7
		c-0.5-2.3-0.5-4.5-0.9-6.6c-0.7-5.9,0-9.5-2-15.2c-0.5-1.6-0.5-5.4-0.5-7.2c-1.1,3.6-2,6.8-2.9,10.2l-0.7,1.6
		c0.2,4.3-1.1,8.4-1.8,12.7c-0.2,3.4-0.9,6.6-2.3,9.5c-0.9,2.3-1.8,4.5-2.5,6.8c-0.2,2.3-1.1,3.8-2.7,5.2c-0.5,0.2-0.7,0.5-0.9,0.9
		c-2,3.6-5.9,5.4-9.5,7.5c-0.9,0.7-2.3-0.5-3.2,0.7c-0.7,1.1-2,0.7-3.4,0.7c-1.1,0.2-2.9,0.7-4.3,0.5c-2-0.5-3.8-1.6-5.9-2.5
		c-5.7-2.5-9.7-6.6-12.9-11.3c-3.4-4.5-6.8-9.3-8.8-14.7c-1.1-2.3-1.8-4.5-1.6-6.8c0.2-1.6,0.2-3.2,0.2-4.5c0-2,0.5-3.8-0.5-5.7
		c-0.5-0.7-0.2-1.6-0.2-2.7c0-4.5,0-9-0.5-13.8c-0.2-2.9,0-5.7-0.7-8.6c-0.2-2.3-0.7-4.5,0.7-6.6c0.2-0.2,0.2-0.9,0-1.1
		c-1.1-1.1,0.9-2.3,0-3.6c-0.7-1.4-0.5-2.9,0.2-4.1c0.5-0.7,0-1.1,0-1.8c-0.2-4.1,0-8.1,0.5-12c1.1-1.1-0.2-2.3-0.2-3.2
		c0.2-0.2,0.7-0.2,0.9-0.5c0.2-1.6,0-5.7-0.5-6.8c-1.1-1.4-1.4-2.7,0-4.3c1.1-1.4,1.8-2.9,0.5-4.8c2.3-3.4,0.7-7.2,2-10.9
		c-0.2-1.6-0.2-2.9,0.5-4.8c0.5-1.1,0-2.7,0.5-4.1c0.2-1.8,0-3.4-0.7-5c-0.7-1.1-0.9-2.5-0.9-3.6c0.2-4.1,0.2-8.4,0.7-12.4
		c0.5-1.8,0.9-3.8,0.2-5.7c-0.2-1.1-0.2-2.5-0.2-3.4s-0.2-1.8-0.9-2.7c-1.1-2.3-0.9-2.9,0.9-3.8c2.5-0.9,5-2,7.2-2.7
		c1.6-0.2,2.9-0.2,4.5,0c0.5,0,0.9,0.2,0.9,0.5c0.2,1.6,1.1,3.2,0.7,4.3c-0.5,5.4,0.9,10.6,0.7,15.6c-0.2,6.3-0.5,12.7-0.9,19
		c0,1.1-0.5,2.3-0.7,3.2c0,0.7-0.2,1.1-0.2,1.8c-0.5,1.4,0.5,2.9,0,4.5c-0.2,1.6-0.5,3.4-0.5,5c-0.2,1.6-0.5,2.9-0.5,4.5
		c0,1.4-0.2,3.2-0.2,4.8v5.2c0,0.5,0.5,0.9,0.9,1.1c0,1.4,0.2,2.7,0.2,4.3c0,1.6-0.2,2.7-1.8,3.6c-0.7,0.2-1.1,0.9-0.7,1.6
		c1.1,1.8,0.9,3.6,0.2,5.4c-0.7,1.1,0.5,2.5-0.5,3.4c0.7,1.1-0.9,2.3,0.2,3.6c0.2,0.7-0.2,1.8,0,2.7c0.5,2-0.9,3.8-0.5,5.9
		c0.5,2,0,4.1,0,6.1c-0.2,2-0.2,4.1-0.2,6.1c0,0.5,0,1.4-0.2,1.8c-1.4,2-0.5,3.6,0.2,5.9c0.9,2.5,1.1,5,1.4,7.5
		c0.5,2.9,0.5,5.7,1.1,8.1c0.7,2.3,0.7,4.3,2.5,6.1c0.9,0.9,0.9,2.9,1.4,4.1h-1.1c0.2,0.5,0,0.9,0.7,0.7c0.2,0,0.2-0.5,0.5-0.7
		c0.2,0.2,0.7,0.7,0.9,1.1c1.6,4.1,3.8,7.7,6.1,11.3c1.8,2.7,4.5,3.8,6.6,5.9c0.5,0.5,1.8,0.2,2.3-0.7c1.1-2.3,2.7-4.8,3.6-7.2
		c0.7-2,1.4-3.8,2.5-5.7c0.7-1.4,1.4-2.7,1.4-4.3c0-2.9,1.6-5.7,2.9-8.1c0.7-1.8,1.4-3.2,1.1-5c0-2,1.1-3.6,0.9-5.9
		c0-2,0.9-3.8,1.1-5.9c0.9-4.1,2-7.9,1.8-12c0.2-2.7,0.5-5.2,0.5-7.9c0-1.4-0.7-2.5-0.5-3.6c0-1.1,0.7-2.3,0.7-3.2l0.7-13.6
		c-1.1-1.8,0.7-3.6-0.2-5.4c0.5-3.2-0.5-6.6-0.2-9.7c0.2-3.2,0.2-6.3,0.5-9.5c0-1.8,0-3.2-0.5-5c-0.5-1.1-0.2-2-0.2-3.4
		c0.2-2.9,0.5-6.1,0.5-9.3s0.2-6.1-0.5-9c-0.5-1.8-0.2-3.6-0.2-5.7c0-3.6,0.9-7.5,0-11.1c0.7-1.1,0.5-1.8-0.7-2.9
		c-1.4-1.1-1.8-3.4-2.5-4.8c0.9-1.1-0.2-2.5,1.1-3.6c2.5-2.5,5.2-5.2,9.5-5.7c0.5-0.2,0.7-0.5,1.1-0.5c2-0.7,3.8-2.3,5.9-1.1
		c2.5,1.1,4.1,3.4,5,5.9c1.4,3.4,2.5,6.8,2,10.9c-0.5,2.9,0.9,6.1,0.7,9.3c-0.5,4.1-0.7,8.1-0.5,12.2c0,3.2,0.2,6.1-0.2,9
		c0,2-0.7,4.3-0.7,6.3c0.2,0.9,0.9,1.8,0.7,2.3c-1.6,2.3-0.5,4.8-1.4,7.2c-0.2,0-0.5,0.2-0.7,0.7c-0.9,1.4-0.9,1.4,0.5,2.3
		c0,0.2,0.2,0.2,0.5,0.2c0.5,2,1.4,4.5,0.7,6.8c-0.5,1.8,1.6,3.4,0,5.2c-0.2,0.2,0,0.7,0.2,0.9c0.5,1.6,1.4,2.9,0.9,4.5
		c-0.5,1.6,0.9,3.4,0,5c-0.5,0.7,0.5,2.3,0,2.9c-0.5,1.4-0.5,2.3,0,3.2c0.2,0.2,0.5,0.7,0.5,0.9c0.2,3.6,0.2,7,0.7,10.6
		c0.5,3.8,0.9,7.5,1.6,11.3c0.2,1.4,0.2,2.3-0.2,3.6c-0.5,1.6,0,3.6-0.2,5.4c0,1.6,0,3.2-1.4,4.1c-1.8,1.4,1.6,2.5,2,3.8
		c-0.2,0.2-0.7,0.5-0.7,0.7l-0.7,4.1c0.2,0.5,0.9,0.9,1.1,1.1v0.9c-0.5,0-1.1,0.5-1.1,1.1c-0.2,1.6-0.5,3.4,0.2,5.4
		c0.5-0.5,0.7-1.1,0.9-1.6c1.1-1.1,1.1-2,0-3.4v-1.6c0.9-0.2,1.1,1.4,2.3,0.9c0.5-0.5,0.7-0.5,0.9,0.2v0.2c-1.1,2.7-0.9,5.2,0.7,7.5
		c-1.1,2.5,1.1,5.4-0.7,7.9c-0.9,1.4-0.7,3.2-0.7,4.8c0,1.1-0.2,2,1.4,2.5c0.5,0.2,0.2,0.5,0.2,0.9c-0.5,2,0.2,3.8,1.1,6.1
		c0.7,0.7,1.1,1.8,1.1,2.5c-0.2,1.8,0.7,3.2,1.8,4.5c1.4,2,0.2,4.3,0.9,7c0.5,2.7,1.8,5.4,2,8.4
		C544.7,295.3,544.5,295.1,544.7,293.7z M478,253l0.5,0.5C478.6,253.3,478.6,252.8,478,253z M528,177.5v-2.3
		c-0.2-0.2-0.2-0.7-0.2-0.9c-0.2,0.2-0.5,0.5-0.5,0.9c-0.2,0.7-0.5,1.6-0.2,2c0,0.2,0.2,0.2,0.5,0.5
		C527.7,177.7,528,177.7,528,177.5z M528.9,202.4l-0.5-0.2c-0.2,0-0.5,0-0.7,0.2c-0.9,1.6-0.7,1.6,0,5
		C528,205.5,528.4,203.9,528.9,202.4z M528.2,170.5v-0.9c0.2-0.2,1.1,0.2,0.5-0.7c0,0.2-0.2,0.5-0.5,0.7c-0.2,0.2-0.5,0.2-0.5,0.2
		c-0.5,0.5-0.5,1.1,0,1.6C527.7,170.9,528,170.7,528.2,170.5z M528.6,182c0-0.2-0.2-0.5-0.2-0.7c-0.2,0-0.5,0.2-0.5,0.2
		c0,0.2,0.2,0.5,0.2,0.9L528.6,182z M528.9,222.5c-0.9,1.4-0.7,2.7-0.2,4.1C529.3,225,529.3,223.8,528.9,222.5z M530.7,211.6
		c-0.2,0-0.2-0.2-0.5-0.2l-0.2,0.2c0,0.2,0.2,0.2,0.2,0.5L530.7,211.6z M532.3,206.9c0.2-0.7-0.2-0.9-0.9-1.1
		c-0.5-0.2-0.9,0.2-0.9,0.7c0,0.5,0,0.9,0.7,1.1C531.8,207.8,532,207.3,532.3,206.9z M531.1,227c0-0.5-0.2-0.7-0.2-1.1l-0.5,0.5
		c0,0.5,0,0.9,0.2,1.1C530.7,227.7,531.1,227.5,531.1,227z M533.2,227.2h-0.2c-0.2,0.2-0.5,0.7-0.2,0.9c0,0.7,0.5,0.7,0.7,0.2
		C533.4,227.9,533.4,227.7,533.2,227.2z M533.8,225c0-1.8,0.2-3.6-0.2-5.9c-1.1,2-0.9,3.8-0.9,5.7c0,0.2,0.5,0.5,0.7,0.7L533.8,225z
		 M537.5,263.7V263c0-0.5,0-0.5-0.2-0.9c-0.2,0.2-0.5,0.5-0.5,0.9c-0.2,0-0.2,0.2,0,0.5c0,0.5-0.5,1.1,0.5,1.1L537.5,263.7z
		 M538.8,258.7c-0.9-2-0.7-4.1-0.7-6.1c0-0.5,0-0.9-0.2-1.4c0-0.2-0.2-0.2-0.2-0.2c-0.2,0-0.5,0-0.5,0.2c-0.5,2.9-0.9,5.7,0.5,8.1
		C538.4,259.6,539,259.1,538.8,258.7z M537.7,259.6L537,260v0.2C537.7,260.3,537.7,260,537.7,259.6z M542.9,286.5
		c0.2-0.5-0.5-1.6-1.1-1.6l-0.2,0.2c-0.5,0.7,0.2,1.4,0.9,1.6C542.7,286.7,542.9,286.7,542.9,286.5z M543.3,289.9
		c-0.2-0.5-0.5-1.1-0.5-1.6h-0.5c0,0-0.2,0.2-0.2,0.5v2.3C542.9,291,543.3,290.8,543.3,289.9z"/>
	<path class="st0" d="M571.6,297.4c-0.7-0.7-0.7-1.4,0.7-2.3c0.7-0.5,0.9-1.1,0.7-1.8c-0.5-0.9-0.7-1.4,0.5-1.8
		c1.4-0.5,1.4-2,0.2-2.9c-0.7-0.5-1.4-0.7-1.6-1.6c-0.2-0.9,0-1.6,0.5-2.3l1.1-1.8c0.9-1.4,1.1-2.7,0.5-4.1c-0.9-2-0.2-3.8,0-5.9
		c0-2.3,0.2-4.3,0.2-6.8c0.2-2.5,0-5,0.2-7.5c0-1.6,0.2-2.9,0.5-4.5c0.9-2,1.1-4.3-0.2-6.6c-0.5-1.1-0.2-2,0-3.2
		c0.5-0.7,0.9-1.4,1.1-2c0.2,0.2,0.5,0.2,0.5,0.5v16.1c0,0.9-0.5,1.8-0.7,2.5c0,0.2,0.2,0.7,0.5,0.9l0.5-0.5
		c1.6-1.4,2.3-3.2,2.3-5.4c0-4.1,0.2-8.1,0.2-12c0-2.7,0-5.2,0.2-8.4c1.4,2.3,0.2,3.8,1.1,5.4c0.2,0.2,0.7,0,0.7-0.5
		c0-6.6,0.2-12.9,0.2-19.5c0.2-4.3-0.2-8.4,0.9-12.7c0.5-2.3,0-5,0-7.5v-8.6c-0.2,0-0.5,0-0.5,0.2c-0.2,1.4-0.2,2.9-0.5,4.5
		c-0.2,2.5,0,4.8-0.9,7.5c-0.7,1.8-0.2,4.1-0.2,6.1c0,2.9-0.9,5.2-2,7.7c0,0.5-0.5,0.7-0.9,0.7c0,0-0.5-0.5-0.5-0.7
		c-0.2-3.2-0.2-6.6-0.2-10v-1.6c1.6-7.5,1.4-14.9,1.4-22.4c0-1.1,0-2.3,0.5-3.4c0.5-0.9,0.2-1.8,0.5-2.9c0.5-1.4-0.7-3.2-0.5-4.8
		c0.2-1.8,0.5-3.4,0.5-5.2c0.2-0.5,0-1.1-0.7-1.1c0,0-0.2,0.7-0.5,0.9l-0.7,0.5c-0.2-0.5-0.5-0.7-0.5-1.1c0-2.9-0.2-5.7,0.9-8.6
		c0.9-2.3,0.2-7,1.1-9.5c-1.6-1.6-0.2-3.6-0.2-5.2c0-1.8-0.7-3.4-1.1-5c0-0.5-0.2-0.9,0-1.1c2.3-1.4,0.2-3.4,0.5-5.2
		c0.2-1.4,0.5-2.5,1.4-3.4c1.1-1.6,0.7-2.5-0.9-3.2c-0.5,0-0.9,0-1.1-0.2c-0.9-0.5-1.4-0.5-2,0.2c-0.9,1.6-2.5,2-4.3,2.7
		c-4.5,1.4-7.2,2.9-10.2,4.5c-0.7,0.5-1.6,0.9-2.7,1.1c-5.2,1.4-10,4.3-14.9,6.8c-0.5,0-0.9,0-1.1,0.5c-2.3,2.7-5.4,2.3-8.4,0.9
		c-0.9-0.5-2-0.7-3.2-1.1c-1.6-0.9-2.7-2.3-2.9-4.1c-0.2-0.9-0.2-1.8-0.2-2.7c-0.2-1.8,0.7-3.2,2.5-3.6c5.2-1.4,10.6-2.9,15.6-5.4
		c0.7-0.5,1.6,0.5,2,0.2c0.9-0.2,2-0.7,2.9-1.4l2.7-2.3c0.2-0.2,0.5-0.2,0.5-0.2c2.5,0.7,4.3-1.8,7-1.6c1.4,0.2,2.7-0.5,3.6-1.1
		c5.9-2.7,11.8-4.5,17.6-6.6c0.7-0.2,0.9-0.7,1.1-1.4c0.7-2.5,0.9-2.7,3.2-1.8c1.4,0.7,2.7,0.7,4.3,0c1.1-0.7,2.5-0.9,3.6-1.4
		c0.9-0.5,2,1.4,3.2,0.2c4.3-0.7,8.4-2.5,12.4-3.8c7-2.3,14.3-4.8,21.3-6.8c1.1-0.5,2.3-1.1,2.7-2.5c3.8-1.4,7.7-1.4,11.8-2.3
		c2.3-0.5,4.8-1.1,7-1.8c1.1-0.5,2-0.9,3.2-1.1c2.9-0.9,5.7-0.9,8.1,0.7c1.4,0.9,2.7,1.6,3.8,2.5c-0.2,1.1-1.6,0.7-2.3,1.1
		c-2,1.1-3.4,3.8-6.3,3.4c-2.3,0.9-4.8,1.6-6.8,2.7c-2.3,0.9-4.5,2-6.8,2.9c-3.6,1.4-7,2.9-10.9,3.6c-3.2,0.7-6.1,2.7-9.5,4.1
		c-1.4,0.7-3.2,1.1-4.8,1.8c-0.9,0.5-1.6,0.5-2.5,0c-0.5-0.2-1.4,0-1.6,0.5c-0.7,0.9-1.6,1.4-2.9,0.7c-0.2-0.2-0.7,0-0.9,0.2
		c-3.4,2.9-7.5,3.6-11.1,5.2c-3.2,1.1-3.2,1.1-3.4,4.3c0,2.9,0.5,5.7-0.7,8.6c1.1,2.7,0.5,5.4,0.5,8.4c0.2,1.1,0.2,2.5-0.2,3.6
		c-0.5,1.1-0.2,2.3,0,3.6c0.5,1.8,0.2,3.8,0.2,7.9c0,2,0.7,4.3-0.7,6.1c-0.2,2.9-0.5,5.9-0.2,8.6c0,1.1,0.5,2.3,1.1,3.2
		c1.1,2,1.6,3.8,0.5,6.1c-0.5,0.7-0.5,1.6,0.2,2c1.6,1.4,1.1,2.7,0.9,4.3c-0.2,1.4-0.5,2.5-0.9,3.4c-0.2,0.9-0.9,1.6-0.2,2.3
		c0.9,0.9,0,1.6-0.7,2.3c-1.1,1.1-1.1,1.8-0.2,2.5c1.1,0.5,1.6,1.1,1.6,2.3c0,1.8-0.5,4.1,0,6.1c1.1,3.4,0.2,6.6-1.1,9.7
		c-0.2,0.5,0,1.1,0,1.6c-0.5,0.2-1.1,0-0.5,0.9c0-0.5,0.2-0.7,0.5-0.9c0.2,0,0.7,0.2,0.9,0.5c0.2,0.9,0.2,1.8,0.7,2.7
		c0.9,2,0.7,3.4-0.9,4.8c-0.9,0.7-0.7,1.6-0.9,2.5c-1.1,0-2,0.2-2,1.8v2c0,0.5,0.5,0.5,0.9,0.2l1.4-0.7v2.3l1.4-0.7
		c0.5-0.2,0.9,0,0.9,0.5c0,0.5-0.2,1.1-0.5,1.6c-0.9,2.5-1.8,4.5-2,7c0,0.5-0.5,0.7-0.9,0.9c0,0.9-0.2,1.6-0.2,2.3
		c0.2,0.9,0.7,1.1,1.6,0.7c0.5-0.2,0.7-0.2,0.7,0.2c-0.7,2-0.9,4.3-2,6.1c1.4,0.5,1.1,0.5,1.6,1.6c0.7,2.5-1.1,4.3-1.6,6.6
		c2,0.2,2,0.2,2.3,2c-0.5,0.2-0.9,0.5-0.7,0.9c0,0.2,0.5,0.5,0.7,0.7c-0.7,1.4-1.1,2.9-1.8,4.5c-0.2,0.2-0.5,0.5,0,0.9
		c1.6,1.4,0.5,3.2,0.5,4.8c-0.5,0.2-0.9,0.5-0.7,1.1c0.2,1.1,0.7,2.3-0.7,3.4c-1.1,0.9-0.7,2.3-0.7,3.6l1.1-0.7
		c0.5-0.5,0.9-0.2,0.9,0.2c0.5,1.1,0.5,2.7-0.5,3.4c-0.5,0.5-0.9,0.9-1.6,1.1c0,0.9,1.4,1.6,0.7,3.2c-0.5,1.1-0.2,1.4,1.4,1.6
		c0.2,0.9,0.5,2.3-0.5,3.2c-1.1,1.1-1.6,2.7-1.8,4.3c-0.2,0.9-1.4,1.6-2.5,1.8H592c-4.3,0.7-9.7,0.2-12.7,1.1
		C575.9,301.7,573.4,300.1,571.6,297.4z M568.4,281.8c0-0.5,0.5-1.1,0.7-1.6c0.2,0,0.9,0,1.1,0.2c0.5,0.5,0.5,1.1,0.2,1.6
		c-0.5,0.9-0.9,1.6-1.6,2.5C568.7,283.6,568.4,282.7,568.4,281.8z M577.5,273.6c0.2-0.5,0.2-0.9,0.2-1.4v-1.6c0-0.2-0.2-0.5-0.5-0.7
		c0,0.2-0.5,0.5-0.5,0.7v2.9l0.5,0.5C577.3,273.8,577.5,273.6,577.5,273.6z M578.6,165.3c0.5-0.7,0.5-2,0-2.5l-0.7,0.5
		c-0.2,0.5,0,1.1,0,1.6c0,0.2,0.2,0.2,0.2,0.5H578.6z M583.4,191.5c0.5-2-0.2-3.8,3.2-5.7c0.2,0-2.3-0.9-2.7-1.4
		c-0.2-0.5-1.4,0.5-1.4,1.4c0,2-0.5,4.1,0,6.6C582.9,192.4,583.1,191.9,583.4,191.5z M583.4,182.7c-0.2,0-0.2-0.2-0.5-0.5
		c0,0.2-0.2,0.2-0.2,0.5l0.2,0.2C583.1,182.9,583.1,182.9,583.4,182.7z M593.3,268v-0.2c0.7-1.4,0.7-1.6-0.9-3.2
		c-0.5,1.8-0.5,3.2,0,5.2C592.6,269.1,593.1,268.4,593.3,268z M593.8,183.1c0-0.2-0.2-0.2-0.2-0.5c-0.2,0-0.2,0.2-0.2,0.2
		c0,0.2,0,0.5,0.2,0.5L593.8,183.1z M594.5,285.1c0.2,0,0.5,0.2,0.7,0.2C595.1,284.9,595.1,284.7,594.5,285.1z M594.9,281.8
		c-0.2,0-0.7,0-0.2,0.7C594.9,282.2,594.9,282,594.9,281.8z M596,260.9c0.2-0.5,0.2-0.7,0.2-1.1c-0.7,0-1.1,0.5-0.9,1.1
		c0.2,0.2,0.2,0.5,0.5,0.5C595.8,261.4,596,261.2,596,260.9z M596.3,239.5l-0.5-0.5c0,0.2-0.2,0.2-0.2,0.5c-0.2,1.1-0.7,2,0.7,2.7
		V239.5z M596,265.9c0.2-0.5,0-0.7,0-1.1h-0.5c0,0.5-0.2,0.7,0,1.1C595.6,266.4,595.8,266.4,596,265.9z M597.4,234.7
		c0.2-0.5,0-0.9,0-1.6l-1.4,0.7c-0.7,0.7-0.7,2.7-0.2,2.5C596.5,235.8,597.2,235.4,597.4,234.7z M596.3,251.7
		c-0.5,0.2-0.7,0.2-0.2,0.7C596,252.1,596.3,252.1,596.3,251.7z M597.2,205.7c0.2-0.7,0.2-1.4,0.2-2c0-0.2-0.2-0.2-0.5-0.5
		c-0.2,0.5-0.5,0.9-0.5,1.4c0,0.7,0.2,1.1,0.2,1.6C596.9,206,597.2,206,597.2,205.7z M597.6,167.3c0.2-0.2,0.5-0.5,0.7-0.9
		c0,0.5,0.2,0.7,0.5,0.9c-0.2,0.5-0.5,0.7-0.7,0.9C598.1,168,597.6,167.5,597.6,167.3z M597.6,227.5c0.5,0,0.7-0.2,0.9,0
		c0.5,0,0.7,0.2,0.9,0.5c-0.7,0.9-0.2,2.3-1.8,2.7V227.5z M598.1,289.4c0.5,0.7,0,0.7-0.5,0.9C597.8,290.1,597.8,289.9,598.1,289.4z
		 M597.8,171.1c0.2-0.5,0.5-0.5,0.7,0c-0.2,0.2-0.2,0.5-0.5,0.5C598.1,171.6,597.8,171.4,597.8,171.1z M597.8,273.8
		c0.2,0,0.5,0,0.7,0.2C597.8,274.5,597.8,274.1,597.8,273.8z M598.8,261.8c0.2,0.2,0.5,0.5,0.9,0.7c-0.5,0-0.7,0.2-0.9,0.5V261.8z
		 M632.5,95.1c-0.2-0.2,0-0.5,0.2-0.2l0.5,0.7C632.9,95.6,632.7,95.4,632.5,95.1z"/>
	<path class="st0" d="M756.4,293.7c0.2-0.9,0.5-1.1-0.7-1.4c-0.9-0.2-1.8,0-2-1.1c-0.5-0.2-0.7-0.2-0.7-0.5c-0.9-2.9-4.5-5.2-5-8.1
		c-0.5-2.3-1.1-4.1-2.9-5.7c-0.7-0.7-0.9-1.8-1.1-2.7c-0.2-0.7-0.2-1.6-0.5-2c-0.2-2.3-2.3-4.1-2-6.1c0.5-2.5-0.9-4.8-1.1-7
		c-0.5-2.3-0.5-4.5-0.9-6.6c-0.7-5.9,0-9.5-2-15.2c-0.5-1.6-0.5-5.4-0.5-7.2c-1.1,3.6-2,6.8-2.9,10.2l-0.7,1.6
		c0.2,4.3-1.1,8.4-1.8,12.7c-0.2,3.4-0.9,6.6-2.3,9.5c-0.9,2.3-1.8,4.5-2.5,6.8c-0.2,2.3-1.1,3.8-2.7,5.2c-0.5,0.2-0.7,0.5-0.9,0.9
		c-2,3.6-5.9,5.4-9.5,7.5c-0.9,0.7-2.3-0.5-3.2,0.7c-0.7,1.1-2,0.7-3.4,0.7c-1.1,0.2-2.9,0.7-4.3,0.5c-2-0.5-3.8-1.6-5.9-2.5
		c-5.7-2.5-9.7-6.6-12.9-11.3c-3.4-4.5-6.8-9.3-8.8-14.7c-1.1-2.3-1.8-4.5-1.6-6.8c0.2-1.6,0.2-3.2,0.2-4.5c0-2,0.5-3.8-0.5-5.7
		c-0.5-0.7-0.2-1.6-0.2-2.7c0-4.5,0-9-0.5-13.8c-0.2-2.9,0-5.7-0.7-8.6c-0.2-2.3-0.7-4.5,0.7-6.6c0.2-0.2,0.2-0.9,0-1.1
		c-1.1-1.1,0.9-2.3,0-3.6c-0.7-1.4-0.5-2.9,0.2-4.1c0.5-0.7,0-1.1,0-1.8c-0.2-4.1,0-8.1,0.5-12c1.1-1.1-0.2-2.3-0.2-3.2
		c0.2-0.2,0.7-0.2,0.9-0.5c0.2-1.6,0-5.7-0.5-6.8c-1.1-1.4-1.4-2.7,0-4.3c1.1-1.4,1.8-2.9,0.5-4.8c2.3-3.4,0.7-7.2,2-10.9
		c-0.2-1.6-0.2-2.9,0.5-4.8c0.5-1.1,0-2.7,0.5-4.1c0.2-1.8,0-3.4-0.7-5c-0.7-1.1-0.9-2.5-0.9-3.6c0.2-4.1,0.2-8.4,0.7-12.4
		c0.5-1.8,0.9-3.8,0.2-5.7c-0.2-1.1-0.2-2.5-0.2-3.4s-0.2-1.8-0.9-2.7c-1.1-2.3-0.9-2.9,0.9-3.8c2.5-0.9,5-2,7.2-2.7
		c1.6-0.2,2.9-0.2,4.5,0c0.5,0,0.9,0.2,0.9,0.5c0.2,1.6,1.1,3.2,0.7,4.3c-0.5,5.4,0.9,10.6,0.7,15.6c-0.2,6.3-0.5,12.7-0.9,19
		c0,1.1-0.5,2.3-0.7,3.2c0,0.7-0.2,1.1-0.2,1.8c-0.5,1.4,0.5,2.9,0,4.5c-0.2,1.6-0.5,3.4-0.5,5c-0.2,1.6-0.5,2.9-0.5,4.5
		c0,1.4-0.2,3.2-0.2,4.8v5.2c0,0.5,0.5,0.9,0.9,1.1c0,1.4,0.2,2.7,0.2,4.3c0,1.6-0.2,2.7-1.8,3.6c-0.7,0.2-1.1,0.9-0.7,1.6
		c1.1,1.8,0.9,3.6,0.2,5.4c-0.7,1.1,0.5,2.5-0.5,3.4c0.7,1.1-0.9,2.3,0.2,3.6c0.2,0.7-0.2,1.8,0,2.7c0.5,2-0.9,3.8-0.5,5.9
		c0.5,2,0,4.1,0,6.1c-0.2,2-0.2,4.1-0.2,6.1c0,0.5,0,1.4-0.2,1.8c-1.4,2-0.5,3.6,0.2,5.9c0.9,2.5,1.1,5,1.4,7.5
		c0.5,2.9,0.5,5.7,1.1,8.1c0.7,2.3,0.7,4.3,2.5,6.1c0.9,0.9,0.9,2.9,1.4,4.1h-1.1c0.2,0.5,0,0.9,0.7,0.7c0.2,0,0.2-0.5,0.5-0.7
		c0.2,0.2,0.7,0.7,0.9,1.1c1.6,4.1,3.8,7.7,6.1,11.3c1.8,2.7,4.5,3.8,6.6,5.9c0.5,0.5,1.8,0.2,2.3-0.7c1.1-2.3,2.7-4.8,3.6-7.2
		c0.7-2,1.4-3.8,2.5-5.7c0.7-1.4,1.4-2.7,1.4-4.3c0-2.9,1.6-5.7,2.9-8.1c0.7-1.8,1.4-3.2,1.1-5c0-2,1.1-3.6,0.9-5.9
		c0-2,0.9-3.8,1.1-5.9c0.9-4.1,2-7.9,1.8-12c0.2-2.7,0.5-5.2,0.5-7.9c0-1.4-0.7-2.5-0.5-3.6c0-1.1,0.7-2.3,0.7-3.2l0.7-13.6
		c-1.1-1.8,0.7-3.6-0.2-5.4c0.5-3.2-0.5-6.6-0.2-9.7c0.2-3.2,0.2-6.3,0.5-9.5c0-1.8,0-3.2-0.5-5c-0.5-1.1-0.2-2-0.2-3.4
		c0.2-2.9,0.5-6.1,0.5-9.3s0.2-6.1-0.5-9c-0.5-1.8-0.2-3.6-0.2-5.7c0-3.6,0.9-7.5,0-11.1c0.7-1.1,0.5-1.8-0.7-2.9
		c-1.4-1.1-1.8-3.4-2.5-4.8c0.9-1.1-0.2-2.5,1.1-3.6c2.5-2.5,5.2-5.2,9.5-5.7c0.5-0.2,0.7-0.5,1.1-0.5c2-0.7,3.8-2.3,5.9-1.1
		c2.5,1.1,4.1,3.4,5,5.9c1.4,3.4,2.5,6.8,2,10.9c-0.5,2.9,0.9,6.1,0.7,9.3c-0.5,4.1-0.7,8.1-0.5,12.2c0,3.2,0.2,6.1-0.2,9
		c0,2-0.7,4.3-0.7,6.3c0.2,0.9,0.9,1.8,0.7,2.3c-1.6,2.3-0.5,4.8-1.4,7.2c-0.2,0-0.5,0.2-0.7,0.7c-0.9,1.4-0.9,1.4,0.5,2.3
		c0,0.2,0.2,0.2,0.5,0.2c0.5,2,1.4,4.5,0.7,6.8c-0.5,1.8,1.6,3.4,0,5.2c-0.2,0.2,0,0.7,0.2,0.9c0.5,1.6,1.4,2.9,0.9,4.5
		c-0.5,1.6,0.9,3.4,0,5c-0.5,0.7,0.5,2.3,0,2.9c-0.5,1.4-0.5,2.3,0,3.2c0.2,0.2,0.5,0.7,0.5,0.9c0.2,3.6,0.2,7,0.7,10.6
		c0.5,3.8,0.9,7.5,1.6,11.3c0.2,1.4,0.2,2.3-0.2,3.6c-0.5,1.6,0,3.6-0.2,5.4c0,1.6,0,3.2-1.4,4.1c-1.8,1.4,1.6,2.5,2,3.8
		c-0.2,0.2-0.7,0.5-0.7,0.7l-0.7,4.1c0.2,0.5,0.9,0.9,1.1,1.1v0.9c-0.5,0-1.1,0.5-1.1,1.1c-0.2,1.6-0.5,3.4,0.2,5.4
		c0.5-0.5,0.7-1.1,0.9-1.6c1.1-1.1,1.1-2,0-3.4v-1.6c0.9-0.2,1.1,1.4,2.3,0.9c0.5-0.5,0.7-0.5,0.9,0.2v0.2c-1.1,2.7-0.9,5.2,0.7,7.5
		c-1.1,2.5,1.1,5.4-0.7,7.9c-0.9,1.4-0.7,3.2-0.7,4.8c0,1.1-0.2,2,1.4,2.5c0.5,0.2,0.2,0.5,0.2,0.9c-0.5,2,0.2,3.8,1.1,6.1
		c0.7,0.7,1.1,1.8,1.1,2.5c-0.2,1.8,0.7,3.2,1.8,4.5c1.4,2,0.2,4.3,0.9,7c0.5,2.7,1.8,5.4,2,8.4
		C756.4,295.3,756.2,295.1,756.4,293.7z M689.7,253l0.5,0.5C690.4,253.3,690.4,252.8,689.7,253z M739.7,177.5v-2.3
		c-0.2-0.2-0.2-0.7-0.2-0.9c-0.2,0.2-0.5,0.5-0.5,0.9c-0.2,0.7-0.5,1.6-0.2,2c0,0.2,0.2,0.2,0.5,0.5
		C739.5,177.7,739.7,177.7,739.7,177.5z M740.6,202.4l-0.5-0.2c-0.2,0-0.5,0-0.7,0.2c-0.9,1.6-0.7,1.6,0,5
		C739.7,205.5,740.1,203.9,740.6,202.4z M739.9,170.5v-0.9c0.2-0.2,1.1,0.2,0.5-0.7c0,0.2-0.2,0.5-0.5,0.7c-0.2,0.2-0.5,0.2-0.5,0.2
		c-0.5,0.5-0.5,1.1,0,1.6C739.5,170.9,739.7,170.7,739.9,170.5z M740.4,182c0-0.2-0.2-0.5-0.2-0.7c-0.2,0-0.5,0.2-0.5,0.2
		c0,0.2,0.2,0.5,0.2,0.9L740.4,182z M740.6,222.5c-0.9,1.4-0.7,2.7-0.2,4.1C741,225,741,223.8,740.6,222.5z M742.4,211.6
		c-0.2,0-0.2-0.2-0.5-0.2l-0.2,0.2c0,0.2,0.2,0.2,0.2,0.5L742.4,211.6z M744,206.9c0.2-0.7-0.2-0.9-0.9-1.1
		c-0.5-0.2-0.9,0.2-0.9,0.7c0,0.5,0,0.9,0.7,1.1C743.5,207.8,743.7,207.3,744,206.9z M742.8,227c0-0.5-0.2-0.7-0.2-1.1l-0.5,0.5
		c0,0.5,0,0.9,0.2,1.1C742.4,227.7,742.8,227.5,742.8,227z M744.9,227.2h-0.2c-0.2,0.2-0.5,0.7-0.2,0.9c0,0.7,0.5,0.7,0.7,0.2
		C745.1,227.9,745.1,227.7,744.9,227.2z M745.6,225c0-1.8,0.2-3.6-0.2-5.9c-1.1,2-0.9,3.8-0.9,5.7c0,0.2,0.5,0.5,0.7,0.7L745.6,225z
		 M749.2,263.7V263c0-0.5,0-0.5-0.2-0.9c-0.2,0.2-0.5,0.5-0.5,0.9c-0.2,0-0.2,0.2,0,0.5c0,0.5-0.5,1.1,0.5,1.1L749.2,263.7z
		 M750.5,258.7c-0.9-2-0.7-4.1-0.7-6.1c0-0.5,0-0.9-0.2-1.4c0-0.2-0.2-0.2-0.2-0.2c-0.2,0-0.5,0-0.5,0.2c-0.5,2.9-0.9,5.7,0.5,8.1
		C750.1,259.6,750.8,259.1,750.5,258.7z M749.4,259.6l-0.7,0.5v0.2C749.4,260.3,749.4,260,749.4,259.6z M754.6,286.5
		c0.2-0.5-0.5-1.6-1.1-1.6l-0.2,0.2c-0.5,0.7,0.2,1.4,0.9,1.6C754.4,286.7,754.6,286.7,754.6,286.5z M755.1,289.9
		c-0.2-0.5-0.5-1.1-0.5-1.6h-0.5c0,0-0.2,0.2-0.2,0.5v2.3C754.6,291,755.1,290.8,755.1,289.9z"/>
	<path class="st0" d="M772.7,306.4c-0.7-1.6-1.6-2.3-3.2-1.1c-0.7,0.5-1.1-0.5-1.1-0.9c-0.2-0.7-0.7-1.4-1.6-0.7
		c-0.5,0.5-0.5,0.2-0.5-0.2c-0.2-0.9,0.9-1.6,0.2-2.5c-0.2-0.5-0.7-1.1-0.9-2c-0.2,0,0-0.5-0.2-0.7c0.7,0,0.9,0,1.6,0.2h0.9
		c0-2.9,2.5-4.8,2.5-7.5c0-0.7,0.5-1.4,0.9-1.8c2.3-2.3,3.2-4.8,5.9-6.1c0-2.9,0.7-5,3.2-7c2.5-1.6,4.5-3.8,5.7-6.8
		c0.9-1.4,2-2.3,3.4-2.9c0.2,0.5,0.7,0.9,1.4,0.7c1.8-0.2,1.8-0.2,2,1.4l-0.7,0.2c-0.2,0.5,0.2,0.5,0.2,0.2c0.2,0,0.2-0.2,0.5-0.5
		c0.9,0,1.4-0.5,1.8-1.1c0.9-1.1,1.6-2,1.8-2.9c0.9-2.3,2-4.3,3.6-5.7c0.7-0.7,0.7-1.4,0.5-1.8c-0.9,0.2-1.4,1.1-2.3,1.6
		c-0.2,0.2-0.7,0.2-0.9,0.2c-0.7,0-0.9-0.7-0.9-1.1c-0.2-1.8-0.5-3.4,2-4.1c0.5,0.7,0.9,1.1,1.4,0.7c1.4-0.7,2.7-1.4,3.8-2.3
		c3.2-1.8,3.4-4.5,3.4-7.5c0-0.7-0.5-1.4,0-1.8c1.4-0.7,1.4-2,2-3.2c0.2-0.5,0.5-1.4,0.2-1.4c-1.1-1.6-0.5-3.2,0.2-4.5
		c0.7-0.9,1.1-2,1.1-2.9c0.2-1.8,0.5-3.6-0.2-5.2c-0.7-1.8,1.1-2.7,0.5-4.5c-0.7-1.6-0.9-3.4-1.4-5.2c0-0.2,0-0.5-0.5-0.7
		c-2-1.8-2-3.8-2.7-6.1c-0.2-0.9-0.7-1.6-0.9-2.5c-1.8-5-5.9-7.5-10.9-8.8c-4.1-1.1-8.1-2.3-12.2-3.6c-3.6-1.1-6.8-3.8-10.4-5
		c-1.4-0.5-2.5-1.1-3.6-2c-0.9-0.7-1.8-1.4-2-2c0,0,0.7-0.7,0-1.6c-0.5-1.1-0.2-2.5-1.6-3.2c0,0-0.2-0.2-0.5-0.2
		c0,0.2-0.5,0.7-0.2,0.9c0,0.5,0.5,0.9,0.7,1.8c0,0.2-0.2,0.7-0.5,0.9c-0.5-0.2-1.4-0.5-1.4-0.7c-0.5-2.9-1.1-6.1-1.4-9.3
		c-0.5-2.7,0-5.7,1.4-8.1c0.5-0.5,0.7-1.4,0.7-1.8c0-2.9,1.1-5.4,2.5-7.5c0.5-1.8,0.9-2.9,0.9-4.8c0-0.5,0.5-1.1,0.9-1.4
		c0.2,0,0.9,0,1.6,0.2c0.5,0,0.5,0.2,0.5,0c0.2-2.9,3.2-4.3,3.2-7.5c0.2-0.9,1.4-2.3,2.3-3.4c1.1-1.4,2.7-2.5,3.6-4.1
		c0.7-1.1,2.5-2,2-4.1c0,0,0.9-0.2,1.1-0.5c2.7-2.9,5.9-5.7,8.4-8.6c2.3-2.5,4.3-5.4,8.1-6.3c0.9-0.2,1.8-0.9,2.3-2
		c1.8-3.2,5.4,0.2,7.2-2.9c0.7-0.9,1.6-1.6,2.3-2.9c0.2-0.9,0.9-1.6,2-0.9c1.4,0.7,2.7,1.1,4.3,1.4c1.8,0.5,6.6-3.4,8.6-3.4
		c0.9,0,4.8-0.2,5.2,0.7c-1.6,2.7-3.6,5-5.7,7c-3.4,3.4-6.3,6.6-8.4,10.6c-1.4,2-3.2,3.4-5,4.8c-0.7,0.7-1.4,0.9-1.8,1.8
		c-2.5,3.4-5.2,6.6-7.5,9.7c-4.1,5.2-7,8.1-9.7,13.8c-0.5,1.6-3.4,1.6-7.9,6.8c-0.9,0.9,0.5,0.5,0.5,0.9c0.2,0.2,4.5-1.8,4.3-1.6
		l-3.6,8.8c0,0.2-0.2,0.5-0.7,0.5c0,0.7,0,1.1-0.2,2c0,0.5-0.5,0.9-0.9,1.1h0.2c0.7-0.5,0.7,1.1,0.7,2.9c0,4.3-4.5,7.2-0.5,8.4
		c6.1,1.8,12,6.1,18.5,7.7c5.9,1.4,11.3,4.3,16.3,7.5c2.5,1.4,4.1,3.4,6.6,4.5c1.6,0.7,2,1.6,2.3,3.8c0.2,0.2,0,0.7,0,0.7
		c2.3,0.7,1.8,2.9,2.9,4.1c1.4,1.4,1.1,3.2,1.1,4.8c0.2,0.5,0.5,0.9,0.9,1.1c1.4,0.5,1.4,1.6,0.9,2.5c-0.2,0.9-0.7,1.8-0.9,2.7
		c0,1.1,0.9,2.9,0.5,4.3c-0.5,1.4-0.5,3.2-0.2,4.1c0.7,2.5,0,3.8-0.9,6.1c-0.2,0.5,0,0.9,0.9,1.1c0.5,0.2,0.7,0.7,0.5,1.4
		c-1.4,2.7-2.5,5.9-4.3,8.6c-0.7,0.9-1.4,1.6-2.7,2.5c-1.8,0.9-2.9,2.9-3.6,5s-2.5,2.9-3.4,4.8c-2.5,0.5-3.2,2.5-4.5,4.3
		c-0.5,0.2-0.7,0.7-0.9,0.9c0,2,0,3.8-2,4.8c-1.6,1.1-1.4,3.2-3.2,4.3h-0.5c-0.2,0.5-0.2,0.7-0.5,0.9c-0.9,0.5-2,0.5-0.9,1.6
		c0,0.2-0.2,0.7-0.2,1.1c-0.5,0.7-0.9,0.7-1.8,0.5c0-0.2,0-0.7-0.2-0.9c0-0.5-0.2-0.7-0.5-0.9c0,0.2-0.2,0.5-0.5,0.9
		c-0.2,0.2-0.2,0.7-0.2,1.1c-0.9,0.7-1.6,0.9-2,1.8c-1.8,0.9-2.7,2.5-3.8,3.8c-0.9-0.7-0.7-1.4-1.8-1.4c-0.2,0-0.9,0.2-1.4,0.5
		c-0.7,0.5-0.7,0.9,0.5,1.6c0.5,0.2,0.9,0.2,0.7,1.1c0,0.5-0.5,0.7-1.1,0.7s-1.1,0.2-1.8,0.2h-0.5c-0.2,0.2-0.7,0.9-0.7,1.1
		c0.9,2-0.2,3.2-1.4,4.8c-0.2,0-0.5,0.2-0.7,0.2c0-0.5-0.5-0.7-0.5-0.9v-1.1c-0.9,0-1.1,1.1-2,1.6c1.1,1.1,0.5,2-0.7,2.3
		c-2.9,0.7-4.1,2.9-5,5.2c-0.7,1.6-1.4,2.7-3.4,2.9c-0.9,0-1.1,0.7-1.1,1.4c0,0.5,0.2,1.1-0.7,1.1c-0.2,0-0.2-0.7-0.5-1.1
		c-0.5-0.5-0.7-0.5-0.9,0c-0.2,0.9-0.5,1.6-0.9,2c0,0.2-0.7,0.2-0.7,0.2C773.2,306.9,772.9,306.6,772.7,306.4z M773.6,297.4v-1.1
		c-0.5,0-0.7,0.5-0.7,1.1l0.2,0.5C773.4,297.6,773.6,297.6,773.6,297.4z M774.7,294.9c-0.5,0-0.9,0.5-0.9,1.1
		C774.5,296,774.7,295.6,774.7,294.9z M775.6,294.4V294c-0.7,0-0.7,0.5-0.7,0.7C775.2,294.6,775.4,294.4,775.6,294.4z M778.1,290.1
		c0.2-0.2,0-0.5,0-0.7h-0.7c0,0.2-0.2,0.5,0,0.7c0,0.5,0,0.7,0.2,0.9C777.9,290.8,778.1,290.6,778.1,290.1z M778.8,288.5
		c-0.2,0.2-0.2,0.5-0.2,0.7C778.8,289.2,779,289.2,778.8,288.5z M784,170.2c0-0.2-0.2-0.5-0.5-0.5c-0.2,0-0.2,0.2-0.5,0.2
		c-0.2,0.7,0,1.4,0.9,1.6V170.2z M784.9,168.2v-4.3h-0.2l-1.4,3.8c0,0,0.7,0.2,0.9,0.5H784.9z M783.8,176.6c0,0-0.2-0.2-0.2-0.5
		c0,0.2-0.2,0.2-0.2,0.5c0,0.2,0,0.2,0.2,0.5C783.6,176.8,783.8,176.8,783.8,176.6z M784.9,284.9c-0.5,0-0.7,0-0.5,0.7
		C784.7,285.4,784.9,285.4,784.9,284.9z M785.8,284.2l-0.2-0.2c-0.5,0-0.7,0.2-0.5,0.7L785.8,284.2z M787.2,277.5
		c-0.2,0-0.2-0.2-0.5-0.2c-0.5,0.2-0.5,0.5,0,0.7L787.2,277.5z M790.1,297.4c0.2-0.2,0.5,0,0.2,0.2c-0.2,0.2-0.5,0.5-0.7,0.5
		C789.7,297.8,789.9,297.6,790.1,297.4z M796.9,287c0.2-0.2,0.7-0.7,0.9-0.7s0.5,0.5,0.7,0.7c-0.2,0.2-0.2,0.7-0.5,0.9
		c-0.5,0.5-1.4,0.5-1.4,0S796.7,287.2,796.9,287z M801.2,260.5c-0.2,0.2-0.2,0.2-0.2,0.7C801.2,261.2,801.7,261.2,801.2,260.5z
		 M807.8,279.7c-0.2-0.2,0-0.5,0.2-0.2c0.2,0.2,0.2,0.5,0.2,0.7L807.8,279.7z"/>
</g>
<g>
	<path class="st0" d="M81.7,52.2h-7.1v-5.7h20.7v5.7h-7.1v19.7h-6.5V52.2z"/>
	<path class="st0" d="M115.6,61.6H105v10.2h-6.5V46.5h6.5v9.5h10.5v-9.5h6.5v25.4h-6.5V61.6z"/>
	<path class="st0" d="M126.7,46.5h18.6V52h-12.1v4.2H145v5.6h-11.8v4.6h12.1v5.5h-18.6V46.5z"/>
	<path class="st0" d="M175.1,68h-10.5l-1.3,3.8h-7.1l9.5-25.4h8.2l9.6,25.4h-7.1L175.1,68z M166.2,62.5h7.1l-3.6-10.3L166.2,62.5z"
		/>
	<path class="st0" d="M185.3,46.5h14.4c5,0,7.4,3.3,7.4,6.5c0,3.2-1.9,5.3-4.3,5.8c2.7,0.4,4.8,3,4.8,6.2c0,3.7-2.5,6.9-7.5,6.9
		h-14.8V46.5z M198.2,56.3c1.3,0,2.2-1,2.2-2.2s-0.9-2.2-2.2-2.2h-6.4v4.4H198.2z M198.5,66.4c1.6,0,2.5-1,2.5-2.3
		c0-1.3-0.9-2.4-2.5-2.4h-6.6v4.7H198.5z"/>
	<path class="st0" d="M223.5,46c7.8,0,13.5,5.4,13.5,13.1s-5.8,13.1-13.5,13.1c-7.8,0-13.6-5.4-13.6-13.1S215.7,46,223.5,46z
		 M223.5,51.8c-4.2,0-6.9,3.2-6.9,7.3c0,4.1,2.7,7.3,6.9,7.3c4.2,0,6.9-3.2,6.9-7.3C230.4,55,227.7,51.8,223.5,51.8z"/>
	<path class="st0" d="M240.3,46.5h6.7v14.9c0,3,1.6,5.2,5.1,5.2c3.5,0,5.1-2.2,5.1-5.2V46.5h6.7v15.1c0,6.3-3.6,10.8-11.8,10.8
		s-11.8-4.5-11.8-10.7V46.5z"/>
	<path class="st0" d="M274.1,52.2H267v-5.7h20.7v5.7h-7.1v19.7h-6.5V52.2z"/>
	<path class="st0" d="M300.6,46.5h12.7c5.7,0,8.8,3.8,8.8,8.4c0,4.6-3.1,8.3-8.8,8.3h-6.2v8.6h-6.5V46.5z M312.4,52h-5.3v5.7h5.3
		c1.8,0,3-1.1,3-2.8C315.5,53.1,314.2,52,312.4,52z"/>
	<path class="st0" d="M338.6,68H328l-1.3,3.8h-7.1l9.5-25.4h8.2l9.6,25.4h-7.1L338.6,68z M329.7,62.5h7.1l-3.6-10.3L329.7,62.5z"/>
	<path class="st0" d="M360.1,46c5.6,0,9,2.7,10.8,5.9l-5.5,2.9c-1-1.7-3-3-5.4-3c-4.1,0-7.1,3.2-7.1,7.3s2.9,7.3,7.1,7.3
		c2,0,3.8-0.7,4.8-1.5v-2.1H359v-5.4h12.2v9.9c-2.7,3-6.4,4.9-11.2,4.9c-7.6,0-13.7-5.1-13.7-13.1S352.5,46,360.1,46z"/>
	<path class="st0" d="M375.1,46.5h18.6V52h-12.1v4.2h11.8v5.6h-11.8v4.6h12.1v5.5h-18.6V46.5z"/>
	<path class="st0" d="M407.3,46.5h6.5v25.4h-6.5V46.5z"/>
	<path class="st0" d="M420,63.3c1.8,1.8,4.6,3.3,8.1,3.3c2.2,0,3.6-1,3.6-2.2c0-1.4-1.6-2-4.3-2.6c-4.2-0.8-10-1.9-10-7.9
		c0-4.3,3.6-8,10.1-8c4.1,0,7.6,1.2,10.3,3.5l-3.6,4.7c-2.1-1.7-4.9-2.6-7.2-2.6c-2.2,0-3,0.9-3,2c0,1.3,1.6,1.8,4.4,2.3
		c4.2,0.9,10,2.1,10,7.8c0,5.1-3.8,8.5-10.6,8.5c-5.1,0-8.7-1.6-11.3-4L420,63.3z"/>
	<path class="st0" d="M467.4,68h-10.5l-1.3,3.8h-7.1l9.5-25.4h8.2l9.6,25.4h-7.1L467.4,68z M458.6,62.5h7.1l-3.6-10.3L458.6,62.5z"
		/>
	<path class="st0" d="M499.9,46c5.6,0,9,2.7,10.8,5.9l-5.5,2.9c-1-1.7-3-3-5.4-3c-4.1,0-7.1,3.2-7.1,7.3s2.9,7.3,7.1,7.3
		c2,0,3.8-0.7,4.8-1.5v-2.1h-5.8v-5.4h12.2v9.9c-2.7,3-6.4,4.9-11.2,4.9c-7.6,0-13.7-5.1-13.7-13.1S492.3,46,499.9,46z"/>
	<path class="st0" d="M524.8,63.2h-3.3v8.6h-6.5V46.5h12.7c5.6,0,8.8,3.7,8.8,8.4c0,4.4-2.7,6.8-5.1,7.6l5.2,9.3h-7.5L524.8,63.2z
		 M526.6,52h-5.2v5.7h5.2c1.7,0,3.2-1.1,3.2-2.9S528.4,52,526.6,52z"/>
	<path class="st0" d="M540.1,46.5h18.6V52h-12.1v4.2h11.8v5.6h-11.8v4.6h12.1v5.5h-18.6V46.5z"/>
	<path class="st0" d="M578.7,68h-10.5l-1.3,3.8h-7.1l9.5-25.4h8.2l9.6,25.4H580L578.7,68z M569.9,62.5h7.1l-3.6-10.3L569.9,62.5z"/>
	<path class="st0" d="M592.3,52.2h-7.1v-5.7h20.7v5.7h-7.1v19.7h-6.5V52.2z"/>
	<path class="st0" d="M618.8,46.5h12.7c5.7,0,8.8,3.8,8.8,8.4c0,4.6-3.1,8.3-8.8,8.3h-6.2v8.6h-6.5V46.5z M630.6,52h-5.3v5.7h5.3
		c1.7,0,3-1.1,3-2.8C633.7,53.1,632.4,52,630.6,52z"/>
	<path class="st0" d="M643.2,46.5h6.5v19.7H660v5.7h-16.7V46.5z"/>
	<path class="st0" d="M679.6,68h-10.5l-1.3,3.8h-7.1l9.5-25.4h8.2l9.6,25.4h-7.1L679.6,68z M670.8,62.5h7.1l-3.6-10.3L670.8,62.5z"
		/>
	<path class="st0" d="M687.4,59.2c0-7.8,5.9-13.1,13.5-13.1c6.3,0,9.6,3.5,11.3,6.8l-5.6,2.7c-0.8-2-3-3.7-5.6-3.7
		c-4,0-6.9,3.2-6.9,7.3s2.9,7.3,6.9,7.3c2.6,0,4.8-1.7,5.6-3.7l5.6,2.7c-1.6,3.3-4.9,6.8-11.3,6.8C693.3,72.3,687.4,67,687.4,59.2z"
		/>
	<path class="st0" d="M715,46.5h18.6V52h-12.1v4.2h11.8v5.6h-11.8v4.6h12.1v5.5H715V46.5z"/>
	<path class="st0" d="M752.8,52.2h-7.1v-5.7h20.7v5.7h-7.1v19.7h-6.5V52.2z"/>
	<path class="st0" d="M781,46c7.8,0,13.5,5.4,13.5,13.1s-5.8,13.1-13.5,13.1s-13.6-5.4-13.6-13.1S773.2,46,781,46z M781,51.8
		c-4.2,0-6.9,3.2-6.9,7.3c0,4.1,2.7,7.3,6.9,7.3c4.2,0,6.9-3.2,6.9-7.3C787.9,55,785.2,51.8,781,51.8z"/>
	<path class="st0" d="M807.6,46.5h6.5v19.7h10.2v5.7h-16.7V46.5z"/>
	<path class="st0" d="M827.7,46.5h18.6V52h-12.1v4.2H846v5.6h-11.8v4.6h12.1v5.5h-18.6V46.5z"/>
	<path class="st0" d="M866.4,68h-10.5l-1.3,3.8h-7.1l9.5-25.4h8.2l9.6,25.4h-7.1L866.4,68z M857.5,62.5h7.1l-3.6-10.3L857.5,62.5z"
		/>
	<path class="st0" d="M886.5,63.2h-3.3v8.6h-6.5V46.5h12.7c5.6,0,8.8,3.7,8.8,8.4c0,4.4-2.7,6.8-5.1,7.6l5.2,9.3h-7.5L886.5,63.2z
		 M888.4,52h-5.2v5.7h5.2c1.7,0,3.2-1.1,3.2-2.9S890.1,52,888.4,52z"/>
	<path class="st0" d="M908.3,56.5v15.3h-6.5V46.5h6.7l10.3,14.6V46.5h6.6v25.4h-6.3L908.3,56.5z"/>
</g>
</svg>
