<?xml version="1.0" encoding="utf-8"?>
<!-- Generator: Adobe Illustrator 19.2.1, SVG Export Plug-In . SVG Version: 6.00 Build 0)  -->
<svg version="1.1" id="Layer_1" xmlns="http://www.w3.org/2000/svg" xmlns:xlink="http://www.w3.org/1999/xlink" x="0px" y="0px"
	 viewBox="0 0 1000 350" style="enable-background:new 0 0 1000 350;" xml:space="preserve">
<style type="text/css">
	.st0{fill:#FFFFFF;}
</style>
<g>
	<g>
		<path class="st0" d="M193.3,297.9c-0.5-0.7-0.7-1.4,0-2.3c0.5-0.9,1.6-1.8,1.6-2.7c0.2-1.6,0.7-3.4-0.2-5.2
			c-2.3,1.4-2.9,3.6-3.6,5.9c0,0.9-0.5,1.6-1.1,2.3c-0.5,0.5-0.7,0.5-1.1,0c-1.6-1.4-2-3.6-0.9-5.2c0.2-0.5,0.7-0.9,1.1-1.4
			c2.5-2.5,4.5-5.2,5.2-8.6c0.2-0.9,1.1-0.9,2.3-0.5c0.9,0.7,1.6,0.2,1.1-0.7c-1.4-2.7,0.2-4.5,2-5.9c0.5-0.2,1.4,0.9,2-0.5
			s1.4-2.5,2-4.1c0.5-1.4,2.9-0.7,3.2-2.5v0.2c0.9-0.5,1.6-1.4,2-2.3c-0.7-0.5-1.6-0.7-2.3-1.1c-1.1-0.7-2.7-0.9-2.9-2.3
			c-0.5-1.4-0.7-2.7-0.7-4.1v-7.2c0.2-2.7,0.7-5.2,0-8.1c-0.5-1.4-0.2-2.9,0-4.5c0.2-1.4,0.9-2.7,0-4.1c-0.5-0.5,0-1.8,0.5-2.5
			c0.7-1.4,0.9-2.9,0-4.3c-0.7-1.1,0.7-2,0.7-2.9v-25.3c0-0.9-0.2-1.8-0.5-2.5c-0.5-1.1-0.5-2,0-3.2c0.5-1.4,0.2-3.2,0.9-4.3
			c1.1-1.8-0.7-2.7-0.2-4.3c0.2-1.1,0-2.5,0-3.8c0.2-2.3,0.7-4.8,0.5-7c-0.5-2-0.5-4.3-0.5-6.3v-7.2c0-2.5-0.2-5-0.9-7.5
			c-0.5-1.4-0.5-2.7-0.5-3.8v-14.9c-0.2-1.4-0.9-2.5-0.7-3.6c0.2-1.1,1.1-2.3,1.8-3.4c0.5-0.5,0.7-1.1,1.6-1.1
			c2.9,0.2,5.7-1.1,8.6-1.6c2.3-0.2,4.3,0.7,4.3,2.7c-0.2,2.7,1.4,5.4,1.4,8.1c-0.2,2.7,0.2,14.3,0,17c-0.2,2,0.9,3.8,0.2,6.1
			c-0.7,1.8-0.7,3.8,0.2,5.9c-1.1,2.3,0.2,5,0,7.2c-0.5,2.5-0.5,5.2-0.5,7.7c-0.2,2.7-0.2,5.2-0.2,7.9c0.2,1.4-0.5,2.5-0.9,3.6
			c-0.2,0.5-0.2,1.4,0.5,1.6c1.1,0.5,1.6,0.7,0.7,1.6c-0.9,0.9-1.4,1.6-0.7,2.9c0.5,0.7,0.2,1.6,0.5,2.5c0.5,1.8-1.1,3.6-0.2,5.7
			c0.7,1.4,0.2,3.4,0.5,5c0,4.3,0.2,8.8-2,12.7c-0.2,0.2,0.2,0.7,0.5,0.9c0.5,0.5,1.4,0.2,0.9,1.4c-0.7,1.1-0.9,2.3-0.5,3.6
			c1.1,3.4,1.1,5.4,0,8.8c-1.1,3.2-1.6,6.6-1.8,10c0,2.3,1.4,1.4,2.5,1.4c0.5,0,1.1,0.9,1.4-0.2c0.5-1.1-0.2-3.2,2.3-2
			c0.2,0,1.1-0.7,1.4-1.4c1.1-2.3,2.9-4.1,4.5-6.1c1.6-1.8,3.2-3.4,4.1-5.7c0.7-1.6,1.1-3.4,3.2-3.8c0.5,0,0.7-0.9,0.9-1.6
			c0.7-0.9,1.4-1.6,1.8-2.7c0.7-1.4,1.6-2.7,2.9-3.4c1.8-1.4-0.9-3.2,0.5-4.1c2.7-1.6,2.5-4.8,4.5-6.6c0.9-4.1,3.8-7.2,5.9-10.9
			c2-3.8,4.5-7.7,5-12.4c0-0.9,0.5-2,0.9-2.9c0.5-1.6,1.1-2.9,1.1-4.3c0.2-4.8,1.6-9,2.7-13.3c0.7-2,0.7-4.3,0.5-6.8
			c-0.5-3.8-0.2-7.7-0.2-11.5c0.2-3.8-0.2-7.2-2.3-10.6c-1.8-2.5-2.9-5.7-4.3-8.6c-2.3-5-6.6-8.6-11.5-11.1c-5.9-2.9-12-5.4-19-5.4
			c-2.3-0.2-4.5-0.9-6.8-1.1c-3.4-0.2-6.8,0.2-10.2,0.9c-3.4,0.5-6.8,1.4-10.2,2c-3.6,1.1-7.2,2-10.9,3.8c-1.4,0.9-2.7,1.8-4.3,2.7
			c-3.8,2.3-7.7,4.3-11.8,6.8c-1.1,0.7-2.3,1.1-3.2,2c-1.8,2.5-4.3,2.7-7,2.5h-4.5c-0.7,0.2-1.4,1.1-2-0.2c-0.2-0.9,0.2-1.6,0.7-2.3
			c0.2-0.5,0.5-0.9,0.9-1.1c5.2-3.4,9.7-7.5,15.2-10.9c5.9-3.6,12.4-5.9,18.5-9c2.9-1.6,6.3-0.9,9.3-2.5c7.7-1.4,15.6-2.9,23.5-2.7
			c7,0.5,13.8,1.6,20.1,4.3c2.3,1.1,5,0.9,7,2.9c1.6,1.6,4.1,2.3,6.1,3.6c6.8,4.5,12.2,10.2,14.7,18.3c0.2,1.1,1.4,2.3,2.9,1.1
			c0,0.2,0.2,0.7,0.2,1.1c0,0.5-0.7,1.6-0.7,1.6c1.8,2,1.8,4.3,2.7,6.6c0.7,2,0.5,4.3,1.1,6.3c1.6,3.6,1.1,7.2,1.1,10.9
			c0.2,2.7-0.7,5.7,0.5,8.4c0.5,0.9,0,1.6-0.5,2.3c-1.1,1.8-1.4,3.6-1.4,5.4c0.2,2,0,4.1,0,5.9c-0.2,2-0.2,3.6-2,5.2
			c-1.6,1.1-2.3,3.6-3.2,5.4c-0.5,0.9,1.1,1.8,0.9,2.3c-2,3.8-1.6,8.6-4.8,11.8c0,1.6-1.4,2-2,3.2c-0.5,0.9,0.9,1.8,0,2.9
			c-0.9,1.4-0.7,3.6-2.3,4.8c-1.4,0.9-0.2,2.9-1.8,3.8c0,0.2-0.2,0.2-0.5,0.2c-2.3,2.5-3.2,6.1-6.1,8.4c-0.5,0.5-0.7,1.1-0.9,1.8
			c-0.9,3.4-2.9,6.1-4.8,8.8c-0.9,1.1-1.6,2-2,3.2c-1.4,3.6-3.8,6.8-6.6,9.5c-1.6,1.4-2.9,2.9-4.3,4.5v0.2c0-0.7-0.2-1.1-0.9-1.1
			c-0.2,0.2-0.2,0.7-0.5,0.9c-0.2,0.2-0.7,0.2-0.7,0.5c-0.2,0.7,0.2,0.9,0.9,0.9h-0.2c-0.5,1.8-2.9,0.7-3.6,2s-1.8,2-2.7,2.7
			c-2.9,1.6-3.8,5.7-7.7,6.3c-1.1,2.9-3.8,4.5-5.7,6.8c-0.9,1.1-1.8,1.6-3.2,0.9c-0.2-0.2-1.4,0.9-1.4,1.1c1.1,2.7-2,2.9-2.7,4.8
			c-0.5,1.8-2.3,3.2-3.4,4.8c-0.2,0.2-0.9,0.2-1.1,0.2c-1.1-0.5-0.2-0.9,0-1.4c0.9-1.6,1.8-2.9,2.7-4.3c0.2-0.7,0-1.1,0.2-1.8
			c-1.6,0-2,1.4-2.5,2.3c-0.5,0.7-0.7,1.6-1.6,1.6c-1.8,2.5-3.2,5.2-5.9,7c-0.5,0.5-0.5,1.1,0,1.8c0.2,0.5,0.9,1.1,0.7,1.6
			c-0.9,1.6-1.1,3.6-3.2,4.8C194.2,299.5,193.8,298.6,193.3,297.9z M195.8,285.7l-0.7-0.7l-0.7,0.7c0,0.2,0.2,0.5,0.2,0.5
			C195.1,286.1,195.6,285.9,195.8,285.7z M202.8,283.8c0-0.5-0.2-0.9-0.5-1.1c-0.2,0.2-0.5,0.2-0.5,0.5c0,0.5,0,0.9,0.2,1.1l0.7,0.5
			V283.8z M207.6,221.2c0.5-1.8,0-3.8,0.5-5.7c0.5-1.1,0.5-2.5,0.5-3.6c0-3.6-0.9-7.5-0.9-11.1l-0.2-1.6c-0.2,2.5-1.1,10.4-1.1,16.5
			c0,3.2,0.2,5.7,0.7,7C207.1,223.2,207.6,221.6,207.6,221.2z M209.1,238.4c0-2.9-0.7-5.2-2.5-5.7c0,2,0,4.1,0.2,5.7
			c0.5,2.9,0.7,5.4,0.7,8.4v2C208,247.4,209.1,242.4,209.1,238.4z M208,279.3c0-0.2-0.2-0.2-0.5-0.5c0,0-0.5,0.2-0.5,0.5
			c0,0.5-0.2,0.9-0.2,1.6C208,280.9,208.2,280.2,208,279.3z M212.1,226.6c0-0.7,0-1.1-0.2-1.8l-0.9-1.4c-1.6,1.8-2.3,3.4-2.3,4.5
			c0,1.4,0.7,2,1.4,2C210.9,230,212.1,228.9,212.1,226.6z M218.4,270.7c-0.5,0-0.7,0.2-0.7,0.5c-0.2,0.2,0,0.7,0.5,0.5
			C218.4,271.4,218.4,271.2,218.4,270.7z M219.8,268.2c-1.1,0.5-1.1,1.4-1.1,2.3C220,270.3,219.8,269.1,219.8,268.2z M220.4,267.1
			c-0.2,0.5-0.5,0.5-0.5,0.9C220.4,268,220.9,268,220.4,267.1z M230,241.1c0-0.5-0.2-0.7-0.2-1.1c-0.2,0-0.5,0.2-0.5,0.2
			c-0.2,0.7,0,1.4,0.5,1.4C229.7,241.3,230,241.1,230,241.1z M260.5,220.5v0.2c0.2,0.2,0.5,0.2,0.9,0.2
			C261.2,220.7,261.2,220.3,260.5,220.5z"/>
		<path class="st0" d="M290.8,290.6c-1.6-1.6-4.3-1.8-5.2-4.3c0-0.2-0.9-0.5-1.1-0.7c-2.7-0.9-4.1-2.7-4.8-5.2
			c-0.5-1.4-1.4-2.5-0.2-3.8c0.7-0.9,2.3-0.7,3.2-0.5c5,2.7,9.7,0.5,13.8-1.1c4.3-1.1,3.6-3.4,7.7-4.8c1.1-0.2,2-1.4,1.1-2.5
			c-1.1-1.6,0-3.4-0.9-5c-1.1-1.6-1.4-4.1-1.6-5.9c-0.2-2-1.1-3.6-1.6-5.2c-0.7-2.9-0.9-5.4-0.7-8.4v0.2c0.5-0.2,0.9-0.2,1.4-0.2
			c0.2-0.2,0.7-0.5,1.1-0.7c-0.5,0-0.9-0.5-1.4-0.7h-0.9c1.8-3.4,0.9-6.6,0.7-10c0,0-0.2-0.2-0.2-0.5c-0.2,0.2-0.9,0.5-0.9,0.7
			c-0.5,2.3,0.9,4.5-0.7,7.7c-0.2-4.3-0.9-7.7-0.9-11.1c-0.2-4.1-0.2-8.1-0.2-12.2c0-1.6,0-3.2,0.9-4.8c0.2-0.5,0.2-1.4,0.9-1.1
			s0.7,0.9,0.9,1.4c0.5,0.5-0.7,0.9,0.5,0.5c0-0.2,0.2-0.2,0.2-0.2c-0.2-4.3,1.8-4.1,1.1-8.4c-0.2-1.4-1.1-0.7-1.8-0.5
			c-0.2,0.2-0.7,0.2-0.7,0.2c-0.5-0.2-0.7-0.5-0.9-0.7c1.4-2,0.2-4.5,0.9-6.6c0.9-2.9,1.6-5.9,2.9-8.4c0.7-1.4,0.7-2.7,0.2-4.1
			c0-0.2-0.2-0.5-0.2-0.5c-0.2,0.2-0.7,0.2-0.7,0.5c-0.7,0.5-0.7,0.9-0.9,1.1c-0.2-0.2-0.7-0.5-0.7-0.7c0-2-0.2-3.6,0-5.2
			c1.4-3.8,0.7-7.9,0.9-12c0-2.3,0.7-4.8,0.9-6.8c0.2-2.3,0.2-4.5,0.5-6.8c1.1-4.5,1.4-9.3,1.6-13.6c0.2-3.8,1.6-7.2,1.1-10.9
			c0-1.1,0-1.8-0.2-2.9c0-0.5-0.5-1.1-1.4-0.9c-5,1.8-6.1,2-11.3,4.3c-0.9,0.7-2.5,0.5-3.6-0.7c-1.8-1.8-4.5-2.5-5.7-4.8
			c-0.7-1.4-2.7-1.6-4.1-2.3c-0.5-0.5-0.7-0.9-0.7-1.1c0.2-0.2,0.5-0.9,0.7-0.9c2-0.7,4.1-1.1,6.1-2c2.5-0.9,5.2-2.3,8.1-3.4
			c3.2-0.9,6.3-2.5,9.7-3.2h0.5c2.7-1.6,5.2-2.9,8.4-3.2c2.7-0.2,5.2-0.9,7.7-2c2.7-1.4,5.7-1.4,8.6-2c2.9-1.1,6.3-0.7,9.7-0.9h6.8
			c2,0,3.2,1.8,3.8,3.4c0.5,0.5,0,1.1-0.2,1.1c-0.9,0.7-2.3,1.8-3.4,2c-7.9,1.6-14.5,5.9-21,9.5c-0.9,0.5-1.8,1.6-1.8,2.9
			c0.2,3.8,0.2,7.5,0.2,11.5c0,3.4,0.7,6.8-0.7,10.2c-0.5,0.7-0.2,1.8-0.2,2.7c0.2,3.6,0.5,7.2-0.2,10.9c-0.7,2.9-0.2,6.3-0.2,9.5
			c0,3.6,0.5,7.7-0.7,11.5c-0.7,2.3-0.2,5-0.2,7.2c0,1.6,0.2,2.9-0.7,4.1c-0.5,0.2-0.5,0.9-0.5,1.4c2.5,2.5,0.5,5.2,0.5,7.7
			c0,0.5-0.5,0.9-0.7,1.4c-0.9,1.4,0.2,1.8,0.9,2.7c0.5,0.5,0.9,0.9,0.5,1.8l-0.7,9.3c-0.7,1.6,0.7,3.2-0.5,5.4
			c-0.5,0.9,0,2.9,0,4.5c-0.2,2,0.7,3.6,1.1,5.4c0.2,1.1,0.5,2.7,0.2,3.8c-1.8,4.5-0.7,8.6-0.7,13.1c0,2.3,0.5,5-0.2,7.2
			c-0.5,0.7-0.5,1.1-0.5,1.4c2,3.2,0.7,6.8,1.4,10.2c0.9,1.1,1.6-0.2,2.5-0.2l2.5-0.7c3.6-1.4,7.5-2.5,11.3-2.7
			c2.9-0.2,5.2,0.7,7.7,2.5c0.9,0.9,1.1,1.8,0.2,2.7c-0.9,0.9-1.8,2-2.9,2.7c-0.5,0.5-1.4,0.7-1.6,1.4c-1.8,4.3-6.3,5-9.7,7.2
			c-5.7,1.6-11.3,4.5-17,6.6c-4.5,1.8-8.6,4.1-13.6,4.5c-1.4,0.2-2.9,1.1-4.3,1.8C294.2,292.7,292.4,292.4,290.8,290.6z
			 M302.6,218.5c-0.5-0.5-0.7-1.4-1.4-1.1c-0.7,0.2-1.1,0.7-1.1,0.9c-0.5,1.8-0.5,3.6,0.2,5.2c0,0.2,0.9,0.5,1.1,0.5
			C302.6,222.3,302.8,220.5,302.6,218.5z M302.6,226.2c0-1.1,0-2-1.1-2c0,0.7,0,1.1,0.2,2l0.2,0.2
			C302.1,226.4,302.6,226.2,302.6,226.2z M304.8,180.5c0-0.2-0.2-0.5-0.5-1.1c0,0.5-0.2,0.7-0.2,0.7c0,0.5,0.2,0.7,0.2,1.4
			C304.6,180.9,304.8,180.7,304.8,180.5z"/>
		<path class="st0" d="M408.9,296.3c-0.2-0.5-0.7-1.1-0.5-1.8c0.9-3.8-1.6-6.8-3.4-9.7c-0.7-1.1-0.5-2,0.7-2.5
			c0.2-0.2,0.5-0.2,0.5-0.5c0-0.5-0.2-0.7-0.2-1.1c-0.7-2.9-2.7-10.6-2.7-13.8c0-2.9-2-5.4-1.8-8.1c0-0.5,0-1.4-0.2-1.8
			c-1.4-1.8,0-4.8-1.4-6.1c-1.4-2.3,0.5-3.6,0.5-5.7c0-1.8-0.2-3.8-0.2-5.7c-0.2-0.2-0.7-0.5-0.9-0.5h-0.2c0,0,0,0.2-0.2,0.5
			c-0.2,0.2,0,1.1-1.1,0.7c-1.1-0.9-2.5-0.7-3.8-0.5c-8.1,2.7-16.7,3.2-25.1,4.1c-1.4,0-2,0.9-2.7,2.3c-0.9,3.4-2.3,7-2.7,10.4
			c-0.5,2.9-0.2,4.3-2.3,6.1c0,0.9,0.2,1.8,0.2,2.7c0,2.7-0.9,5.7-1.4,8.8c-0.7,1.8-1.8,3.8-2.3,5.9c-0.2,2.3-0.9,4.1-1.1,6.3
			c-0.5,2.3-2.3,3.2-4.3,3.4c-1.1,0-3.2-0.5-4.3-0.2c-2.3,0.2,2.5-18.1-3.4-1.6c-0.9-1.4-2.3-3.6-1.4-4.8c1.8-2.3,1.4-5.4,2.3-7.9
			c0.7-3.2,0.9-6.3,1.4-9.5c0.2-0.5,0-0.9,0.2-1.4c2.9-4.3,1.4-8.4,3.4-12.7c1.1-2.3,0.2-4.3,1.4-6.3c0.7-1.4,0.5-2-1.1-2.3
			c-3.6-0.5-5.7-3.4-7.5-6.6c-0.5-0.5,0-0.9,0.5-1.1c0.5,0,1.1-0.2,2-0.2c1.6,0,2.9,0.2,4.3,0.2c4.3,0,5.4-0.5,5.9-4.3
			c0.5-5.7,2.5-10.6,3.6-15.6c1.1-5,2.7-9.7,2.5-14.5c0-1.1,0.2-1.8,0.9-2.7c1.6-4.8,2.7-9.7,4.1-14.7c0.5-2.9,1.1-5.9,1.6-8.8
			c0.7-4.3,2.5-7.9,3.2-12c0.7-3.6,1.8-7.5,2.9-10.6c0.9-2.7,0.5-5.4,1.4-7.7c1.1-2.5,1.8-5,1.6-7.5c-0.2-0.5,0-0.9,0-1.4
			c0.5-1.4,1.4-2.5,1.8-3.4c0.5-1.1,0.2-2.5,0.9-3.2c0.9-1.6-0.2-2.5,0.2-3.6c0.7-1.1,0.9-2.3,1.6-3.4c0.7-1.1-0.7-1.8-0.2-3.2
			c0.7-1.4,0.7-3.4,1.4-4.8c0.7-1.8,0.2-3.4,0.5-5c0-0.7,0.2-1.4,0.7-1.8c1.1-1.6,2.7-2.5,3.4-4.5c0.5-0.7,0.9,0.5,1.1,0.9
			c0.2,0.9,0.9,0.7,1.1,0c1.1-0.7,1.6-1.8,1.6-2.9c0-1.4,0.7-1.1,1.6-0.9c0.5,0.2,1.4,0.2,1.8,0c1.6-0.7,3.6-0.7,5.7-0.9
			c0.5,0,6.3-0.9,6.6-0.5c0.7,1.6,2.3,2.9,1.8,4.8c-0.2,1.4-1.4,2.7-0.7,4.3c1.1,1.6-0.7,2.9,0.7,4.3c0.2,0.2,0.2,0.7,0.5,1.1
			c0.7,7,1.6,13.6,1.8,20.4c-0.2,3.4-0.7,6.8,0.9,9.7c0.5,0.7,0.5,1.1,0,1.4c-1.8,4.1,0,8.6-1.8,12.7c-0.2,0.2,0.2,1.4,0.5,2
			c0.7,1.4,0.5,2.7,0,4.3c-0.7,1.4-0.9,3.6-0.2,5c1.8,3.6,0.7,7.7,1.1,11.5c0.2,2.3-1.6,3.8-0.9,6.3c0.2,1.6,1.4,3.2,0.9,5.2
			c-0.2,1.4-0.2,2.9-2.7,4.1c-0.7,1.6-0.7,3.6,0.2,5.7c0,0.2,0.5,0.7,0.7,0.9c-0.5,1.1-0.7,2.3-1.1,3.6h-0.5l-0.9,0.2
			c0,0.2,0.2,0.7,0.2,0.7c0.7,0,0.7-0.5,0.7-0.9c1.1,0.2,1.8,0.9,1.4,1.6c-0.9,1.6-0.5,2.5,0.9,3.4c0.7,0.5,1.1,1.6,0.5,2
			c0.9,1.4,2.5,3.2,2,5.2c-0.5,1.4,1.1,2.7,1.1,4.5c1.4,0.7,5.4,1.1,4.5,2.3c2,0.7,1.4,0.7,0.7,2c-0.2,1.1-0.7,2.5-2,3.4
			c-1.1,0.7-4.3,1.4-5.4,2c0.7,1.4,1.1,2.5,1.1,3.8c0,0.7,0,2,0.5,2.5c3.6,1.8,3.2,4.1,3.4,6.3c0.5,1.6-1.6,2.5-0.2,4.3
			c0.5,1.1,0.5,2.7,0.9,4.3c0.2,1.1,0,1.4-0.9,1.8c-1.1,0.5-3.4,2.3-2.9,2.7c4.1,0.9,3.6,2,3.8,3.6c0,1.4,0.9,2.5,1.1,4.1
			c0.2,1.4,0.9,2.5,1.1,4.3c-0.2,1.6,0.9,8.1,0.9,9.5c-0.5,0-0.7-0.2-0.9-0.2c-0.5-0.5-1.1-0.9-1.1,0.2c-0.2,0.7,0,1.6,0.2,2.5
			c1.4,3.2,1.6,6.8,3.2,10.2c-0.7,1.8,0,3.4,0,4.8c-0.2,1.6-1.8,2.3-2.9,1.8C417,297.9,410,298.3,408.9,296.3z M377,227.5
			c3.6-0.9,7.2-2.5,10.9-2c1.6,0.2,2.9-1.4,5-0.9c1.6,0.5,3.6-0.5,5.4-0.9c-0.7-2-2.3-3.4-2.3-5.7c-0.5-1.8,0-3.8-1.1-5.2
			c-0.2-0.2,0-0.9,0.2-1.1c2-2,1.1-4.1,0.5-5.9c-0.7-1.6-1.1-3.2-1.1-5c0-3.6-0.2-7.5-0.7-11.1c0-1.1,0.5-2.5-0.2-3.6
			c-2-5,0-10.4-2-15.4c-0.2-0.7,0.9-2,0.5-2.9c-1.4-4.5-0.7-9.3-1.1-13.6c-0.2-2.5-1.1-5.2-2-8.4l-3.2,11.8
			c-0.9,2.5-1.1,4.8-1.4,7.5c-0.5,2.7-0.9,5-0.9,7.7c0.2,2.3-0.2,4.5-1.6,7c-0.9,1.1-0.9,2.5-0.9,4.1c0,1.8,0.5,4.3-0.2,5.7
			c-1.1,3.2-2,6.6-2.9,10c-0.5,2.9-7,10.4-4.5,10c4.1-0.9,0.7,4.5-0.2,7.9c-1.1,3.6-1.8,7.7-2.9,11.5
			C372.5,228.2,374.9,228,377,227.5z M402.5,252c0-0.5-0.2-0.5-0.5,0l0.2,0.2C402.5,252.2,402.5,252,402.5,252z M403.7,260.8h-0.2
			c0,0.2-0.2,0.7,0,0.9c-0.5,0.5,0.2,0.7,0.2,0.7C404.1,262.4,404.4,261.2,403.7,260.8z M406.4,205.1c0.2,0.2,0.5,0.2,0.7,0.2
			C407.1,204.9,407.1,204.7,406.4,205.1z M408,215.1l-0.2,0.2c0,0.9,0.2,0.9,0.5,0.2C408.7,215.3,408.2,215.3,408,215.1z
			 M408.7,220.7c-0.5-0.2-0.5-0.5-0.7-0.5l-0.2,0.2c0,0.2,0,0.2,0.2,0.5C408,220.7,408.2,220.7,408.7,220.7z M410.9,286.3
			c0-0.2-0.5-0.7-0.7-0.9c0,0.2-0.7,0.2-0.5,0.5l0.2,1.1C410.2,286.6,410.9,286.6,410.9,286.3z M418.2,271.2l0.2-0.9
			c0-0.9-0.5-1.4-0.5-2l-0.7,1.8c0.2,0.5,0.2,0.7,0.2,1.1c0,0.2,0.2,0.2,0.5,0.5C417.9,271.4,418.2,271.4,418.2,271.2z"/>
		<path class="st0" d="M439.2,294.9c-2,0-3.2-1.6-2.7-3.8c0.2-0.5,0.5-1.1,0.5-1.6v-1.8c0.2-1.4-1.4-2.5-0.5-3.8
			c0.9-1.4-0.2-2.7-0.5-4.1c-0.5-2.5-0.9-3.2,0.5-5.7c0.7-1.1,0.5-2.5,0.2-3.6c-0.2-1.6,0.5-2.9,1.4-4.3h-0.2
			c1.1-0.5,1.4-1.4,1.1-2.3c-0.2-1.4-0.9-2.5-0.5-4.1c0.2-1.1,0.2-7.7-0.5-13.8c0-2.9,0.2-5.7,1.1-8.1c0.5-1.8,0.7-3.6,0.2-5.7
			c-0.5-2.5-0.9-5.4,0.7-7.9c0.2-4.8,1.4-9.3,1.4-14l1.1-3.8c-0.9-2.3,0.5-4.3,0-6.3c-0.2-0.5-0.5-0.7-0.7-0.5
			c-0.2,0.2-0.5,0.7-0.5,0.9c-0.2,0.2-0.5,0.2-0.5,0.2c-0.7-1.1-0.9-2.3-0.5-3.4c1.4-3.2,0.2-6.1-0.5-9.3c-0.2-1.1-0.7-2,0.2-3.2
			c0.9-1.6,1.6-3.2,1.4-5c0-0.7,0-1.4,0.2-1.8c0.5-0.9,1.6-1.6,1.6-2.5c0-0.9-0.9-1.8-0.7-2.7c0.2-0.5,0.5-0.7,0.5-0.9l0.7,0.9
			c0.2,0.2,0.2,0.5,0.5,0.5c0.2-0.2,0.5-0.5,0.5-0.7c0.5-1.6-0.7-2.5-1.8-3.4c-0.2-0.5-1.1-0.2-0.9-1.1c0.7-0.7,0.5-1.8,0.7-2.7
			c0-1.1,0.7-2.3,0.5-3.4c0-1.1-0.9-2-1.4-3.2c-0.7-2-0.7-4.3,0-6.3c0.9-2.5,0.9-4.5,0-7c-0.5-1.1-0.2-9.5-0.2-10.9
			c-0.2-4.3-0.2-8.6-0.2-13.1c0-1.8-0.2-3.4-1.6-4.8c-0.7-0.7-0.2-1.1,0.5-1.1c0.7-0.5,1.6-0.9,2-0.7c2.7,0.9,5,0.7,7.5,0
			c0.7-0.2,1.4-0.5,1.8-0.2c2.7,0.7,5.2,1.8,5.7,5.2c0.2,1.6,0.9,3.4,0.9,5.2s0,3.4,0.7,5.2c0.5,0.7,0.2,1.6,0.2,2.3
			c0.2,2.5,0.2,11.5-0.7,13.8c1.4,2.3,0.9,4.5,0.9,7c0.2,2.3,0,4.8,0,6.8c-0.5,0.2-0.9,0.5-0.7,0.9c0.2,0.2,0.5,0.5,0.9,0.5h-0.2
			c0.2,1.4,0.7,2.7,0.7,4.1c0,0.9-0.9,1.8-1.6,3.2c-0.2,0.7,0.2,1.1,0.7,0.9c0.7,0,1.4-0.5,1.4,0.5c-0.2,2-0.9,4.1-0.2,6.1
			c0.2,0.5,0,0.9-0.2,1.1c-2.3,1.8-1.6,4.3-1.8,6.6c0,1.4-0.2,2.7,1.6,3.4c0.5,0,0.5,0.9,0.7,1.6c0,0.7-0.2,1.1-0.9,1.6
			c-0.2,3.2,0,6.3-0.2,9.5c-0.2,1.1,1.1,2,0.9,3.2c-0.5,1.1-0.9,2-0.2,3.2c0.9,1.1-1.1,3.6-0.7,5c0,0.9,0.5,2.7-1.6,1.8
			c-0.2,0.2-0.5,0.7-0.5,0.9c0,0.2,0.5,0.9,0.7,0.9c1.1,0.2,1.6,1.4,1.1,2.3c-0.5,1.8-0.9,3.4,0.2,5v0.7c0,1.4-0.5,2.9-0.5,4.5
			c-0.2,1.4,0.7,3.2,0.2,4.5c-0.7,2.5-0.5,5.2-1.4,7.5c-0.9,2.9-1.6,5.7,0.2,8.6c0.5,0.7,0.5,2,0,2.7c-1.1,2.3-0.9,0.2-2,6.3
			c-0.2,0.9,0,2,0.5,2.7c0.7,1.6,0.7,3.2,0.2,4.5c-0.2,1.4-0.5,2.7-0.9,4.1c0,1.1,0,2,0.7,2.9c0.7,0.7,0.7,1.8,0.7,2.7
			c0,3.4,2.3,2.3,5,1.6c12.2-3.2,10.9-2.3,15.4-4.3c2,1.1,8.8-2,10.9-0.7c0.9,0.5,1.4,0.2,2.7,0c2.9,0-1.1,1.4,1.6,2.3
			c1.8,0.5,3.2,2.7,4.1,4.3c-2,0.7-13.1,2.3-15.8,3.8l-5.7,3.2c-3.2,2.9-12.2,5-14.3,8.6c-1.8,3.4-4.8,4.3-8.1,2
			c-1.6-1.1-1.6,0-2,0.5c-0.9,0.9-2,1.1-2.9,0.7C445.1,294.7,442.1,295.2,439.2,294.9z M451.9,225.3c0-0.5-0.2-0.5-0.5,0
			c0,0,0,0.2,0.2,0.5C451.6,225.5,451.9,225.5,451.9,225.3z M455.5,197.2c1.6-0.9,1.4-2.3,1.4-3.6c0-0.2-0.2-0.7-0.2-1.1
			c-0.7,0-0.7,0.7-0.9,1.1c-0.9,1.1-1.4,2.3-0.7,3.6H455.5z M455.5,164.2c-0.2,0-0.5,0-0.2,0.7C455.5,164.6,455.5,164.4,455.5,164.2
			z M456.8,184.5l-0.7-0.5c0,0.2-0.2,0.2-0.2,0.5c-0.2,1.1-0.2,2.3,0.5,3.4C457.1,187,457.1,185.9,456.8,184.5z M456.4,163.3
			l-0.5,0.7C456.4,164,456.6,164,456.4,163.3z M458,216.9c-0.2-0.5-0.5-0.5-0.7,0l0.2,0.5C457.7,217.3,458,217.1,458,216.9z
			 M459.1,175.9c0-0.2-0.2-0.5-0.2-0.5c-0.2,0-0.2,0.2-0.5,0.2c0.2,0.2,0.2,0.2,0.2,0.5C458.9,175.9,458.9,175.9,459.1,175.9z
			 M458.6,190.2c0.2,0.2,0.2,0.2,0.7,0.2C459.1,190,459.1,189.7,458.6,190.2z"/>
		<path class="st0" d="M517.5,285c-2.3-0.7-4.5-1.4-6.8-1.6c-1.6-0.2-2.9-1.4-4.1-2.3c-1.6-0.9-2.7-2.3-4.1-3.4
			c-0.9-0.7-1.8-1.1-1.4-2.3c0.2-0.5,1.1-1.1,1.6-1.8v0.2c0.5-0.5,0.9-0.9,1.1-1.4c0.5-4.3,1.1-8.6,1.1-12.9c0-4.3-0.5-8.6,0.7-12.9
			c0.5-2,0-4.3,0.2-6.6c0-2.7-0.2-5.4,0.7-8.1c0.7-2.5,0.2-5.4,0-8.1c0.2-0.2,1.1,0,0.5-0.9c0,0.2-0.2,0.7-0.5,0.9l-1.6,0.7
			c-0.2,0-0.5-0.2-0.5-0.7c-0.2-0.9,0.5-1.6,0.9-2c2-1.8,3.6-3.6,2.5-6.6c1.6-3.6,0.2-10.6,1.6-14.3c0.5-0.7-0.7-1.4-1.4-1.4
			s-1.4,0-1.8,0.2l-10.2,3.8c-0.9,0.5-1.8,0.5-2.7-0.5c-0.9-0.7-1.8-1.4-2.7-2.3c-0.7-0.7-0.9-1.6-0.9-2.7c0-0.9,0.5-1.6,0.2-2.7
			c-0.2-1.4,0.7-2.5,1.8-2.5c6.3,0.2,11.8-6.1,17.6-5.4c0.5,0,1.1-0.7,1.1-1.1c0.5-1.6,1.1-3.2,1.1-5c0-4.1-0.2-5.2,0.9-9
			c0.5-1.1-1.1-2.3-0.5-3.4c0.7-0.9,0.5-2.3,0.7-3.4c0.5-2-0.7-4.3,0.5-6.6c1.1-1.8-0.2-4.1,1.4-6.3c0.2-0.2,0.2-0.7,0.2-1.1
			c-0.2-4.3,0.9-8.6,1.1-12.9c0-2.5,1.1-4.8-0.2-7.2c-0.5-0.7,0.2-3.8,0.5-4.8c0-0.2,0-0.9-0.2-0.9c-0.5-0.2-1.1-0.5-1.6-0.2
			l-3.2,1.6c-2,0.9-3.4,3.4-5,1.8c-2.3-2-5,1.8-6.6,3.4c-1.1-0.9-2.7-0.7-4.3-1.6l-5-3.8c0.9-2,2.7-6.3,4.5-7l7.2-2.9
			c1.4-1.1,3.4,0.9,4.3-0.5c2-3.2,4.3-1.6,6.3-2.7c1.4-0.7,2.5,0.2,2.5-1.4c0-2,1.6-2.7,3.2-2.9c1.4-0.2,2.7-0.2,4.1,0.7
			s2.9,0,4.5-0.2l17.2-3.2c2.3-0.5,4.8,0,7-1.4c8.8-2,12.9-4.1,17-5.4c0.5-0.2,1.1,1.8,1.6,1.8c0.2,0,0.5,0.2,0.7,0.2
			c-0.7,1.4-1.6,3.6-2.9,4.3c-5,2.3-14.5,6.3-19.7,8.4c-1.8,0.7-3.6,0.7-5.4,1.4c-3.2,1.6-6.3,3.4-10,2c-0.7,0-1.4,1.1-2.3,1.8
			c-0.7,0.5-0.5,1.4-0.2,2c0.7,3.2,1.8,4.8,2,7.9c0.5,3.8,0.5,7.9,0.2,11.8c0,1.6-0.7,2.9-0.7,4.3v4.3c0,1.1-0.2,2.3-0.9,3.4
			c-0.2,0.7-0.2,1.6-0.2,2.3c0,1.6,1.1,3.4-0.7,4.8c0,0,0,0.5,0.2,0.5c2.9,1.1,0.7,2.9,0.2,4.3s-0.7,2.5,0,3.8s0.5,3.2,0.2,4.8
			c-0.2,0.7-0.5,1.4,0,2c0.5,0.9,0,1.8-0.9,1.8c-3.2,0.7-1.8,3.8-2.3,5.7c8.4,1.1,16.1-3.2,24.2-5c3.4-0.9,6.8-2.3,9.3-4.3
			c0.2-0.2,1.1-0.2,1.1,0c0.2,0.5,0.7,1.1,0.7,1.4c-0.5,1.1-0.7,2-1.6,2.7c-2.7,2.3-5.4,4.8-9,6.3c-8.6,3.2-16.3,8.8-24.4,10.2
			l-0.7,0.7l1.1,0.5c0.9,0.9-0.7,1.8,0.2,1.6c-1.6,3.8-1.6,8.1-2.9,12c-0.7,1.6-1.4,3.2,0,5c0.2,0.2,0,1.1-0.2,1.6
			c-0.5,1.1-0.7,2.3-0.7,3.4c0.2,0.7,0.9,1.6,0.7,2.3c-0.2,1.4-0.7,2.5-0.9,3.8c-0.2,0.5-0.9,0.9,0,1.4c0.5,0.2,0.9,0,1.6,0
			c0-0.2,0-0.2,0.2-0.2l2.9-2.3c0.2,2.3-0.9,4.1-0.7,6.1v5.2c0.2,3.2,0,3.2-3.4,4.5v3.4c-1.6,0.5-0.9,1.8-1.1,2.7
			c0,0.2,0.5,0.2,0.7,0.5c0.2-0.7,0.5-1.4,0.5-2v-1.1l3.4-2.3c0.2,5.7,0.5,11.3,0.2,16.7c0,1.1-0.7,2-0.9,3.2h-0.2
			c-0.7,0.5-1.1,0.2-0.5,1.1c0.2-0.2,0.5-0.9,0.5-1.1c1.4,0.5,0.9,1.6,1.4,2.5c-0.5,0-1.4-0.2-0.5,0.7c0.2,0.2,0.5-0.2,0.5-0.7v-0.2
			c2.9,0,5.4,0.7,8.4-0.2c4.3-1.6,8.8-2.9,13.6-3.8c4.5-1.1,9-2,13.8-2.5c2-0.5,4.3-0.9,6.3-1.6c1.4-0.7,2.5-0.5,3.8,0.2
			c1.1,0.2,2.5,0,2.7,1.6c0.5,2,0.2,4.1-1.8,5.2c-3.2,1.8-6.1,4.1-9.5,5.2c-1.4,0.5-2.5,1.1-3.8,1.8c-2.9,1.6-5.9,2.7-8.8,4.3
			c-2.7,1.8-5.9,2.5-8.6,3.8c-4.8,2.7-10,2-15.2,3.8c-3.6,1.4-7.2,1.6-10.6,3.6C518.6,285.4,517.9,285.2,517.5,285z M525.8,237
			c0.2-1.4,1.8-2.7,1.1-3.8c-1.1-1.6,0-2.9,0-4.3c0-0.9-0.2-1.6-0.9-1.6c-0.2,1.1-0.2,1.8-1.4,2.3c-0.5,0.2-0.9,0.7-0.9,1.4
			c-0.5,1.8,1.6,3.4,0,5.2c0,0,0,0.2,0.2,0.5s0.5,0.5,0.9,0.7C525.1,237.7,525.6,237.5,525.8,237z M524.2,239.5l-0.2,0.2
			c0.5,0.2,0.7,0.5,0.9,0.5C524.7,239.7,524.9,239.3,524.2,239.5z M526.1,258.3c-0.5,0-0.7,0-0.2,0.7
			C526.1,258.7,526.1,258.5,526.1,258.3z M527.2,257.6c0.2-0.7,0-0.7-0.5-0.5c-0.2,0.2-0.2,0.5-0.2,0.7
			C526.7,257.8,527,257.8,527.2,257.6z"/>
		<path class="st0" d="M573.1,297.9c-0.5-0.7-0.7-1.4,0-2.3c0.5-0.9,1.6-1.8,1.6-2.7c0.2-1.6,0.7-3.4-0.2-5.2
			c-2.3,1.4-2.9,3.6-3.6,5.9c0,0.9-0.5,1.6-1.1,2.3c-0.5,0.5-0.7,0.5-1.1,0c-1.6-1.4-2-3.6-0.9-5.2c0.2-0.5,0.7-0.9,1.1-1.4
			c2.5-2.5,4.5-5.2,5.2-8.6c0.2-0.9,1.1-0.9,2.3-0.5c0.9,0.7,1.6,0.2,1.1-0.7c-1.4-2.7,0.2-4.5,2-5.9c0.5-0.2,1.4,0.9,2-0.5
			s1.4-2.5,2-4.1c0.5-1.4,2.9-0.7,3.2-2.5v0.2c0.9-0.5,1.6-1.4,2-2.3c-0.7-0.5-1.6-0.7-2.3-1.1c-1.1-0.7-2.7-0.9-2.9-2.3
			c-0.5-1.4-0.7-2.7-0.7-4.1v-7.2c0.2-2.7,0.7-5.2,0-8.1c-0.5-1.4-0.2-2.9,0-4.5c0.2-1.4,0.9-2.7,0-4.1c-0.5-0.5,0-1.8,0.5-2.5
			c0.7-1.4,0.9-2.9,0-4.3c-0.7-1.1,0.7-2,0.7-2.9v-25.3c0-0.9-0.2-1.8-0.5-2.5c-0.5-1.1-0.5-2,0-3.2c0.5-1.4,0.2-3.2,0.9-4.3
			c1.1-1.8-0.7-2.7-0.2-4.3c0.2-1.1,0-2.5,0-3.8c0.2-2.3,0.7-4.8,0.5-7c-0.5-2-0.5-4.3-0.5-6.3v-7.2c0-2.5-0.2-5-0.9-7.5
			c-0.5-1.4-0.5-2.7-0.5-3.8v-14.9c-0.2-1.4-0.9-2.5-0.7-3.6c0.2-1.1,1.1-2.3,1.8-3.4c0.5-0.5,0.7-1.1,1.6-1.1
			c2.9,0.2,5.7-1.1,8.6-1.6c2.3-0.2,4.3,0.7,4.3,2.7c-0.2,2.7,1.4,5.4,1.4,8.1c-0.2,2.7,0.2,14.3,0,17c-0.2,2,0.9,3.8,0.2,6.1
			c-0.7,1.8-0.7,3.8,0.2,5.9c-1.1,2.3,0.2,5,0,7.2c-0.5,2.5-0.5,5.2-0.5,7.7c-0.2,2.7-0.2,5.2-0.2,7.9c0.2,1.4-0.5,2.5-0.9,3.6
			c-0.2,0.5-0.2,1.4,0.5,1.6c1.1,0.5,1.6,0.7,0.7,1.6c-0.9,0.9-1.4,1.6-0.7,2.9c0.5,0.7,0.2,1.6,0.5,2.5c0.5,1.8-1.1,3.6-0.2,5.7
			c0.7,1.4,0.2,3.4,0.5,5c0,4.3,0.2,8.8-2,12.7c-0.2,0.2,0.2,0.7,0.5,0.9c0.5,0.5,1.4,0.2,0.9,1.4c-0.7,1.1-0.9,2.3-0.5,3.6
			c1.1,3.4,1.1,5.4,0,8.8c-1.1,3.2-1.6,6.6-1.8,10c0,2.3,1.4,1.4,2.5,1.4c0.5,0,1.1,0.9,1.4-0.2c0.5-1.1-0.2-3.2,2.3-2
			c0.2,0,1.1-0.7,1.4-1.4c1.1-2.3,2.9-4.1,4.5-6.1c1.6-1.8,3.2-3.4,4.1-5.7c0.7-1.6,1.1-3.4,3.2-3.8c0.5,0,0.7-0.9,0.9-1.6
			c0.7-0.9,1.4-1.6,1.8-2.7c0.7-1.4,1.6-2.7,2.9-3.4c1.8-1.4-0.9-3.2,0.5-4.1c2.7-1.6,2.5-4.8,4.5-6.6c0.9-4.1,3.8-7.2,5.9-10.9
			c2-3.8,4.5-7.7,5-12.4c0-0.9,0.5-2,0.9-2.9c0.5-1.6,1.1-2.9,1.1-4.3c0.2-4.8,1.6-9,2.7-13.3c0.7-2,0.7-4.3,0.5-6.8
			c-0.5-3.8-0.2-7.7-0.2-11.5c0.2-3.8-0.2-7.2-2.3-10.6c-1.8-2.5-2.9-5.7-4.3-8.6c-2.3-5-6.6-8.6-11.5-11.1c-5.9-2.9-12-5.4-19-5.4
			c-2.3-0.2-4.5-0.9-6.8-1.1c-3.4-0.2-6.8,0.2-10.2,0.9c-3.4,0.5-6.8,1.4-10.2,2c-3.6,1.1-7.2,2-10.9,3.8c-1.4,0.9-2.7,1.8-4.3,2.7
			c-3.8,2.3-7.7,4.3-11.8,6.8c-1.1,0.7-2.3,1.1-3.2,2c-1.8,2.5-4.3,2.7-7,2.5h-4.5c-0.7,0.2-1.4,1.1-2-0.2c-0.2-0.9,0.2-1.6,0.7-2.3
			c0.2-0.5,0.5-0.9,0.9-1.1c5.2-3.4,9.7-7.5,15.2-10.9c5.9-3.6,12.4-5.9,18.5-9c2.9-1.6,6.3-0.9,9.3-2.5c7.7-1.4,15.6-2.9,23.5-2.7
			c7,0.5,13.8,1.6,20.1,4.3c2.3,1.1,5,0.9,7,2.9c1.6,1.6,4.1,2.3,6.1,3.6c6.8,4.5,12.2,10.2,14.7,18.3c0.2,1.1,1.4,2.3,2.9,1.1
			c0,0.2,0.2,0.7,0.2,1.1c0,0.5-0.7,1.6-0.7,1.6c1.8,2,1.8,4.3,2.7,6.6c0.7,2,0.5,4.3,1.1,6.3c1.6,3.6,1.1,7.2,1.1,10.9
			c0.2,2.7-0.7,5.7,0.5,8.4c0.5,0.9,0,1.6-0.5,2.3c-1.1,1.8-1.4,3.6-1.4,5.4c0.2,2,0,4.1,0,5.9c-0.2,2-0.2,3.6-2,5.2
			c-1.6,1.1-2.3,3.6-3.2,5.4c-0.5,0.9,1.1,1.8,0.9,2.3c-2,3.8-1.6,8.6-4.8,11.8c0,1.6-1.4,2-2,3.2c-0.5,0.9,0.9,1.8,0,2.9
			c-0.9,1.4-0.7,3.6-2.3,4.8c-1.4,0.9-0.2,2.9-1.8,3.8c0,0.2-0.2,0.2-0.5,0.2c-2.3,2.5-3.2,6.1-6.1,8.4c-0.5,0.5-0.7,1.1-0.9,1.8
			c-0.9,3.4-2.9,6.1-4.8,8.8c-0.9,1.1-1.6,2-2,3.2c-1.4,3.6-3.8,6.8-6.6,9.5c-1.6,1.4-2.9,2.9-4.3,4.5v0.2c0-0.7-0.2-1.1-0.9-1.1
			c-0.2,0.2-0.2,0.7-0.5,0.9c-0.2,0.2-0.7,0.2-0.7,0.5c-0.2,0.7,0.2,0.9,0.9,0.9h-0.2c-0.5,1.8-2.9,0.7-3.6,2s-1.8,2-2.7,2.7
			c-2.9,1.6-3.8,5.7-7.7,6.3c-1.1,2.9-3.8,4.5-5.7,6.8c-0.9,1.1-1.8,1.6-3.2,0.9c-0.2-0.2-1.4,0.9-1.4,1.1c1.1,2.7-2,2.9-2.7,4.8
			c-0.5,1.8-2.3,3.2-3.4,4.8c-0.2,0.2-0.9,0.2-1.1,0.2c-1.1-0.5-0.2-0.9,0-1.4c0.9-1.6,1.8-2.9,2.7-4.3c0.2-0.7,0-1.1,0.2-1.8
			c-1.6,0-2,1.4-2.5,2.3c-0.5,0.7-0.7,1.6-1.6,1.6c-1.8,2.5-3.2,5.2-5.9,7c-0.5,0.5-0.5,1.1,0,1.8c0.2,0.5,0.9,1.1,0.7,1.6
			c-0.9,1.6-1.1,3.6-3.2,4.8C574,299.5,573.6,298.6,573.1,297.9z M575.6,285.7l-0.7-0.7l-0.7,0.7c0,0.2,0.2,0.5,0.2,0.5
			C574.9,286.1,575.4,285.9,575.6,285.7z M582.6,283.8c0-0.5-0.2-0.9-0.5-1.1c-0.2,0.2-0.5,0.2-0.5,0.5c0,0.5,0,0.9,0.2,1.1l0.7,0.5
			V283.8z M587.4,221.2c0.5-1.8,0-3.8,0.5-5.7c0.5-1.1,0.5-2.5,0.5-3.6c0-3.6-0.9-7.5-0.9-11.1l-0.2-1.6c-0.2,2.5-1.1,10.4-1.1,16.5
			c0,3.2,0.2,5.7,0.7,7C586.9,223.2,587.4,221.6,587.4,221.2z M588.9,238.4c0-2.9-0.7-5.2-2.5-5.7c0,2,0,4.1,0.2,5.7
			c0.5,2.9,0.7,5.4,0.7,8.4v2C587.8,247.4,588.9,242.4,588.9,238.4z M587.8,279.3c0-0.2-0.2-0.2-0.5-0.5c0,0-0.5,0.2-0.5,0.5
			c0,0.5-0.2,0.9-0.2,1.6C587.8,280.9,588,280.2,587.8,279.3z M591.9,226.6c0-0.7,0-1.1-0.2-1.8l-0.9-1.4c-1.6,1.8-2.3,3.4-2.3,4.5
			c0,1.4,0.7,2,1.4,2C590.7,230,591.9,228.9,591.9,226.6z M598.2,270.7c-0.5,0-0.7,0.2-0.7,0.5c-0.2,0.2,0,0.7,0.5,0.5
			C598.2,271.4,598.2,271.2,598.2,270.7z M599.6,268.2c-1.1,0.5-1.1,1.4-1.1,2.3C599.8,270.3,599.6,269.1,599.6,268.2z M600.2,267.1
			c-0.2,0.5-0.5,0.5-0.5,0.9C600.2,268,600.7,268,600.2,267.1z M609.7,241.1c0-0.5-0.2-0.7-0.2-1.1c-0.2,0-0.5,0.2-0.5,0.2
			c-0.2,0.7,0,1.4,0.5,1.4C609.5,241.3,609.7,241.1,609.7,241.1z M640.3,220.5v0.2c0.2,0.2,0.5,0.2,0.9,0.2
			C641,220.7,641,220.3,640.3,220.5z"/>
		<path class="st0" d="M709,290.6c-1.6-1.6-4.3-1.8-5.2-4.3c0-0.2-0.9-0.5-1.1-0.7c-2.7-0.9-4.1-2.7-4.8-5.2
			c-0.5-1.4-1.4-2.5-0.2-3.8c0.7-0.9,2.3-0.7,3.2-0.5c5,2.7,9.7,0.5,13.8-1.1c4.3-1.1,3.6-3.4,7.7-4.8c1.1-0.2,2-1.4,1.1-2.5
			c-1.1-1.6,0-3.4-0.9-5c-1.1-1.6-1.4-4.1-1.6-5.9c-0.2-2-1.1-3.6-1.6-5.2c-0.7-2.9-0.9-5.4-0.7-8.4v0.2c0.5-0.2,0.9-0.2,1.4-0.2
			c0.2-0.2,0.7-0.5,1.1-0.7c-0.5,0-0.9-0.5-1.4-0.7H719c1.8-3.4,0.9-6.6,0.7-10c0,0-0.2-0.2-0.2-0.5c-0.2,0.2-0.9,0.5-0.9,0.7
			c-0.5,2.3,0.9,4.5-0.7,7.7c-0.2-4.3-0.9-7.7-0.9-11.1c-0.2-4.1-0.2-8.1-0.2-12.2c0-1.6,0-3.2,0.9-4.8c0.2-0.5,0.2-1.4,0.9-1.1
			s0.7,0.9,0.9,1.4c0.5,0.5-0.7,0.9,0.5,0.5c0-0.2,0.2-0.2,0.2-0.2c-0.2-4.3,1.8-4.1,1.1-8.4c-0.2-1.4-1.1-0.7-1.8-0.5
			c-0.2,0.2-0.7,0.2-0.7,0.2c-0.5-0.2-0.7-0.5-0.9-0.7c1.4-2,0.2-4.5,0.9-6.6c0.9-2.9,1.6-5.9,2.9-8.4c0.7-1.4,0.7-2.7,0.2-4.1
			c0-0.2-0.2-0.5-0.2-0.5c-0.2,0.2-0.7,0.2-0.7,0.5c-0.7,0.5-0.7,0.9-0.9,1.1c-0.2-0.2-0.7-0.5-0.7-0.7c0-2-0.2-3.6,0-5.2
			c1.4-3.8,0.7-7.9,0.9-12c0-2.3,0.7-4.8,0.9-6.8c0.2-2.3,0.2-4.5,0.5-6.8c1.1-4.5,1.4-9.3,1.6-13.6c0.2-3.8,1.6-7.2,1.1-10.9
			c0-1.1,0-1.8-0.2-2.9c0-0.5-0.5-1.1-1.4-0.9c-5,1.8-6.1,2-11.3,4.3c-0.9,0.7-2.5,0.5-3.6-0.7c-1.8-1.8-4.5-2.5-5.7-4.8
			c-0.7-1.4-2.7-1.6-4.1-2.3c-0.5-0.5-0.7-0.9-0.7-1.1c0.2-0.2,0.5-0.9,0.7-0.9c2-0.7,4.1-1.1,6.1-2c2.5-0.9,5.2-2.3,8.1-3.4
			c3.2-0.9,6.3-2.5,9.7-3.2h0.5c2.7-1.6,5.2-2.9,8.4-3.2c2.7-0.2,5.2-0.9,7.7-2c2.7-1.4,5.7-1.4,8.6-2c2.9-1.1,6.3-0.7,9.7-0.9h6.8
			c2,0,3.2,1.8,3.8,3.4c0.5,0.5,0,1.1-0.2,1.1c-0.9,0.7-2.3,1.8-3.4,2c-7.9,1.6-14.5,5.9-21,9.5c-0.9,0.5-1.8,1.6-1.8,2.9
			c0.2,3.8,0.2,7.5,0.2,11.5c0,3.4,0.7,6.8-0.7,10.2c-0.5,0.7-0.2,1.8-0.2,2.7c0.2,3.6,0.5,7.2-0.2,10.9c-0.7,2.9-0.2,6.3-0.2,9.5
			c0,3.6,0.5,7.7-0.7,11.5c-0.7,2.3-0.2,5-0.2,7.2c0,1.6,0.2,2.9-0.7,4.1c-0.5,0.2-0.5,0.9-0.5,1.4c2.5,2.5,0.5,5.2,0.5,7.7
			c0,0.5-0.5,0.9-0.7,1.4c-0.9,1.4,0.2,1.8,0.9,2.7c0.5,0.5,0.9,0.9,0.5,1.8l-0.7,9.3c-0.7,1.6,0.7,3.2-0.5,5.4
			c-0.5,0.9,0,2.9,0,4.5c-0.2,2,0.7,3.6,1.1,5.4c0.2,1.1,0.5,2.7,0.2,3.8c-1.8,4.5-0.7,8.6-0.7,13.1c0,2.3,0.5,5-0.2,7.2
			c-0.5,0.7-0.5,1.1-0.5,1.4c2,3.2,0.7,6.8,1.4,10.2c0.9,1.1,1.6-0.2,2.5-0.2l2.5-0.7c3.6-1.4,7.5-2.5,11.3-2.7
			c2.9-0.2,5.2,0.7,7.7,2.5c0.9,0.9,1.1,1.8,0.2,2.7c-0.9,0.9-1.8,2-2.9,2.7c-0.5,0.5-1.4,0.7-1.6,1.4c-1.8,4.3-6.3,5-9.7,7.2
			c-5.7,1.6-11.3,4.5-17,6.6c-4.5,1.8-8.6,4.1-13.6,4.5c-1.4,0.2-2.9,1.1-4.3,1.8C712.4,292.7,710.6,292.4,709,290.6z M720.8,218.5
			c-0.5-0.5-0.7-1.4-1.4-1.1c-0.7,0.2-1.1,0.7-1.1,0.9c-0.5,1.8-0.5,3.6,0.2,5.2c0,0.2,0.9,0.5,1.1,0.5
			C720.8,222.3,721,220.5,720.8,218.5z M720.8,226.2c0-1.1,0-2-1.1-2c0,0.7,0,1.1,0.2,2l0.2,0.2
			C720.4,226.4,720.8,226.2,720.8,226.2z M723.1,180.5c0-0.2-0.2-0.5-0.5-1.1c0,0.5-0.2,0.7-0.2,0.7c0,0.5,0.2,0.7,0.2,1.4
			C722.8,180.9,723.1,180.7,723.1,180.5z"/>
		<path class="st0" d="M773.7,291.1c0-0.5,0.2-0.7,0.2-0.7c0.9,0,1.8-0.2,1.1-1.4s-1.4-1.8-2-2.5c-0.7-1.1-1.1-1.8-0.5-2.9
			c0.7-1.1,1.1-2.3,1.8-3.6c0.2-0.9-0.2-1.4-1.4-0.7c-0.2,0.2-0.7-0.2-0.5-0.5c1.4-4.1,1.1-8.4,0.5-12.2c-0.2-1.1,0.7-1.6,0.5-2.3
			c-0.5-1.8,1.6-2.5,0.9-4.3c-0.9-1.4,0.5-2.5,0.5-3.8c0-1.8,0.2-3.2,0.2-4.5c0-2.3,0.2-4.3-0.9-6.8c-0.5-0.7-0.2-2,0-3.2
			c-0.2-1.4,0-2.5-0.7-3.8s-0.5-2.9-0.5-4.3c-0.5-2.3,0.7-4.5,0.5-7c-0.2-2-0.2-4.3-0.2-6.6l0.2-7c0-1.1,0-1.8,0.9-2.5l-0.9-5
			c-0.2-2,0.2-4.3,0.2-6.3c0-5.7,0.2-11.3,0-17c0-1.8,0.2-3.4-0.2-5c-0.5-2,0.9-3.2,0.5-5c-0.2-0.7-0.5-0.9-0.9-1.1
			c0.2-0.5,0.5-1.1,0.9-1.4c0.9-0.2,1.4-0.9,0.9-1.6c-0.7-1.6-0.7-3.2-0.5-4.5c0-4.3,0-8.4-0.2-12.4c0.2-2.7,0.9-5.9-0.2-8.4
			c-1.1-2.3,0.5-5.2-1.1-7.2c-0.5-0.7-0.2-1.4,0-2c0.2-0.5,0.7-1.4,0.5-1.8c-1.6-4.1-0.2-8.1-0.7-12.2c0-0.9,0.2-2.3,0.5-2.9
			c0.7-1.8,1.4-4.1,2.7-5c1.6-1.4,3.6-2,5.4-2.7c0.9-0.2-2.3-0.2-1.1-0.7c3.4-1.8,4.8-0.9,7,2.5c2,3.2,4.3,6.6,5.2,10.6
			c0.5,2.5,5.9,5,6.8,7.5c1.6,3.6,1.8,7.7,2.7,11.8c0.2,1.1,0.2,2.3,0.9,2.9c1.6,3.2,1.8,6.3,1.4,9.5c-0.2,0.5,0,1.1,0,1.8
			c1.4,0.2,1.6,2,1.8,2.9c0.7,3.2,1.4,6.8,2.5,10c0.5,1.1,0.5,2.5,0.2,3.8c0,1.1,0.2,2.3,0.7,3.2c1.1,2,1.6,4.3,1.4,6.8
			c0,0.9,0.5,1.6,0.7,2.5c0.9,2.7,1.4,5.4,1.6,8.1c0.7,4.3,1.1,8.4,2.7,12.7c3.6,5.7,5,15.8,8.1,20.1c1.1-0.9,2.5-1.6,1.6-2.7
			c-0.2-0.2-0.2-0.9,0-1.1c1.1-1.4,0.2-9.3,0.2-11.1c-0.2-1.4,0-2.5,0.2-3.6c0.2-1.1,0.5-1.6-0.2-2.3c-1.6-2.3-1.4-4.8-0.2-7.2
			c0-0.2,0-0.2,0.2-0.2c0.5-2.3-1.6-4.3-0.7-6.8c0-0.2,0.2-0.5,0.2-0.5c0.2,0,0.7,0.2,0.7,0.5c0.2,0.2,0.2,0.5,0,0.7
			c0.2,0,0.2,0.2,0.5,0.2c0,0.2,0.2,0,0.5-0.2c0.7-0.7,0.7-1.6,0.2-2.5c-0.5-0.9-0.7-1.4,0.2-2.7c0.7-0.7,0.9-2,1.6-2.9
			c0.7-1.1,0.7-2,0-2.9c-0.5-0.9,0-2-0.7-2.9c-0.2-0.7-1.4-1.1-1.6-1.6c-0.5-0.7,0-1.8,0.9-2v-2.5c-0.5-5.9,0.5-11.8,1.8-17.6
			c0.7-2,0-4.1,0.9-5.9c0.2-0.9-0.5-1.8-0.7-2.5c-0.2-0.9-0.5-1.6,0-1.8c1.8-0.9,1.8-2.7,2.3-4.5c0-1.6,0.5-3.2,0.7-5
			c0.9-9.3,2.5-11.5,1.1-14.3c0.9-3.2,1.8-6.3,2.5-10l0.7-0.9c1.4-2.3,2.7-4.3,4.3-6.3c0.5-0.5,1.4-0.7,2-0.2
			c0.5,0.2,0.9,1.1,0.9,1.6c0.2,0.9,0.2,2.3,0.2,3.2c0,1.1,0.2,2,0.7,3.2c1.1,2.5-0.2,5.2-0.7,8.1c-0.2,1.6-1.8,3.4-2,5.2
			c0,1.6-0.9,10.4-1.4,12c-0.2,0.9-0.7,2.5-2.5,1.1c0,0-0.2,0-0.2-0.2v0.2c-0.2,0-0.5,0.2-0.5,0.7c-0.2,1.8-0.7,3.6,0.2,5.7
			c1.6,3.2,1.4,6.3,0.2,9.7c-1.4,4.1-1.4,8.6-0.9,12.9c0.2,1.1,0,2.3,0.5,3.4c0.5,1.4,0.5,2.5,0.5,3.8c-0.7-0.5-1.4-1.1-2.3-1.8
			c-0.5-0.2-0.9-0.5-1.1-0.7c-0.5,1.1-0.9,2.3-1.1,3.4c-0.2,0.5,0.2,1.4,0.7,1.1c1.1-0.5,2.3-0.7,3.4-1.1c0.2,0,0.2-0.7,0.5-0.9
			c0.5,0.2,1.1,0.5,1.6,0.9c0.2,0.2,0.5,0.7,0.5,1.1c0,0.2-0.7,0.5-0.9,0.7c-0.5,0.2-0.7,0.7-1.1,1.1l-1.4-0.7
			c-0.5-0.2-0.7-0.2-0.9,0.2c-0.2,1.4-0.5,2.3,0.2,3.2c0.7,0.9,0,1.1-0.7,1.4c-0.7,0-1.1,0.7-0.5,1.1c2.5,2.3,2.3,5.7,1.6,8.4
			c-0.5,1.6-0.7,2.7-0.2,4.1c0.5,2,0.9,4.1,0.5,6.1c-0.5,1.6-0.2,3.4-0.5,5.2c0,0.2,0.5,0.5,0.9,0.5c0,0,0.2-0.2,0.2-0.5
			c0.5-1.4,0-2.5,1.1-4.1c0,2.9,0.7,5.9-0.9,8.1c-0.2,0.9-0.2,1.8,0,2.5c0.5,1.1,0.9,2,0,3.2c-0.2,0.2,0,1.1,0.2,1.6l1.1,4.3
			c0.7,1.6,0.9,2.9,0.5,4.5c-0.5,0.9-0.7,1.8,0.2,2.7c0.7,1.1,0.7,2.5,0.9,3.6c0.2,2-0.9,3.6-0.5,5.9c0.7,1.6,0.2,3.6,0,5.7
			c0.2,2,0.2,3.8,0,5.9c0,2,0.5,4.1-0.2,5.9c-0.5,0.5,0,0.7,0.2,1.4c1.4,1.4,2.5,2.5,1.4,4.8c-0.2,0.7,0,1.8,0.2,2.5
			c1.1,2.5,0.5,5.2,0.5,7.7c0,1.4-0.9,2.7-1.4,4.3c-2,0-2.3,3.2-4.8,2.7c-0.2-0.2-0.9,0-1.1,0c-1.1,0.7-1.1,2.5-2.7,2.5
			c-1.1,0-2.3,0-3.4,0.7c-2,0.9-4.1,0.9-5.2-1.1c-0.7-1.1-1.6-1.1-2.5-1.1c-1.1,0-1.8-1.6-3.2-0.5c-0.5,0.5-1.6,0.5-1.1-0.9
			c0.2-0.7-0.5-1.1-0.7-1.6c-1.4-2.9-1.4-2.9,0.7-6.6c0.2-0.2,0.2-0.9,0.5-1.4c0.2-1.1-0.7-2-0.9-2.9c-0.7-4.3-5-10.4-5.7-14.7
			c-0.2-0.7-0.9-1.6-1.4-2.3c-2-2.3-2.3-5.2-2-8.1c-1.6-0.9-0.7-4.1-2.9-4.5c0,0,0-0.7,0.2-0.9c1.8-2.7,1.8-5.4,0.7-8.6
			c-0.9-2.3-1.4-4.3-1.4-7.2c-1.6,1.8-0.9,3.6-1.6,4.8c-0.2,0-0.5-0.2-0.5-0.5c-0.2-2.5,0-5-2-6.6c0.2-1.8,0-3.4,0-5
			c1.6-1.8,1.1-4.5,0.7-6.8c-0.5-2.3-0.7-4.8-0.7-7c-0.2-1.8-2.5-3.4-3.8-4.8c-0.9-0.9-0.7-2.5-0.7-3.6l-0.7-5.4
			c-2.3-0.9-1.4-2.3-0.7-3.6c0.5-1.1-2.9-2.9-2.3-3.8c0.7-1.6,0.9-2.3-0.9-2.9c-0.7-0.2-0.5-4.1-0.9-5.4c-0.5-2.9-2-3.6-2.3-6.6
			c-0.2-2-0.7-3.8-1.8-5.2c-0.7,0.7-0.7,1.8-0.5,2.9c1.4,3.6,0.9,7.7,0.9,11.3c0,2.9-0.5,5.9,0.7,8.4c-1.1,2.3,1.1,4.8,0,6.8
			c-0.2,0.5-0.5,0.9-0.5,1.1c0.9,5.7,0.5,11.1,0.2,17c0,1.6,0.9,3.8,0.5,5.7c-0.2,2,0.5,3.6,0.7,5.4c0,2.7-0.2,5.7-0.2,8.4
			c-1.6,2,0.7,4.5-0.9,6.3c0.5,1.6,0.7,2.9,0.9,4.5c0.5,1.4,1.6,3.2,0.2,4.8c0.9,1.8,0.5,3.6,0.5,5.4c0.2,7.2,0,14.7,0,22.2v1.1
			c0,2.9-1.1,5.4-0.5,8.6c0.5,2.9,0,5.9,0,8.6c0.2,2.5,0,3.4-2.9,2.9c-1.4-0.2-2.9-0.5-2.5,2.3c-1.8,0.2-3.2,1.6-4.5,2.5
			c-0.5,0.2-0.9,0.2-1.1,0.2C778.9,291.3,776,292.2,773.7,291.1z M775.1,236.3c-0.2-0.5-0.2-0.9-0.2-0.9c-0.7,0.5-0.7,0.7-0.2,1.1
			C774.6,236.6,774.9,236.1,775.1,236.3z M774.6,210.6c0,0.5,0,0.9,0.7,0.9C775.1,211,775.1,210.8,774.6,210.6z M803.8,155.1
			c-0.2,0-0.5,0-0.7,0.2l0.5,0.5C803.6,155.6,803.8,155.4,803.8,155.1z M807.7,238.8c0,0.7-0.2,0.9-0.2,1.1
			C807.7,239.7,808.1,239.7,807.7,238.8z M826.4,197.4c0-0.5-0.2-0.5-0.7-0.7v1.1c0,0.2,0.2,0.7,0.5,1.1
			C826.7,198.3,826.7,197.9,826.4,197.4z M826.7,201.1c-0.2-0.5-0.5-0.5-0.7,0c0,0.5,0.2,0.5,0.2,0.7L826.7,201.1z M828,173.7
			c-0.2,0-0.5-0.2-0.7-0.5c0,0.5,0,0.9,0.7,1.1V173.7z M830.7,157.4c0.2-0.2,0-0.2-0.2-0.5c0,0.2-0.2,0.5-0.2,0.7
			c0,0.2,0.2,0.5,0.2,0.9C830.7,158.1,830.7,157.8,830.7,157.4z M833.9,188.4c0-0.2-0.2-0.2-0.2-0.2c-0.2,0.5-0.5,0.7-0.5,1.4
			l0.5,0.5C833.9,190,834.1,188.8,833.9,188.4z M833.9,197.2c-0.2,0-0.5,0.2-0.7,0.2c0.2,0.2,0.5,0.5,0.7,0.5V197.2z M834.8,168.3
			c0-0.2,0-0.7,0.2-0.9c-0.5,0-0.9-0.2-1.1-0.2c-0.2,0.2-0.5,0.7-0.5,1.1c0,0.9,0.5,1.1,0.9,1.1L834.8,168.3z M835,199.9
			c0-1.1-0.2-1.6-0.9-1.6c0,0.5-0.2,1.1,0,1.6c0,0.2,0.5,0.2,0.7,0.5C834.8,200.4,835,200.1,835,199.9z M834.8,195.6l-0.2-0.9
			c-0.2,0.2-0.2,0.2-0.2,0.5c-0.2,0.5-0.2,0.9-0.2,1.6C834.6,196.8,834.8,196.3,834.8,195.6z"/>
	</g>
	<g>
		<path class="st0" d="M221.3,61.5h-10.5v10.2h-6.5V46.3h6.5v9.5h10.5v-9.5h6.5v25.4h-6.5V61.5z"/>
		<path class="st0" d="M244.7,45.9c7.8,0,13.5,5.4,13.5,13.1s-5.8,13.1-13.5,13.1c-7.8,0-13.6-5.4-13.6-13.1S236.9,45.9,244.7,45.9z
			 M244.7,51.6c-4.2,0-6.9,3.2-6.9,7.3c0,4.1,2.7,7.3,6.9,7.3c4.2,0,6.9-3.2,6.9-7.3C251.6,54.8,248.9,51.6,244.7,51.6z"/>
		<path class="st0" d="M276.3,55.8l-3.8,15.9h-6.9l-7.3-25.4h7.3l3.8,16.9l4.3-16.9h5l4.3,16.9l3.8-16.9h7.4l-7.3,25.4h-6.9
			L276.3,55.8z"/>
		<path class="st0" d="M311.8,52h-7.1v-5.7h20.7V52h-7.1v19.7h-6.5V52z"/>
		<path class="st0" d="M340,45.9c7.8,0,13.5,5.4,13.5,13.1s-5.8,13.1-13.5,13.1c-7.8,0-13.6-5.4-13.6-13.1S332.2,45.9,340,45.9z
			 M340,51.6c-4.2,0-6.9,3.2-6.9,7.3c0,4.1,2.7,7.3,6.9,7.3c4.2,0,6.9-3.2,6.9-7.3C346.9,54.8,344.2,51.6,340,51.6z"/>
		<path class="st0" d="M379,45.9c5.6,0,9,2.7,10.8,5.9l-5.5,2.9c-1-1.7-3-3-5.4-3c-4.1,0-7.1,3.2-7.1,7.3s2.9,7.3,7.1,7.3
			c2,0,3.8-0.7,4.8-1.5v-2.1H378v-5.4h12.2v9.9c-2.7,3-6.4,4.9-11.2,4.9c-7.6,0-13.7-5.1-13.7-13.1S371.5,45.9,379,45.9z"/>
		<path class="st0" d="M394.1,46.3h18.6v5.5h-12.1V56h11.8v5.6h-11.8v4.6h12.1v5.5h-18.6V46.3z"/>
		<path class="st0" d="M422.2,52h-7.1v-5.7h20.7V52h-7.1v19.7h-6.5V52z"/>
		<path class="st0" d="M455.6,61.4l-9.6-15.1h7.4l5.5,9.4l5.4-9.4h7.4l-9.6,15.1v10.2h-6.5V61.4z"/>
		<path class="st0" d="M484.3,45.9c7.8,0,13.5,5.4,13.5,13.1s-5.8,13.1-13.5,13.1c-7.8,0-13.6-5.4-13.6-13.1S476.6,45.9,484.3,45.9z
			 M484.3,51.6c-4.2,0-6.9,3.2-6.9,7.3c0,4.1,2.7,7.3,6.9,7.3c4.2,0,6.9-3.2,6.9-7.3C491.2,54.8,488.5,51.6,484.3,51.6z"/>
		<path class="st0" d="M501.2,46.3h6.7v14.9c0,3,1.6,5.2,5.1,5.2c3.5,0,5.1-2.2,5.1-5.2V46.3h6.7v15.1c0,6.3-3.6,10.8-11.8,10.8
			s-11.8-4.5-11.8-10.7V46.3z"/>
		<path class="st0" d="M539.2,63.1h-3.3v8.6h-6.5V46.3H542c5.6,0,8.8,3.7,8.8,8.4c0,4.4-2.7,6.8-5.1,7.6l5.2,9.3h-7.5L539.2,63.1z
			 M541,51.8h-5.2v5.7h5.2c1.7,0,3.2-1.1,3.2-2.9S542.7,51.8,541,51.8z"/>
		<path class="st0" d="M565.8,63.2c1.8,1.8,4.6,3.3,8.1,3.3c2.2,0,3.6-1,3.6-2.2c0-1.4-1.6-2-4.3-2.6c-4.2-0.8-10-1.9-10-7.9
			c0-4.3,3.6-8,10.1-8c4.1,0,7.6,1.2,10.3,3.5l-3.6,4.7c-2.1-1.7-4.9-2.6-7.2-2.6c-2.2,0-3,0.9-3,2c0,1.3,1.6,1.8,4.4,2.3
			c4.2,0.9,10,2.1,10,7.8c0,5.1-3.8,8.5-10.6,8.5c-5.1,0-8.7-1.6-11.3-4L565.8,63.2z"/>
		<path class="st0" d="M587.2,46.3h6.7v14.9c0,3,1.6,5.2,5.1,5.2c3.5,0,5.1-2.2,5.1-5.2V46.3h6.7v15.1c0,6.3-3.6,10.8-11.8,10.8
			s-11.8-4.5-11.8-10.7V46.3z"/>
		<path class="st0" d="M617,63.2c1.8,1.8,4.6,3.3,8.1,3.3c2.2,0,3.6-1,3.6-2.2c0-1.4-1.6-2-4.3-2.6c-4.2-0.8-10-1.9-10-7.9
			c0-4.3,3.6-8,10.1-8c4.1,0,7.6,1.2,10.3,3.5l-3.6,4.7c-2.1-1.7-4.9-2.6-7.2-2.6c-2.2,0-3,0.9-3,2c0,1.3,1.6,1.8,4.4,2.3
			c4.2,0.9,10,2.1,10,7.8c0,5.1-3.8,8.5-10.6,8.5c-5.1,0-8.7-1.6-11.3-4L617,63.2z"/>
		<path class="st0" d="M638.4,46.3h12.7c5.7,0,8.8,3.8,8.8,8.4c0,4.6-3.1,8.3-8.8,8.3h-6.2v8.6h-6.5V46.3z M650.2,51.8h-5.3v5.7h5.3
			c1.8,0,3-1.1,3-2.8C653.3,52.9,652,51.8,650.2,51.8z"/>
		<path class="st0" d="M662.9,46.3h18.6v5.5h-12.1V56h11.8v5.6h-11.8v4.6h12.1v5.5h-18.6V46.3z"/>
		<path class="st0" d="M691.8,56.3v15.3h-6.5V46.3h6.7l10.3,14.6V46.3h6.6v25.4h-6.3L691.8,56.3z"/>
		<path class="st0" d="M715.1,63.2c1.8,1.8,4.6,3.3,8.1,3.3c2.2,0,3.6-1,3.6-2.2c0-1.4-1.6-2-4.3-2.6c-4.2-0.8-10-1.9-10-7.9
			c0-4.3,3.6-8,10.1-8c4.1,0,7.6,1.2,10.3,3.5l-3.6,4.7c-2.1-1.7-4.9-2.6-7.2-2.6c-2.2,0-3,0.9-3,2c0,1.3,1.6,1.8,4.4,2.3
			c4.2,0.9,10,2.1,10,7.8c0,5.1-3.8,8.5-10.6,8.5c-5.1,0-8.7-1.6-11.3-4L715.1,63.2z"/>
		<path class="st0" d="M736.5,46.3h6.5v25.4h-6.5V46.3z"/>
		<path class="st0" d="M759.9,45.9c7.8,0,13.5,5.4,13.5,13.1s-5.8,13.1-13.5,13.1s-13.6-5.4-13.6-13.1S752.1,45.9,759.9,45.9z
			 M759.9,51.6c-4.2,0-6.9,3.2-6.9,7.3c0,4.1,2.7,7.3,6.9,7.3c4.2,0,6.9-3.2,6.9-7.3C766.8,54.8,764.1,51.6,759.9,51.6z"/>
		<path class="st0" d="M783.3,56.3v15.3h-6.5V46.3h6.7l10.3,14.6V46.3h6.6v25.4H794L783.3,56.3z"/>
	</g>
</g>
</svg>
